<?xml version="1.0" encoding="UTF-8"?><svg id="b" xmlns="http://www.w3.org/2000/svg" viewBox="0 0 171.98 172"><g id="c"><g id="d"><g id="e"><path d="m39.27,76.64c.67-2.02,1.68-4.03,5.38-4.03,2.35,0,3.7,2.69,3.36,4.71-.67,2.35-2.69,3.7-5.04,4.03-4.03,0-4.03-2.35-3.7-4.71m-26.56-17.14c2.02,1.34,5.04,2.02,6.05-.34.67-2.02,1.34-4.03-3.03-7.73-1.68-1.68-4.71.34-5.71,2.35-.67,2.35-.34,3.7,2.69,5.71m137.49,30.93c-3.36-4.03-4.71-4.37-6.05-2.69-1.34,2.02-1.01,8.07,1.01,9.41,1.68,1.68,4.37,1.01,6.05-.67,1.34-2.02.67-4.37-1.01-6.05m.34,19.83c-6.95,18.67-21.67,33.39-40.34,40.34,0,0-6.05,2.02-6.72,11.43-.67,8.4,4.71,7.06,4.71,7.06-45.93,12.22-93.07-15.11-105.29-61.04-3.88-14.59-3.86-29.94.07-44.52,0,0,1.34-5.04,8.4-.34,8.07,5.38,6.72,11.77,6.72,11.77-3.17,19.54,2.22,39.5,14.79,54.8,2.02,2.02,4.37,2.69,11.09.34,8.74-3.36,3.03-10.09,3.03-10.09-5.04-6.05-9.08-13.11-11.09-21.18-1.34-4.71-1.01-12.77,4.37-14.12,4.71-1.34,10.42,3.36,12.44,10.09.67,3.03,2.02,6.05,3.7,8.74,2.35,3.7,6.72,5.04,12.44,3.03s4.71-7.73,2.35-11.77c-2.69-4.37-1.01-9.41,3.03-12.1,4.03-2.35,9.41-.67,11.77,3.36-2.35,4.03-1.01,9.41,3.03,11.77s9.41,1.01,12.1-3.36c2.35-4.03,6.39-7.73,11.09-4.03,5.04,4.37,6.05,8.74,3.7,12.77-1.34,2.69-3.36,5.04-5.71,7.4-5.04,5.04-5.71,12.44-2.69,15.8,4.03,3.7,11.09,0,14.46-3.36,6.05-5.71,10.42-12.77,12.77-20.17,0,0,3.36-8.4,10.42-2.35,5.38,4.37,6.05,7.06,5.38,9.75m-95.14,25.21c-1.01-2.02-6.39-4.71-8.74-3.7-2.02.67-3.03,3.36-2.35,5.38,1.01,2.35,3.36,3.03,5.71,2.35,5.04-1.01,6.05-1.68,5.38-4.03m44.04,27.23c.34-2.35-.67-5.38-3.03-5.04-2.35.67-4.37,1.01-5.38,6.72-.34,2.35,2.69,3.7,5.04,3.36s3.36-1.01,3.36-5.04m3.7-36.98c-1.34-2.02-3.36-3.03-5.71-2.35-2.02.67-3.7,3.03-2.35,5.04,2.02,3.36,4.03,3.36,6.05,2.69,2.35-.67,4.37-2.02,2.02-5.38m6.05-20.84c1.68-1.68,3.7-4.37,3.36-6.72-.67-2.35-3.36-5.04-5.38-3.7-2.35,1.34-4.03,5.04-3.36,7.06.34,2.35,3.03,5.04,5.38,3.36m-46.73-2.02c2.02.67,5.71-.34,5.71-2.69,0-2.69-2.35-6.05-4.71-6.72-2.02-.67-5.71.34-5.04,3.36.34,2.35,1.68,5.38,4.03,6.05" fill="#006c66"/><path d="m146.85,25.2s3.7,4.03-3.7,7.73c-8.74,4.03-13.45,0-13.45,0-15.31-12.53-35.26-17.92-54.8-14.79-2.69.67-4.71,2.69-6.05,9.75-1.34,8.74,7.4,7.4,7.4,7.4,7.73-1.34,15.8-1.01,23.53,1.01,4.71,1.34,11.77,5.71,10.42,10.76-1.34,4.71-8.4,7.73-15.13,5.71-3.03-.67-6.39-1.01-9.41-1.01-4.37,0-7.73,3.03-8.74,9.41-1.34,5.71,4.03,7.73,8.74,7.73,5.04,0,9.08,4.03,9.08,8.74s-4.03,8.4-8.74,8.4c-2.35,4.03-1.01,9.41,3.03,11.77s9.41,1.01,12.1-3.36c2.35-4.03,6.39-7.73,11.09-4.03,5.04,4.37,6.05,8.74,3.7,12.77-1.34,2.69-3.36,5.04-5.71,7.4-5.04,5.04-5.71,12.44-2.69,15.8,4.03,3.7,11.09,0,14.46-3.36,6.05-5.71,10.42-12.77,12.77-20.17,0,0,3.36-8.4,10.42-2.35,5.38,4.37,6.05,7.06,5.38,9.75-6.95,18.67-21.67,33.39-40.34,40.34,0,0-6.05,2.02-6.72,11.43-.67,8.4,4.71,7.06,4.71,7.06,45.91-12.31,73.14-59.51,60.83-105.41-3.9-14.54-11.55-27.81-22.17-38.47m-56.14,37.65c-1.68,1.68-5.71,2.02-8.07.67-2.35-1.01-1.01-4.71.67-6.39s5.04-1.01,7.4-.34c2.69.67,1.68,4.37,0,6.05m27.57-5.71c-1.34,2.02-4.03,1.68-5.71.34-1.68-1.68-2.02-4.03-1.01-6.05,2.02-4.03,4.03-2.69,5.71-1.01,1.68,1.34,2.69,3.36,1.01,6.72m27.57-21.18c3.36-1.68,4.37-1.34,6.05.67,1.34,1.68,1.68,5.04-.67,6.05-5.38,1.68-6.72.34-8.4-1.68-1.34-1.68.67-4.03,3.03-5.04m5.38,60.51c-1.68,1.68-4.37,2.35-6.05.67-2.02-1.34-2.35-7.4-1.01-9.41,1.34-1.68,2.69-1.34,6.05,2.69,1.68,1.68,2.35,4.03,1.01,6.05m-60.17,67.91c1.01-5.71,3.03-6.05,5.38-6.72,2.35-.34,3.36,2.69,3.03,5.04,0,4.03-1.01,4.71-3.36,5.04s-5.38-1.01-5.04-3.36m10.09-33.28c2.35-.67,4.37-2.02,2.02-5.38-1.34-2.02-3.36-3.03-5.71-2.35-2.02.67-3.7,3.03-2.35,5.04,2.02,3.36,4.03,3.36,6.05,2.69m8.07-26.22c1.68-1.68,3.7-4.37,3.36-6.72-.67-2.35-3.36-5.04-5.38-3.7-2.35,1.34-4.03,5.04-3.36,7.06.34,2.35,3.03,5.04,5.38,3.36M57.76,28.23c-1.68,5.04-1.68,6.05.67,6.39s7.4-3.03,7.73-5.38-1.34-4.37-3.7-4.71-4.03,1.34-4.71,3.7" fill="#00b1ea"/><path d="m117.26,50.42c1.68,1.34,2.69,3.36,1.01,6.72-1.34,2.02-4.03,1.68-5.71.34-1.68-1.68-2.02-4.03-1.01-6.05,2.02-4.03,4.03-2.69,5.71-1.01m-70.6,81.35c-2.02.67-3.03,3.36-2.35,5.38,1.01,2.35,3.36,3.03,5.71,2.35,5.04-1.01,6.05-1.68,5.38-4.03-1.01-2.02-6.39-4.71-8.74-3.7m105.22-95.14c-1.68-2.02-2.69-2.35-6.05-.67-2.35,1.01-4.37,3.36-3.03,5.04,1.68,2.02,3.03,3.36,8.4,1.68,2.35-1.01,2.02-4.37.67-6.05m-8.74-3.7c-8.74,4.03-13.45,0-13.45,0-15.31-12.53-35.26-17.92-54.8-14.79-2.69.67-4.71,2.69-6.05,9.75-1.34,8.74,7.4,7.4,7.4,7.4,7.73-1.34,15.8-1.01,23.53,1.01,4.71,1.34,11.77,5.71,10.42,10.76-1.34,4.71-8.4,7.73-15.13,5.71-3.03-.67-6.39-1.01-9.41-1.01-4.37,0-7.73,3.03-8.74,9.41-1.34,5.71,4.03,7.73,8.74,7.73,5.04,0,9.08,4.03,9.08,8.74s-4.03,8.4-8.74,8.4c-2.35-4.03-7.73-5.71-11.77-3.36s-5.71,7.73-3.03,12.1c2.35,4.03,3.36,9.75-2.35,11.77s-10.09.67-12.44-3.03c-1.68-2.69-3.03-5.71-3.7-8.74-2.02-6.72-7.73-11.43-12.44-10.09-5.38,1.34-5.71,9.41-4.37,14.12,2.02,8.07,6.05,15.13,11.09,21.18,0,0,5.71,6.72-3.03,10.09-6.72,2.35-9.08,1.68-11.09-.34-12.61-15.27-18.01-35.25-14.79-54.8,0,0,1.34-6.39-6.72-11.77-7.06-4.71-8.4.34-8.4.34C15.42,17.66,62.7-9.43,108.57,3.03c14.47,3.93,27.67,11.57,38.28,22.17,0,0,3.7,4.03-3.7,7.73M15.74,51.43c-1.68-1.68-4.71.34-5.71,2.35-.67,2.35-.34,3.7,2.69,5.71,2.02,1.34,5.04,2.02,6.05-.34.67-2.02,1.34-4.03-3.03-7.73m28.91,21.18c-3.7,0-4.71,2.02-5.38,4.03-.34,2.35-.34,4.71,3.7,4.71,2.35-.34,4.37-1.68,5.04-4.03.34-2.02-1.01-4.71-3.36-4.71m13.78-37.99c2.35.34,7.4-3.03,7.73-5.38s-1.34-4.37-3.7-4.71-4.03,1.34-4.71,3.7c-1.68,5.04-1.68,6.05.67,6.39m9.75,65.55c0-2.69-2.35-6.05-4.71-6.72-2.02-.67-5.71.34-5.04,3.36.34,2.35,1.68,5.38,4.03,6.05,2.02.67,5.71-.34,5.71-2.69m15.13-43.03c-1.68,1.68-3.03,5.38-.67,6.39,2.35,1.34,6.39,1.01,8.07-.67s2.69-5.38,0-6.05c-2.35-.67-5.71-1.34-7.4.34" fill="#c6d325"/></g></g></g></svg>