<?xml version="1.0" encoding="UTF-8"?><svg id="b" xmlns="http://www.w3.org/2000/svg" viewBox="0 0 114.92 74.5"><g id="c"><g id="d"><g id="e"><path d="M59.81,10.12c-.19,0-.37,.01-.54,.03-.1,0-.2,.02-.3,.04-.07,0-.15,.01-.22,.02-.17,.01-.33,.04-.5,.05-.11,.01-.23,.03-.34,.05-.05,0-.1,.01-.15,.02-.17,.02-.33,.04-.5,.06-.09,.01-.18,.02-.26,.03l-.29,.03c-.18,.02-.35,.04-.49,.04-.15,0-.3,.01-.45,.03-.18,0-.37,.01-.55,.03l-.61,.04c-.15,.01-.31,.02-.46,.03-.06,0-.13,.01-.2,.01-.11,0-.21,.01-.31,.02-.17,0-.34,.01-.51,.02h-.25c-.3,.03-.61,.04-.91,.05-.22,0-.44,0-.66,.01h-.51c-.17,0-.35,0-.52,.01-.22,0-.43,0-.64,.01h-1.23c-.32,0-.64,0-.96-.01h-1.61c-.1,0-.2,0-.3-.01h-.46c-.45,0-.9,.04-1.34,.06h-.25c-.08,.01-.15,.01-.23,.03-.12,0-.25,0-.37,.02-.07,0-.13,.01-.2,.02-.13,.01-.27,.03-.41,.04h-.25c-.1,0-.2,0-.31,.01h-.13c-.12,.02-.25,.04-.37,.04-.06,0-.08,.05-.08,.09,0,.05,.04,.1,.09,.1h.54c.1,0,.2,.02,.3,.04,.08,.01,.18,.03,.27,.04,.13,.01,.26,.02,.39,.03,.08,0,.17,0,.25,.01h.14s-.02,.01-.02,.01c.07,0,.15,0,.22,.01h.13s-.05,.04-.08,.05h-.04c-.06,.05-.13,.08-.2,.13-.18,.11-.36,.25-.51,.43-.1,.11-.18,.23-.27,.34l-.08,.1c-.11,.14-.23,.31-.36,.52-.09,.15-.16,.32-.23,.48l-.03,.06c-.05,.12-.09,.23-.14,.35-.02,.06-.05,.12-.07,.18-.11,.28-.25,.54-.39,.79-.04,.08-.08,.16-.13,.24l-.15,.3c-.05,.09-.09,.18-.14,.27-.06,.11-.12,.22-.18,.32-.04,.08-.1,.16-.14,.23l-.02,.04c-.08,.12-.17,.25-.27,.37-.04,.06-.08,.11-.13,.17-.08,.1-.15,.19-.23,.29-.14,.18-.28,.37-.41,.57-.08,.13-.16,.25-.23,.39-.1,.19-.18,.42-.24,.68-.06,.31-.13,.68-.12,1.05,.01,.27,.06,.52,.11,.71,.04,.17,.11,.33,.17,.49l.03,.06c.08,.18,.17,.36,.25,.54l.04,.07c.06,.11,.11,.22,.17,.32v.04c.1,.17,.18,.35,.28,.52,.04,.06,.08,.13,.12,.2,.06,.09,.11,.18,.16,.28,.04,.09,.06,.2,.08,.29,.02,.07,.04,.15,.06,.22,.06,.2,.15,.4,.22,.56,.09,.2,.19,.4,.29,.6l.04,.08c.08,.18,.18,.35,.26,.5,.11,.2,.25,.45,.41,.71l.08,.14,.08,.14c.2,.35,.39,.66,.58,.92,.15,.2,.32,.4,.45,.56,.23,.26,.4,.45,.58,.63,.16,.16,.33,.3,.51,.44h.02c.19,.17,.42,.35,.65,.52,.42,.3,.87,.59,1.36,.83,.22,.11,.44,.22,.65,.3,.24,.1,.51,.19,.8,.27,.14,.04,.25,.06,.36,.08,.13,.02,.27,.04,.43,.04h0c.11,0,.23-.01,.34-.03h.01c.17-.02,.32-.06,.47-.1,.11-.04,.22-.08,.31-.13,.14-.06,.27-.13,.38-.2,.21-.13,.4-.31,.58-.53,.25-.3,.46-.66,.63-1.09,.08-.18,.13-.38,.2-.56,.02-.06,.04-.13,.05-.19,0-.04,.01-.06,.02-.09,.01-.06,.04-.13,.05-.2v-.06h.01c.01-.07,.03-.14,.04-.21,0-.04,0-.06,.01-.09,.01-.06,.02-.13,.03-.19,.02-.2,.04-.4,.05-.6,0-.18,0-.36,0-.54v-.05h.02c.13-.08,.26-.14,.39-.21-.08-.17-.14-.33-.2-.52-.01-.08-.03-.16-.04-.24,.01-.23,.04-.42,.07-.59,.06-.2,.15-.39,.27-.6,.08-.13,.16-.23,.25-.33l.05-.04s.08,.08,.13,.13c.1,.11,.18,.21,.27,.31,.09,.12,.17,.24,.24,.35,.06,.11,.12,.22,.18,.33,.07,.13,.15,.27,.23,.41,.3-.18,.54-.32,.77-.47,.25-.16,.51-.33,.77-.49l.23-.15,.15-.1,.43-.28c.13-.08,.26-.16,.39-.24,.06-.04,.13-.08,.2-.12,.2-.12,.4-.24,.6-.36,.11-.06,.22-.13,.33-.2l.29-.18c.63-.37,1.28-.77,1.92-1.16,.13-.08,.27-.17,.43-.28,.06-.04,.11-.07,.17-.11,.11-.07,.23-.15,.35-.23l.3-.21,.3-.21s.08-.06,.11-.08l.04-.02,.28-.22,.06-.05c.11-.08,.22-.18,.32-.26l.12-.1,.04-.03c.13-.11,.28-.23,.42-.35l.28-.25,.28-.25c.14-.13,.27-.26,.39-.4,.2-.22,.38-.46,.55-.68,.34-.44,.61-.86,.83-1.27,.06-.11,.11-.21,.17-.32l.04-.07s.06-.1,.08-.16l.07-.15c.08-.18,.18-.37,.25-.56,.11-.28,.2-.55,.26-.81,.06-.27,.11-.56,.13-.88,.04-.54-.11-1.11-.4-1.6-.07-.13-.17-.23-.27-.33-.11-.11-.23-.2-.33-.27-.18-.11-.37-.2-.53-.26-.42-.17-.82-.29-1.2-.36-.36-.06-.75-.11-1.2-.13-.15,0-.29-.01-.44-.02-.2-.01-.4-.03-.6-.04h-.06c-.13,0-.27-.01-.41-.01h-.05Zm-11.95,19.64c-.15-.01-.3-.06-.42-.08l-.08-.02h-.01c.06,0,.11,0,.17-.01,.19-.02,.35-.06,.49-.13,.18-.08,.33-.17,.46-.27,.1-.08,.2-.18,.28-.28,.05-.06,.1-.14,.14-.23,.04-.07,.06-.15,.08-.23v-.04c.06-.17,.05-.37-.01-.55-.03-.07-.07-.16-.13-.26-.04-.06-.08-.11-.12-.16l-.04-.04s-.04-.06-.06-.08c.01-.02,.04-.04,.06-.06,.13-.1,.26-.2,.43-.32,.13-.09,.27-.18,.42-.26l.11-.06c.29-.18,.58-.33,.92-.51,0,.04,0,.06-.01,.1-.02,.17-.04,.32-.07,.47-.04,.17-.08,.33-.11,.47-.03,.1-.06,.2-.08,.3l-.03,.08v.05s-.08,.18-.08,.18c-.02,.06-.05,.13-.08,.19-.01,.03-.02,.05-.04,.08-.03,.07-.06,.15-.1,.22v.04c-.09,.16-.18,.3-.26,.44-.15,.2-.3,.38-.44,.52-.13,.11-.27,.2-.43,.28-.15,.07-.3,.12-.44,.16-.15,.02-.3,.04-.44,.04h-.07s0-.01,0-.01Z" fill="#fff0e2"/><path d="M81.48,5.21s-.1,.01-.17,.02c-.2,.03-.35,.06-.38,.06-.13,.03-.29,.06-.47,.11-.24,.06-.49,.08-.74,.11h-.04c-.08,.01-.15,.02-.23,.03h-.15c-.29,.05-.59,.08-.89,.11-.37,.04-.73,.08-1.08,.13-.12,.01-.23,.04-.35,.05h-.02c-.23,.04-.46,.07-.7,.09-.15,.01-.3,.03-.45,.05-.22,.03-.45,.06-.68,.07-.2,.01-.42,.04-.61,.06-.17,.01-.36,.04-.54,.06-.27,.02-.55,.06-.82,.08h-.03c-.08,.01-.17,.02-.25,.04-.2,.03-.42,.04-.61,.06h0c-.18,.01-.35,.04-.53,.05-.35,.04-.68,.1-1.01,.15h-.06c-.34,.07-.69,.13-1.08,.21-.16,.04-.32,.07-.54,.13-.2,.06-.42,.11-.64,.19-.08,.03-.16,.06-.25,.11h-.01c-.12,.06-.24,.12-.35,.2-.18,.12-.32,.28-.45,.43-.13,.15-.24,.32-.35,.49-.04,.06-.07,.11-.11,.17-.04,.06-.08,.12-.12,.18l-.02,.04c-.09,.14-.18,.28-.28,.42-.05,.06-.11,.13-.15,.2h-.01s-.06,.1-.06,.1l-.05,.06c-.06,.07-.12,.15-.18,.22-.14,.16-.28,.3-.43,.45-.02,.01-.05,.02-.07,.03-.12,.02-.25,.02-.38,.03h-.47c-.2,0-.41-.04-.61-.06-.15-.01-.3-.04-.44-.05-.16-.01-.35-.03-.52-.04h-.68c-.17,0-.33,.02-.54,.05-.22,.03-.42,.07-.61,.13-.17,.05-.32,.11-.47,.17-.18,.08-.36,.16-.51,.29-.08,.07-.15,.14-.2,.2-.04,.03-.06,.05-.09,.08-.06,.06-.14,.11-.2,.18-.14,.13-.3,.29-.44,.47-.13,.16-.23,.33-.32,.51l-.02,.04-.08,.13-.03,.05-.02,.04-.02,.04c-.18,.3-.41,.59-.69,.88l-.06,.06c-.09,.08-.18,.18-.28,.25-.1,.07-.2,.14-.3,.2-.15,.08-.32,.18-.51,.26-.06,.04-.14,.06-.22,.08-.03,.01-.05,.01-.08,.03-.07,.02-.14,.04-.2,.06-.2,.05-.42,.08-.65,.11-.2,.02-.42,.02-.61,.02h-.05c-.29,0-.59-.02-.85-.04-.33-.02-.7-.04-1.06-.04-.14,0-.28,0-.42,.01-.18,0-.37,.04-.54,.08h-.04c-.25,.06-.5,.13-.7,.2-.37,.12-.73,.29-1.06,.45-.15,.08-.29,.16-.43,.25-.1,.06-.19,.17-.27,.25l-.02,.02s-.06,.06-.08,.1c-.12,.15-.24,.32-.35,.48-.12,.2-.25,.41-.37,.64-.08,.14-.13,.3-.18,.44l-.04,.11c-.09,.24-.16,.46-.21,.66,0,.04-.01,.06-.02,.09-.01,.06-.04,.12-.04,.18,0,.03-.01,.06-.02,.1h0c-.01,.08-.03,.14-.04,.21-.02,.19-.05,.39-.05,.59,0,.3,0,.55,0,.79,0,.2,.04,.4,.06,.58h0c.03,.18,.06,.37,.09,.55,.07,.37,.16,.75,.25,1.21l.06,.27c.06,.3,.13,.6,.19,.9,.06,.37,.11,.77,.15,1.26,.01,.15,.01,.3,.02,.44v.04c0,.3-.04,.54-.09,.76-.03,.08-.05,.15-.08,.2-.03,.06-.06,.11-.08,.15-.06,.11-.13,.2-.21,.29-.05,.04-.11,.08-.16,.13-.03,.01-.06,.03-.09,.04-.28,.06-.56,.06-.83,.06-.27-.01-.51-.04-.72-.09-.14-.05-.27-.11-.42-.18-.15-.1-.3-.21-.44-.35-.06-.06-.13-.15-.21-.23-.03-.03-.05-.06-.08-.08-.06-.07-.11-.13-.16-.2-.02-.03-.04-.05-.06-.08l-.02-.03c-.06-.07-.12-.15-.17-.22l-.24-.37h0s-.01-.02-.01-.02c-.05-.08-.1-.17-.15-.26-.11-.22-.2-.4-.27-.57-.06-.14-.13-.3-.19-.47l-.1-.28s-.02-.07-.04-.11c-.04-.16-.05-.26-.07-.37-.01-.11-.03-.22-.04-.32v-.09c-.04-.23-.04-.46-.04-.67,.03-.63,.1-1.21,.22-1.77,.1-.32,.23-.65,.39-.99,.09-.2,.2-.39,.3-.58h0c.1-.19,.18-.35,.25-.5,.08-.16,.14-.32,.2-.48l.02-.06c.06-.17,.12-.35,.18-.55,.04-.13,.08-.25,.11-.38l.02-.07c.07-.23,.14-.47,.2-.7,.12-.42,.22-.85,.3-1.28l.06-.38v-.04l.04-.15c.03-.18,.04-.36,.05-.59,0-.21,0-.45-.05-.68-.04-.14-.06-.27-.11-.39s-.11-.23-.17-.35c-.21-.36-.57-.65-.98-.8-.35-.12-.7-.2-1.11-.26-.15-.02-.3-.03-.45-.04h-.04c-.06,0-.12-.01-.18-.01h-.02c-.11-.01-.22-.02-.33-.02-.18,0-.37-.01-.58-.01h-.37c-.06,0-.13,0-.2,0-.24,0-.49-.02-.73-.03h-.01c-.14-.01-.28-.01-.43-.02-.2-.01-.41-.01-.61-.01h-.05c-.18,0-.37,0-.55-.01-.34-.01-.71-.02-1.18-.04-.28,0-.57-.02-.85-.04h-.32c-.25-.02-.5-.05-.74-.08h-.01c-.11-.01-.23-.03-.35-.04-.08,0-.18-.01-.26-.02h-.13c-.24-.04-.5-.06-.75-.08-.35-.04-.7-.08-1.09-.12-.18-.02-.37-.04-.54-.06-.56-.06-1.15-.13-1.73-.23-.37-.06-.74-.13-1.11-.19-.13-.02-.25-.04-.38-.06-.23-.04-.49-.08-.73-.13l-.13-.03c-.3-.06-.61-.12-.91-.18-.2-.04-.42-.06-.63-.1l-.51-.08-.2-.03c-.3-.05-.61-.11-.92-.14-.12-.01-.24-.04-.36-.04h-.01c-.25-.04-.49-.06-.74-.11-.23-.04-.44-.06-.63-.06-.18,0-.35,.03-.51,.08v.04c-.02,.06-.08,.11-.13,.11h-.11s-.03,.02-.04,.04c-.04,.04-.08,.08-.11,.13h-.07c-.11,0-.21,.04-.29,.1-.05,.04-.11,.09-.16,.15-.04,.04-.06,.1-.1,.15,0,.01-.01,.04-.03,.05l-.02,.04c-.04,.07-.08,.13-.12,.2-.08,.15-.13,.31-.19,.48v.02c-.03,.06-.05,.13-.08,.2-.04,.11-.08,.22-.12,.34-.05,.18-.1,.39-.15,.65-.04,.18-.04,.38-.05,.57h0c0,.21,0,.42,.01,.71,.04,.39,.09,.77,.15,1.15v.08c.1,.53,.23,1.09,.42,1.75,.08,.26,.16,.52,.25,.78h0s.01,.04,.01,.04c.08,.23,.17,.5,.25,.77,.03,.12,.04,.24,.05,.37,0,.18-.03,.35-.06,.5-.06,.18-.12,.34-.2,.49-.17,.27-.36,.54-.56,.78-.18,.21-.38,.43-.63,.69-.13,.13-.28,.26-.44,.4l-.13,.12-.11,.1c-.07,.06-.13,.13-.21,.21l-.02,.02h-.01s-.07,.08-.07,.08c-.12,.12-.23,.26-.33,.38l-.04,.04-.05,.06c-.19,.23-.37,.49-.51,.74-.12,.2-.2,.37-.28,.53l-.04,.08c-.03,.06-.06,.13-.08,.2-.08,.22-.18,.47-.24,.73-.05,.21-.1,.44-.14,.68-.05,.29-.07,.6-.05,.93,.01,.3,.09,.6,.2,.95,.04,.13,.09,.27,.15,.41,.09,.21,.2,.46,.32,.69,.25,.44,.51,.77,.81,1.02,.08,.06,.16,.12,.23,.16,.09,.05,.18,.11,.3,.15,.17,.06,.35,.1,.55,.1h.12c.21-.01,.39-.11,.58-.23,.17-.1,.31-.24,.43-.42,.1-.14,.18-.3,.25-.43v-.03c.07-.11,.12-.23,.17-.34,.05-.12,.1-.23,.16-.35,.14-.22,.27-.4,.42-.56,.06-.06,.13-.11,.2-.16,.04-.02,.08-.04,.13-.06h.06s.04,0,.06,.01c.06,.02,.11,.04,.16,.06,.14,.1,.27,.22,.39,.32,.07,.08,.13,.16,.18,.24,.08,.15,.15,.3,.2,.45,.06,.18,.13,.37,.2,.61,.11,.36,.25,.73,.42,1.12h0c.08,.19,.15,.37,.25,.53l.05,.09c.06,.12,.12,.23,.18,.33,.08,.13,.15,.23,.22,.32,.1,.13,.23,.26,.39,.4,.08,.06,.17,.12,.26,.17,.04,.02,.06,.04,.09,.06,.16,.1,.31,.18,.46,.25,.19,.08,.39,.14,.58,.19,.22,.06,.44,.1,.7,.15,.39,.06,.82,.09,1.37,.09,.25,0,.51,0,.69,0h.22c.18,0,.37,0,.55-.01h.27c.43-.01,.85-.02,1.27-.03,.37,.01,.75,.03,1.13,.12,.13,.04,.25,.09,.37,.15,.06,.04,.11,.07,.15,.11,.03,.03,.05,.06,.07,.09,.02,.05,.04,.09,.06,.13,0,.04,.01,.08,.01,.12,0,.09-.02,.18-.04,.27-.06,.18-.14,.35-.22,.51-.08,.17-.16,.34-.25,.52-.08,.18-.18,.36-.3,.59-.06,.11-.12,.22-.19,.33h0s-.11,.17-.11,.17h-.01c-.18,.32-.39,.66-.58,.99-.18,.32-.35,.64-.5,.99-.12,.3-.21,.61-.27,.93-.02,.14-.03,.28-.03,.41,0,.25,0,.44,.03,.63,.02,.2,.06,.42,.12,.68,.04,.21,.09,.44,.15,.66,.11,.47,.24,.96,.42,1.42,.1,.27,.23,.52,.37,.75,.13,.21,.31,.41,.56,.63,.08,.08,.18,.14,.26,.2,.16,.1,.31,.18,.46,.25,.12,.05,.24,.08,.36,.11h0l.08,.02s.06,.01,.09,.02h.06c.18,.06,.35,.08,.49,.11,.13,.01,.25,.01,.35,.01h.13c.13,0,.27-.01,.42-.04,.15-.03,.31-.07,.44-.11h.06s.06-.03,.06-.03c.08-.02,.16-.05,.24-.08,.49-.2,.92-.5,1.34-.78,.17-.12,.39-.27,.6-.4l.09-.05,.09-.05c.14-.07,.29-.13,.46-.19,.17-.04,.34-.06,.54-.06,.05,0,.1,0,.15,0h.35c.09,0,.19,.01,.28,.03l.42,.06s.09,.01,.13,.03h.06c.06,.03,.12,.04,.18,.06,.01,0,.04,0,.05,0h.04c.09,.04,.19,.06,.29,.1,.2,.07,.4,.15,.6,.22,.18,.07,.37,.16,.51,.22l.05,.02c.11,.05,.23,.11,.32,.17l.04,.02c.18,.11,.32,.21,.46,.32,.11,.08,.21,.16,.34,.26h.01s.1,.09,.1,.09c.14,.11,.28,.23,.46,.37l.03,.02c.13,.11,.32,.26,.49,.4,.2,.16,.39,.3,.58,.43,.25,.18,.53,.34,.77,.48h0c.21,.13,.45,.23,.73,.32,.34,.11,.66,.18,.97,.19h.26c.23,0,.45-.01,.66-.05,.23-.04,.46-.11,.68-.18h.04c.19-.08,.39-.15,.6-.24,.18-.08,.35-.18,.54-.28,.37-.21,.75-.47,1.19-.78,.31-.23,.6-.5,.84-.8,.14-.18,.27-.37,.37-.54,.06-.11,.12-.21,.18-.33,.02-.04,.04-.08,.06-.11,.04-.07,.07-.15,.1-.21l.04-.07c.04-.08,.07-.16,.1-.23,.01-.04,.04-.07,.05-.11h0s0-.01,0-.01c.03-.06,.06-.13,.08-.2v-.05c.08-.17,.15-.37,.2-.55,.06-.2,.12-.4,.18-.6v-.02c.1-.31,.19-.65,.26-.91v-.06s.04-.08,.04-.08c.01-.05,.03-.09,.04-.14h0c.02-.06,.04-.11,.05-.17,.01-.05,.04-.1,.04-.16,.1-.37,.18-.74,.25-1.11,.07-.41,.11-.83,.12-1.27,.02-.81-.07-1.67-.27-2.62-.05-.23-.12-.47-.19-.7v-.06c-.06-.18-.13-.35-.19-.52v-.04c-.15-.38-.3-.78-.51-1.17-.21-.4-.44-.81-.7-1.25l-.11-.17h0c-.18-.29-.37-.6-.56-.9-.22-.34-.46-.68-.67-.99v-.02s-.04-.04-.04-.04v-.02c-.23-.3-.46-.65-.68-.99-.15-.23-.28-.46-.44-.71-.11-.2-.23-.42-.35-.65l-.04-.07c-.08-.17-.14-.33-.2-.52-.01-.08-.03-.16-.04-.24,.01-.23,.04-.42,.07-.59,.06-.2,.16-.39,.27-.6,.08-.13,.16-.23,.25-.33l.05-.04s.08,.08,.13,.13c.1,.11,.18,.21,.27,.31,.09,.12,.17,.24,.24,.35,.06,.11,.12,.22,.18,.33,.07,.13,.15,.27,.23,.41l.02,.04c.06,.11,.13,.21,.19,.32,.07,.11,.15,.23,.25,.33,.09,.11,.2,.2,.32,.32,.15,.14,.35,.26,.6,.37,.18,.08,.41,.12,.65,.13h.07c.11,0,.2,0,.28-.03,.13-.04,.27-.08,.4-.14,.15-.07,.32-.16,.47-.27,.05-.04,.11-.08,.15-.12h.01s.05-.05,.05-.05c.09-.06,.18-.13,.27-.2,.18-.14,.37-.29,.56-.42,.1-.05,.18-.09,.27-.12,.06,0,.11-.01,.17-.02,.06,0,.12,.01,.18,.03,.01,0,.03,0,.04,.01l.04,.06c.1,.14,.18,.29,.26,.45,0,.06,.01,.13,.02,.2,0,.06,.04,.13,.08,.17,.01,.06,.02,.11,.04,.16,.03,.29,0,.57-.03,.9-.02,.17-.05,.33-.08,.49v.03c-.04,.18-.06,.36-.08,.54-.04,.23-.06,.47-.06,.73,0,.35,.01,.65,.06,.93,.01,.08,.04,.18,.06,.27,0,.04,.01,.06,.02,.1,.08,.3,.21,.59,.32,.8,.12,.25,.27,.47,.41,.66,.13,.19,.28,.37,.43,.55,.01,.01,.02,.02,.03,.04h.01s.01,.03,.01,.03c.04,.06,.08,.1,.13,.14l.12,.12,.12,.12c.11,.11,.24,.22,.4,.35h.01v.03c.13,.1,.25,.2,.39,.29,.18,.14,.39,.25,.63,.37,.3,.13,.56,.23,.82,.28,.22,.05,.43,.07,.64,.07,.06,0,.12,0,.19,0,.34-.02,.63-.08,.87-.18,.13-.05,.28-.12,.42-.21,.12-.08,.25-.18,.37-.3,.1-.09,.18-.2,.25-.31l.05-.06c.07-.09,.13-.2,.2-.32,.05-.08,.09-.18,.13-.26l.04-.08c.08-.18,.15-.38,.22-.56h0s.03-.08,.03-.08c.04-.13,.08-.25,.12-.39l.02-.08,.03-.08c.05-.16,.11-.31,.16-.47,.07-.16,.15-.3,.25-.43,.06-.08,.13-.15,.21-.21,.07-.05,.14-.09,.22-.13,.07-.02,.15-.04,.23-.06,.08,0,.15-.01,.24-.01,.15,0,.3,.01,.49,.04,.19,.04,.39,.08,.6,.16,.14,.06,.27,.15,.42,.25,.11,.09,.2,.17,.27,.24,.1,.09,.2,.2,.31,.34,.19,.27,.33,.56,.45,.83,.18,.47,.37,.95,.52,1.38v.03c.11,.26,.2,.54,.3,.8,.15,.4,.32,.81,.51,1.23,.08,.18,.17,.35,.26,.52,.08,.17,.17,.33,.27,.49l.17,.28h0c.15,.24,.32,.47,.54,.73,.11,.13,.24,.27,.37,.38,.02,.01,.04,.04,.06,.06,.06,.06,.11,.11,.17,.15,.2,.16,.4,.32,.61,.48,.13,.09,.26,.18,.39,.26,.05,.03,.08,.05,.13,.08,.05,.04,.11,.06,.16,.1h.01s.08,.06,.08,.06c.23,.14,.49,.24,.73,.33,.21,.08,.4,.13,.58,.17,.22,.04,.49,.1,.75,.13h.06c.16,.02,.33,.04,.5,.04h.05c.54-.01,.99-.06,1.38-.16,.65-.16,1.16-.37,1.57-.66,.23-.16,.42-.32,.56-.5,.07-.08,.15-.17,.22-.26,.08-.1,.16-.2,.27-.35,.04-.06,.08-.13,.12-.18h0s.04-.06,.04-.06h.01c.23-.38,.4-.77,.58-1.21,.2-.49,.35-.97,.5-1.47,.13-.42,.28-.92,.48-1.4,.08-.18,.16-.33,.23-.47,.08-.15,.17-.29,.25-.42h0s.01-.03,.01-.03l.03-.04c.07-.12,.15-.23,.22-.35l.07-.11,.04-.06,.06-.09c.08-.13,.17-.27,.25-.41,.08-.16,.16-.34,.23-.49v-.04c.13-.27,.23-.49,.3-.69,.12-.33,.21-.69,.29-1.15,.05-.3,.08-.61,.13-.92v-.18c.01-.07,.03-.14,.04-.2,.06-.44,.09-.83,.11-1.19,.02-.43,.02-.85,.02-1.21,0-.41-.02-.79-.06-1.16-.03-.24-.06-.49-.11-.75v-.02c-.05-.18-.08-.37-.15-.55-.15-.46-.34-.91-.49-1.25-.15-.37-.32-.73-.47-1.09-.08-.16-.17-.36-.27-.54-.03-.05-.06-.1-.08-.16l-.02-.04c-.06-.12-.13-.23-.18-.35-.1-.2-.2-.4-.3-.6-.11-.29-.24-.63-.3-.97-.03-.27-.01-.55,0-.82v-.03c0-.2,.02-.42,.06-.71,.03-.15,.06-.32,.1-.49,.04-.14,.08-.3,.16-.49,.06-.14,.15-.33,.25-.51,.13-.22,.26-.44,.39-.64,.09-.15,.18-.3,.25-.43v-.02c.14-.25,.28-.5,.45-.73,.14-.17,.3-.33,.43-.47l.16-.17c.22-.23,.44-.47,.68-.69,.28-.26,2.19-2.23,2.23-2.1l.04,.15v.03c.02,.11,.05,.21,.08,.31,.04,.14,.08,.29,.15,.47,.07,.19,.15,.4,.23,.55l.04,.09c.13,.3,.26,.6,.4,.9,.04,.08,.08,.16,.12,.24h0s.01,.03,.01,.03c.03,.06,.06,.11,.08,.17,.06,.12,.11,.24,.15,.35h0s.04,.08,.04,.08c.11,.25,.25,.5,.35,.71h0c.04,.08,.08,.15,.11,.22,.11,.21,.24,.42,.35,.61,.06,.11,.13,.21,.18,.32,.07,.12,.14,.23,.21,.35h.01c.13,.23,.25,.44,.37,.65,.03,.05,.05,.1,.08,.15l.04,.06,.02,.04v.02c.06,.08,.09,.15,.13,.22,.08,.14,.15,.28,.22,.42,.1,.24,.17,.49,.24,.73,.06,.2,.1,.42,.14,.67v.13c.03,.07,.04,.13,.08,.18,.04-.05,.08-.1,.12-.14l.02-.02s.04-.04,.06-.06c.04-.03,.07-.05,.11-.08l.07-.05s.07-.05,.11-.08c.03-.02,.05-.05,.08-.07h.01s.04-.06,.06-.07l.03-.03,.04-.04c.06-.06,.13-.12,.2-.18h.01c.04-.16,.06-.3,.1-.44v-.06s.03-.04,.03-.04v-.05s.01-.03,.01-.03c.01-.05,.03-.11,.04-.16,.04-.15,.06-.32,.08-.42v-.08c.04-.18,.09-.37,.13-.51,.05-.18,.11-.35,.16-.51l.04-.09c.05-.13,.09-.26,.14-.38,.07-.17,.14-.35,.18-.49h0s.01-.01,.01-.01c.04-.11,.08-.22,.12-.32,.14-.32,.29-.6,.45-.85,.2-.31,.37-.63,.5-.9,.08-.16,.15-.3,.2-.44,.09-.21,.17-.43,.23-.61,.07-.21,.11-.44,.13-.63,.03-.19,.04-.37,.04-.54,0-.37-.04-.74-.08-1.11-.03-.25-.06-.47-.11-.68l-.04-.15c-.03-.12-.05-.24-.08-.35l-.02-.11c-.03-.13-.06-.31-.11-.47-.05-.18-.11-.37-.18-.55-.14-.38-.32-.76-.49-1.13v-.03c-.2-.35-.37-.7-.56-1.05-3.89,.42-7.78,.83-11.68,1.25h0Z" fill="#a16053"/><path d="M61.2,36.3c-.09,0-.18,.01-.25,.03-.11,.01-.23,.04-.34,.11-.13,.08-.23,.16-.32,.25-.06,.05-.11,.12-.15,.22h-.01c-.22,.22-.31,.52-.38,.76-.04,.13-.06,.22-.06,.32,0,.14-.01,.27,0,.4,.01,.21,.06,.44,.14,.66,.06,.17,.13,.33,.23,.52,.04,.06,.06,.13,.09,.19,.08,.16,.14,.3,.22,.44,.08,.17,.17,.32,.27,.47,.3,.4,.59,.72,.89,.98,.31,.27,.66,.51,1.08,.78,.18,.11,.35,.2,.51,.29h0c.13,.07,.28,.15,.44,.2,.22,.07,.38,.12,.54,.16,.16,.04,.32,.05,.46,.06h.08c.08,0,.17,0,.25-.01,.17-.01,.35-.06,.51-.11,.11-.03,.21-.06,.32-.11,.13-.05,.27-.13,.42-.22,.16-.11,.3-.23,.43-.35,.18-.18,.35-.41,.49-.69,.04-.09,.08-.18,.12-.28,.08-.2,.15-.42,.22-.69,.05-.18,.08-.36,.12-.59,.06-.35,.06-.66,.04-.95-.04-.29-.08-.54-.15-.76-.06-.19-.17-.37-.27-.52-.08-.12-.2-.23-.37-.35-.2-.15-.38-.26-.57-.37-.16-.08-.32-.17-.54-.26-.16-.07-.34-.12-.51-.17h-.06c-.15-.06-.32-.1-.48-.13-.32-.06-.66-.08-.99-.09h-.11c-.29-.03-.57-.05-.87-.09-.29-.04-.6-.06-.98-.07h-.48Z" fill="#a16053"/><path d="M58.07,40.29c-.09,.03-.18,.11-.25,.22-.07,.12-.08,.25-.08,.37,0,.08,.02,.17,.04,.25,.01,.04,.03,.09,.04,.14,.06,.16,.16,.32,.32,.49,.1,.11,.22,.18,.34,.2,.06,.01,.12,.01,.18,.01h.07s.1-.01,.14-.04c.05-.02,.1-.05,.14-.07,.06-.04,.11-.08,.15-.14,.05-.08,.08-.16,.09-.23,.01-.12,0-.24-.06-.36v-.06c-.01-.2-.14-.36-.24-.47-.17-.18-.4-.31-.64-.35h-.06c-.06,0-.11,.01-.18,.04h0Z" fill="#a16053"/><path d="M22.56,30.24h-.15c-.06,0-.13,.02-.19,.05-.08,.03-.17,.06-.23,.12-.07,.06-.13,.12-.2,.19-.03,.04-.06,.09-.08,.15h0s-.01,.03-.01,.03c0,0,0,.01-.01,.01-.01,.03-.04,.06-.05,.08-.03,.06-.05,.12-.06,.16-.09,.24-.15,.51-.17,.77v.37c0,.13,0,.28,.02,.44,.01,.12,.04,.25,.08,.42,.08,.3,.17,.54,.28,.73,.07,.12,.15,.24,.23,.35,.08,.11,.18,.23,.33,.36,.08,.07,.18,.14,.31,.23,.13,.08,.27,.16,.42,.2,.16,.05,.3,.08,.43,.08h.01c.15,0,.3-.01,.45-.05,.13-.03,.27-.06,.42-.12,.14-.04,.26-.12,.39-.2,.05-.04,.1-.08,.14-.13,.06-.06,.11-.12,.16-.18,.08-.11,.15-.25,.2-.43,.07-.25,.08-.53,.04-.8-.03-.18-.11-.36-.17-.49-.13-.27-.28-.59-.47-.87-.08-.12-.18-.23-.27-.32h0c-.13-.14-.26-.26-.4-.37-.29-.25-.56-.4-.82-.48-.04-.01-.08-.02-.13-.04,0-.02-.02-.04-.04-.05l-.05-.05-.05-.05c-.08-.06-.16-.09-.25-.1-.05-.01-.1-.01-.15-.01h.04s0,.01,0,.01Z" fill="#a16053"/><path d="M17.48,15.58c-.16,0-.31,.07-.41,.18l-.1,.1s-.07,.11-.1,.17c-.03,.06-.05,.12-.07,.18-.01,.05-.04,.11-.04,.17v.05c-.03,.08-.04,.16-.04,.24,0,.13,.01,.25,.04,.37,.02,.15,.07,.3,.12,.44,.02,.07,.06,.15,.11,.24,.07,.13,.15,.23,.23,.33,.12,.13,.27,.25,.45,.37,.23,.14,.44,.21,.65,.23h.1c.2,0,.42-.05,.6-.13,.11-.05,.2-.13,.3-.23,.09-.1,.16-.22,.2-.35,.04-.13,.05-.24,.05-.37,0-.06-.01-.12-.01-.18-.01-.11-.03-.21-.05-.3-.02-.11-.05-.22-.08-.32-.04-.13-.11-.24-.18-.35-.06-.1-.13-.2-.2-.3-.06-.07-.12-.13-.18-.19l-.02-.02c-.06-.06-.14-.12-.23-.17-.08-.04-.15-.08-.25-.11-.12-.04-.21-.06-.3-.06-.06,0-.13,0-.21,.04-.08-.03-.14-.04-.23-.04h-.13Z" fill="#a16053"/><path d="M13.42,28.05c-.12,.01-.22,.03-.31,.05-.21,.04-.42,.14-.62,.31-.2,.16-.38,.35-.54,.56-.05,.07-.1,.15-.15,.23v.03c-.06,.08-.11,.17-.15,.25-.08,.2-.15,.38-.2,.56,0,.02,0,.04-.01,.06v.02c-.06,.04-.11,.11-.15,.18h0s-.01,.06-.03,.07c-.02,.06-.04,.13-.04,.19,0,.06-.01,.13-.01,.23,0,.2,.01,.42,.04,.61,.03,.29,.07,.59,.11,.87,.01,.11,.04,.21,.05,.32,.06,.38,.11,.77,.17,1.16,.02,.13,.04,.25,.06,.38v.04c0,.08,0,.15,.01,.23,0,.07,.01,.14,.01,.21,0,.15,.01,.29,.01,.44v.18c.01,.18,.02,.36,.02,.54v.53c0,.13-.01,.27-.03,.4v.14l-.02,.19c-.03,.31-.05,.63-.06,.96-.01,.3-.03,.6-.05,.88v.27s-.01,.13-.01,.13c-.01,.13-.02,.28-.04,.42,0,.09-.01,.18-.02,.27-.01,.09-.01,.18-.03,.27v.04c-.02,.18-.04,.37-.05,.54v.21c0,.12-.01,.24-.02,.35-.01,.13-.02,.25-.04,.37-.02,.25-.05,.5-.06,.75,0,.13-.01,.25-.02,.37,0,.06,0,.11-.01,.17,0,.12-.02,.23-.04,.35,0,.07-.01,.13-.02,.2,0,.1-.02,.21-.02,.32,.04,.01,.05,.04,.05,.08v.05c-.01,.07-.01,.15-.04,.22v.03c0,.11,.03,.25,.07,.39,.05,.15,.15,.25,.3,.3,.09,.04,.19,.05,.3,.05h.55c.09,0,.19-.04,.28-.07h.03c.08-.04,.15-.06,.23-.1,.02,0,.04-.02,.06-.03h.02s.09-.06,.13-.08c.08-.04,.15-.06,.24-.09h.01c.06-.03,.12-.05,.18-.06h.02c.09-.04,.18-.07,.27-.11,.18-.07,.35-.16,.54-.29,.3-.2,.58-.44,.87-.73,.2-.2,.35-.36,.48-.51,.11-.13,.23-.29,.36-.48,.2-.29,.33-.63,.45-1.11,.06-.23,.08-.44,.1-.63v-.46c0-.35-.05-.72-.15-1.17-.04-.19-.08-.37-.12-.55v-.06s-.01-.03-.01-.03v-.04c-.05-.14-.08-.28-.11-.43-.01-.13-.03-.25-.04-.35,0-.19,.02-.37,.06-.55,0-.04,.01-.08,.02-.11v-.03c.08-.31,.2-.63,.36-1.02,.06-.13,.12-.27,.17-.4h0c.1-.23,.2-.45,.28-.68,.07-.2,.13-.42,.18-.7,.04-.18,.04-.36,.05-.54v-.4c0-.11-.01-.2-.03-.29-.04-.18-.08-.37-.13-.57-.06-.23-.15-.46-.25-.69-.08-.2-.18-.4-.3-.61l-.04-.08c-.18-.33-.42-.74-.65-1.11l-.03-.05c-.08-.15-.18-.31-.3-.47-.04-.06-.1-.13-.13-.19l-.02-.04c-.11-.16-.25-.28-.38-.4-.06-.06-.13-.11-.2-.17-.12-.1-.25-.18-.4-.26h-.01c-.13-.08-.26-.16-.4-.2-.11-.04-.23-.06-.35-.08-.04,0-.08,0-.13,0-.07,0-.14,0-.2,.01h-.02Z" fill="#a16053"/><path d="M5.67,39.43s-.05,.01-.08,.02c-.01,.05-.03,.1-.04,.14,0,.04-.01,.06-.03,.1,0,.02-.01,.04-.02,.06,0,.02-.01,.04-.02,.06,0,.01,0,.03-.01,.04-.01,.04-.02,.08-.05,.13-.04,.06-.08,.08-.13,.11h-.06s-.06,0-.08-.01c-.04,.08-.07,.17-.11,.25-.05,.1-.1,.19-.15,.29-.14,.24-.29,.48-.44,.71-.17,.26-.35,.51-.52,.77-.08,.12-.17,.24-.25,.37-.1,.15-.18,.31-.27,.47-.08,.14-.15,.29-.23,.44-.06,.12-.13,.24-.19,.35,0-.01,.01-.04,.03-.05-.18,.3-.36,.59-.55,.89-.19,.3-.35,.61-.5,.92-.14,.31-.28,.62-.41,.93-.13,.33-.26,.66-.39,.99-.13,.32-.26,.64-.38,.97-.03,.07-.06,.13-.08,.2-.03,.09-.06,.18-.08,.28-.03,.08-.04,.18-.06,.27-.05,.2-.1,.4-.13,.61-.02,.13-.04,.26-.02,.4,0,.04,.01,.09,.02,.13,0,.06,.03,.13,.05,.2,.04,.12,.12,.23,.23,.28-.12,.34-.23,.68-.35,1.02-.08,.25-.15,.5-.21,.75s-.1,.51-.1,.77c0,.12,0,.24,.01,.35,0,.01,0,.03,.01,.04,0,.05,.02,.09,.05,.13,.01,.03,.04,.06,.05,.08,.04,.04,.07,.07,.11,.1,.05,.04,.17,.09,.23,.09s.13,0,.2,0c.07-.01,.15-.05,.22-.1,.06-.05,.11-.11,.16-.16,.13-.13,.23-.28,.32-.43,.06-.11,.13-.22,.18-.32,.08-.15,.15-.3,.22-.45,.02-.05,.04-.1,.06-.15,0,.01,.02,.03,.04,.04,.07,.08,.16,.13,.25,.18,.06,.04,.2,.04,.27,.03,.06-.01,.13-.04,.19-.05,.01,0,.03-.01,.04-.02,.05-.03,.09-.05,.13-.08,.05-.04,.11-.1,.15-.15,.11-.12,.18-.26,.27-.4,.06-.09,.11-.18,.16-.28,.05-.1,.1-.2,.15-.29,.04-.06,.06-.14,.09-.22,.03-.06,.06-.13,.08-.2,.06-.16,.13-.32,.18-.49,.06-.18,.11-.36,.17-.54,.02-.07,.04-.14,.06-.21,.04-.11,.06-.23,.09-.35,.05-.18,.09-.37,.13-.54,.03-.12,.06-.24,.08-.36,.02,.08,.05,.16,.08,.23,.06,.14,.19,.25,.35,.27,.14,.02,.28-.02,.39-.12,.04-.04,.08-.08,.11-.13,.04-.04,.06-.1,.09-.15,.04-.07,.06-.14,.09-.22,.04-.11,.06-.21,.09-.32,.04-.16,.06-.32,.09-.49,.06-.33,.11-.67,.14-1,.04-.38,.07-.76,.11-1.14,.03-.35,.05-.69,.07-1.04,.01-.18,.01-.37,.01-.54v-.47c0-.38,.01-.76,.02-1.14,0-.38,.01-.77,.03-1.15,.01-.2,.02-.41,.04-.61,.02-.01,.04-.04,.05-.06,.03-.04,.06-.09,.08-.14,.03-.06,.04-.12,.05-.18v-.17s0-.04-.01-.06c-.04-.14-.09-.28-.22-.37-.08-.06-.2-.11-.3-.11-.04,0-.06,0-.09,.01h-.01Zm-.04,2.05c-.01-.06-.04-.11-.06-.15,.04-.06,.06-.11,.1-.17,0,.07-.01,.14-.01,.21,0,.06,0,.13-.01,.2,0-.04,0-.07-.01-.1Zm-.42,5.04c.04-.38,.08-.75,.12-1.14,.07-.67,.12-1.35,.18-2.02,.03-.3,.06-.6,.08-.9,0-.1,.01-.2,.02-.3-.04,.63-.06,1.26-.1,1.88-.04,.64-.11,1.28-.18,1.92-.04,.33-.1,.66-.15,.99v.04c.01-.16,.03-.33,.04-.49h-.01Zm-2.59-.14s-.05-.01-.08-.02c.1-.23,.2-.45,.32-.67,.04-.06,.07-.13,.11-.2,.2-.33,.43-.64,.63-.97,.11-.18,.23-.37,.33-.56,.11-.2,.22-.4,.33-.6,.05-.09,.11-.18,.16-.27-.04,.23-.08,.47-.12,.71-.11,.64-.2,1.28-.3,1.92-.05,.3-.08,.61-.14,.92-.06,.3-.11,.6-.15,.9-.05,.29-.11,.58-.17,.87-.02,.12-.05,.24-.08,.36-.03,.13-.06,.27-.09,.4-.05,.18-.1,.35-.14,.54-.03,.11-.06,.2-.09,.31-.03,.08-.05,.18-.08,.26-.06,.2-.13,.4-.21,.59-.04,.1-.08,.2-.12,.3-.05,.11-.1,.21-.15,.32,0,0-.02,.04-.04,.06,0-.24,.04-.48,.06-.71,.01-.18,.06-.35,.08-.51,0-.05,.01-.09,.03-.14,.03-.08,.06-.16,.08-.25,.17-.66,.33-1.32,.5-1.98,0,.04-.01,.08-.03,.11,.08-.32,.15-.63,.22-.95,.03-.14,.06-.28,.09-.43,.02-.08,.04-.18,.06-.26,.04-.15,.08-.3,.08-.47,0-.11-.01-.22-.09-.31-.07-.08-.17-.14-.28-.16-.11-.01-.22,.02-.3,.09l-.08,.08c-.05,.06-.07,.13-.08,.2-.04,.2-.08,.4-.13,.6-.04-.03-.08-.06-.13-.08h.01Zm-1.18,4.71c.11-.32,.23-.65,.34-.98l.23-.66s-.02,.1-.04,.14c0,.01,0,.04-.01,.05-.06,.17-.11,.35-.16,.51-.05,.15-.08,.29-.13,.44-.12,.34-.23,.68-.35,1.01-.06,.16-.12,.33-.18,.49-.04,.1-.08,.2-.13,.31,0,.01-.01,.03-.02,.05,.13-.47,.3-.92,.45-1.37h.01Zm-1.02,2.31s0,0-.01,0c0,0,0,0,.01,0Z" fill="#a16053"/><path d="M6.25,37.8c-.1,.2-.17,.37-.23,.51-.02,.06-.04,.11-.06,.16l-.04,.09c-.04,.11-.09,.21-.13,.3,0,0,0,.01-.01,.03,0,.03-.01,.05-.03,.08-.08,.27-.17,.54-.25,.81-.1,.3-.2,.61-.3,.91-.05,.16-.1,.3-.15,.45-.05,.15-.11,.3-.17,.44-.11,.28-.22,.56-.33,.83-.12,.3-.25,.59-.38,.88-.24,.54-.46,1.09-.69,1.65-.23,.58-.46,1.16-.66,1.75-.1,.3-.2,.6-.3,.9-.1,.3-.19,.61-.25,.93-.01,.06-.02,.12-.03,.18-.02,.13,.07,.28,.2,.32,.15,.06,.35-.01,.41-.18,.1-.3,.2-.59,.3-.89,.1-.29,.2-.59,.3-.87,.2-.59,.42-1.17,.64-1.75,.23-.56,.45-1.14,.69-1.7,.12-.28,.24-.58,.36-.87v.18c-.04,.32-.06,.63-.08,.95,0,.15,0,.3-.01,.44,0,.08,0,.16,0,.24v.23c-.01,.12,.06,.23,.17,.28,.13,.06,.3-.01,.35-.15,.04-.08,.05-.18,.06-.27,.01-.08,.03-.15,.04-.23,.04-.15,.06-.3,.09-.44,.06-.3,.12-.6,.18-.9,.05-.28,.1-.56,.15-.85,.05-.31,.1-.63,.16-.95,.05-.25,.09-.51,.13-.77,.05-.27,.09-.54,.14-.81,.05-.27,.08-.54,.12-.8,0-.06,.01-.12,.01-.18v-.2h-.04s-.05,0-.06-.01c-.06-.04-.08-.11-.05-.17,.05-.11,.11-.21,.15-.32v-.02c0-.06-.03-.11-.06-.15-.05-.06-.13-.11-.2-.11h-.04s-.08,0-.12,.03h.01Z" fill="#a16053"/><path d="M4.89,43.08c-.11,.05-.18,.14-.24,.25-.04,.08-.06,.18-.08,.28l-.06,.25c-.01,.06-.04,.11-.05,.17-.04-.04-.08-.06-.14-.08-.08-.04-.16-.04-.25-.03-.07,.01-.15,.04-.22,.09-.02-.02-.05-.04-.08-.04-.06,0-.12,.04-.16,.07,0,0-.01,.01-.02,.03h-.09c-.12,.02-.2,.1-.25,.2-.11,.23-.23,.47-.35,.69-.13,.27-.26,.53-.39,.8-.12,.23-.23,.47-.33,.71-.1,.23-.2,.45-.29,.68-.01,.04-.04,.07-.05,.11-.08,.19,.02,.41,.21,.49,.04,.01,.06,.02,.1,.02-.22,.56-.43,1.12-.63,1.69-.17,.49-.34,.97-.5,1.45-.04,.11-.08,.22-.12,.32-.06,.16-.13,.33-.14,.51-.01,.11,0,.22-.02,.32,0,.06-.02,.13-.04,.19,0,.02-.01,.05-.01,.07-.01,.06-.01,.13,0,.19,.02,.16,.14,.3,.28,.36,.15,.06,.33,.04,.46-.07,.1-.08,.16-.2,.2-.32,.01-.04,.03-.06,.04-.1,.04-.08,.06-.16,.1-.23l.18-.44s.04-.1,.06-.16c.01,.06,.04,.12,.06,.17,.06,.11,.13,.2,.25,.25,.11,.04,.26,.05,.36,0,.08-.05,.15-.08,.21-.16,.02-.03,.04-.06,.05-.08,.12-.19,.22-.39,.3-.6,.04-.1,.08-.2,.12-.31,.03-.06,.06-.13,.1-.2,.08-.13,.16-.27,.23-.41,.06-.13,.13-.26,.18-.4,.11-.28,.21-.56,.3-.86,.13-.45,.25-.92,.36-1.38,.01,.06,.04,.11,.08,.16,.05,.06,.11,.11,.19,.14,.19,.08,.43,.01,.55-.16,.05-.07,.08-.15,.11-.23,.02-.07,.04-.14,.06-.21,.02-.07,.04-.14,.05-.21,.04-.14,.05-.28,.07-.43,.04-.32,.04-.63,.05-.95v-.53c0-.08-.01-.16-.02-.24-.01-.17-.04-.37-.15-.5,.01-.12,.02-.25,.04-.37,0-.06,.01-.12,.01-.18,.01-.15,.04-.3,0-.44-.01-.08-.05-.15-.1-.21-.07-.1-.18-.16-.3-.17h-.05c-.06,0-.13,.01-.18,.04l-.02,.02h0Z" fill="#a16053"/><path d="M113.13,15.91c-2.51-2.29-3.99-5.51-6.01-8.24,0,0-.02-.03-.04-.05-.57-.77-.78-1.5-.82-1.64-.13-.4-.58-1.12-3.73-3.81C100.16,.15,99.68-.06,99.13,.01c-.8,.12-1.18,.75-1.96,1.54-.89,.9-2.29,1.99-4.5,2.81l-6.08,5.4c-.2,.25-.39,.51-.61,.75-.18,.2-.39,.41-.67,.67-.25,.23-.46,.46-.68,.69l-.16,.17c-.13,.13-.29,.3-.43,.47-.17,.23-.31,.49-.45,.73h0s-.01,.01-.01,.01c-.07,.13-.15,.29-.25,.44-.13,.2-.26,.42-.39,.64-.1,.18-.19,.37-.25,.51-.07,.2-.12,.35-.16,.49-.04,.17-.07,.35-.1,.49-.04,.28-.06,.5-.06,.71v.03c-.01,.27-.02,.54,0,.82,.06,.35,.18,.68,.3,.97,.09,.2,.19,.4,.3,.6,.06,.11,.12,.23,.18,.35l.02,.04s.06,.11,.08,.16c.1,.18,.19,.38,.27,.54,.16,.36,.32,.71,.47,1.09,.15,.35,.33,.8,.49,1.25,.06,.18,.1,.37,.14,.55v.02c.06,.25,.09,.51,.12,.75,.04,.37,.06,.75,.06,1.16,0,.35,0,.78-.02,1.21-.01,.36-.06,.75-.11,1.19,0,.06-.01,.13-.03,.2v.13s-.01,.02-.01,.02v.02c-.04,.3-.08,.61-.13,.92-.08,.46-.17,.83-.29,1.15-.08,.21-.17,.42-.29,.69v.04c-.08,.16-.16,.32-.25,.49-.08,.14-.16,.28-.25,.41l-.06,.09-.04,.06-.07,.11c-.07,.12-.15,.24-.22,.35l-.03,.04h0s-.01,.03-.01,.03c-.08,.13-.17,.27-.25,.42-.07,.13-.15,.28-.23,.47-.19,.49-.35,.99-.48,1.41-.15,.5-.3,.99-.5,1.47-.18,.44-.35,.83-.58,1.19h-.01s-.03,.06-.03,.06h0c-.05,.07-.08,.14-.13,.2-.11,.14-.19,.25-.27,.35-.07,.08-.14,.18-.22,.26-.15,.17-.33,.34-.56,.5-.41,.29-.92,.5-1.57,.66-.39,.09-.83,.14-1.38,.16h-.05c-.17,0-.34-.01-.5-.04h-.06c-.27-.04-.54-.08-.75-.13-.18-.04-.37-.09-.58-.17-.24-.08-.49-.19-.73-.33l-.08-.05h-.01c-.06-.05-.11-.08-.16-.11-.04-.03-.08-.05-.13-.08-.13-.08-.27-.17-.39-.26-.22-.16-.42-.32-.61-.48-.05-.04-.1-.08-.17-.15-.02-.01-.04-.04-.06-.06-.13-.12-.25-.25-.37-.38-.22-.27-.39-.49-.53-.72h0s-.18-.29-.18-.29c-.1-.16-.18-.32-.27-.49-.09-.18-.18-.35-.26-.52-.19-.43-.36-.83-.51-1.23-.1-.27-.2-.54-.3-.8v-.03c-.17-.43-.35-.92-.54-1.38-.12-.28-.26-.56-.45-.83-.11-.13-.21-.25-.31-.34-.08-.07-.17-.16-.27-.24-.14-.1-.27-.18-.42-.25-.2-.08-.42-.12-.6-.16-.19-.02-.35-.04-.49-.04-.08,0-.16,0-.24,.01-.08,.01-.15,.04-.23,.06-.07,.04-.15,.08-.22,.13-.07,.06-.15,.13-.21,.21-.09,.13-.17,.27-.25,.43-.06,.15-.12,.3-.16,.47l-.03,.08-.02,.08c-.04,.13-.08,.27-.12,.39l-.02,.07c-.06,.2-.13,.4-.22,.58l-.04,.08c-.04,.08-.08,.18-.13,.26-.06,.12-.13,.23-.2,.32l-.05,.06c-.08,.11-.16,.21-.25,.31-.12,.12-.25,.22-.37,.3-.14,.1-.3,.16-.42,.21-.25,.1-.54,.16-.87,.18-.06,0-.13,0-.19,0-.21,0-.42-.03-.64-.07-.25-.06-.51-.15-.82-.28-.23-.11-.44-.23-.63-.37-.13-.09-.26-.2-.38-.29h0s-.01-.01-.01-.01c-.16-.14-.29-.25-.4-.37l-.12-.12-.12-.12s-.08-.09-.13-.14h-.01s-.01-.03-.01-.03c0,0-.01-.02-.03-.04-.16-.18-.3-.36-.43-.55-.13-.19-.29-.42-.41-.66-.11-.22-.24-.5-.32-.8,0-.03-.01-.06-.02-.08-.02-.1-.05-.19-.06-.28-.05-.28-.07-.59-.06-.94,0-.25,.04-.49,.06-.72,.03-.18,.06-.36,.08-.54v-.03c.03-.16,.05-.32,.08-.49,.04-.33,.05-.61,.03-.9,0-.05-.02-.11-.04-.16-.05-.04-.08-.11-.08-.17,0-.07-.01-.13-.02-.2-.08-.16-.16-.3-.26-.45l-.04-.05s-.02-.01-.04-.02c-.06-.01-.12-.02-.18-.03-.06,0-.11,.01-.17,.02-.08,.03-.16,.06-.27,.12-.19,.13-.38,.28-.56,.42-.09,.07-.18,.14-.27,.2l-.05,.04h-.01c-.05,.06-.1,.09-.15,.13-.16,.11-.33,.2-.47,.27-.13,.06-.26,.11-.4,.14-.08,.01-.18,.03-.28,.03h-.07c-.25,0-.46-.05-.65-.13-.25-.11-.45-.23-.6-.37-.12-.11-.23-.21-.32-.32-.1-.11-.18-.22-.25-.33l-.19-.32-.02-.04c-.08-.14-.16-.28-.23-.41-.06-.11-.12-.22-.18-.33-.07-.11-.15-.23-.24-.35-.08-.1-.16-.2-.27-.31-.05-.05-.1-.08-.13-.13l-.05,.04c-.08,.1-.17,.2-.25,.33-.12,.21-.2,.41-.27,.6-.04,.17-.06,.36-.07,.59,0,.08,.01,.16,.04,.24,.06,.18,.12,.35,.2,.52l.04,.07c.12,.23,.24,.45,.35,.65,.16,.25,.29,.49,.44,.71,.22,.34,.46,.68,.67,.99v.02s.04,.04,.04,.04v.02c.23,.3,.46,.65,.68,.99,.2,.3,.38,.61,.55,.88h0s.11,.18,.11,.18c.27,.43,.5,.84,.7,1.25,.2,.39,.36,.79,.5,1.17v.03h.01c.06,.18,.13,.35,.18,.53v.05c.08,.23,.15,.47,.2,.71,.2,.95,.3,1.81,.27,2.62,0,.44-.05,.86-.12,1.27-.06,.37-.15,.74-.25,1.11,0,.06-.02,.11-.04,.16,0,.06-.03,.11-.05,.16h0c-.01,.06-.02,.11-.04,.15l-.02,.08v.05c-.08,.27-.18,.6-.27,.92v.02c-.06,.2-.13,.4-.18,.6-.06,.19-.13,.38-.19,.55v.05c-.04,.06-.06,.13-.09,.19v.02s-.04,.07-.05,.11c-.03,.07-.06,.14-.1,.22l-.04,.08c-.03,.06-.06,.14-.1,.21-.02,.04-.04,.08-.06,.11-.06,.12-.12,.23-.18,.32-.11,.18-.23,.37-.37,.54-.23,.3-.53,.57-.84,.8-.44,.32-.82,.57-1.19,.78-.18,.1-.35,.2-.54,.28-.21,.09-.41,.17-.6,.23h-.04c-.23,.08-.45,.16-.68,.19-.2,.04-.42,.05-.66,.05h-.26c-.32-.01-.63-.08-.97-.19-.28-.09-.52-.2-.73-.32h0c-.25-.15-.52-.3-.77-.49-.18-.13-.37-.27-.58-.43-.18-.13-.36-.29-.49-.4l-.03-.02c-.18-.15-.32-.26-.46-.37l-.1-.08h-.01c-.13-.11-.23-.2-.34-.28-.15-.11-.29-.2-.46-.32l-.04-.02c-.1-.06-.21-.12-.32-.17l-.05-.02c-.15-.07-.33-.15-.51-.22-.2-.08-.39-.15-.6-.22-.1-.04-.2-.06-.29-.08h-.03c-.07-.02-.15-.04-.23-.06h-.06s-.08-.04-.13-.04l-.42-.06c-.1-.01-.2-.02-.28-.03h-.03s-.07,0-.11,0h-.2c-.27,0-.5,.03-.71,.07-.18,.06-.33,.12-.46,.19l-.09,.05-.09,.05c-.21,.13-.43,.28-.6,.4-.42,.29-.85,.59-1.34,.78-.08,.03-.16,.06-.24,.08h-.06s-.06,.03-.06,.03c-.13,.04-.29,.08-.44,.11-.14,.03-.27,.04-.42,.04h-.13c-.1,0-.22,0-.35-.01-.15-.01-.32-.05-.49-.09h-.06s-.06-.03-.09-.04l-.08-.02h0c-.12-.04-.25-.06-.36-.11-.15-.06-.3-.15-.46-.25-.08-.05-.18-.12-.26-.19-.25-.22-.43-.42-.56-.63-.15-.23-.27-.49-.37-.75-.18-.46-.3-.95-.42-1.42-.06-.23-.11-.45-.15-.66-.06-.26-.09-.47-.12-.68-.02-.18-.03-.38-.03-.63,0-.13,0-.27,.03-.41,.05-.32,.14-.64,.27-.93,.14-.35,.32-.66,.5-.99,.19-.34,.4-.68,.58-.98h.01s.1-.17,.1-.17h0c.08-.13,.14-.24,.2-.35,.12-.23,.22-.42,.3-.59,.09-.18,.18-.35,.25-.52,.08-.17,.15-.34,.22-.52,.02-.08,.04-.18,.04-.27v-.11s-.05-.09-.07-.13c-.02-.04-.05-.06-.07-.09-.04-.04-.09-.08-.15-.12-.11-.06-.23-.11-.37-.15-.38-.08-.77-.1-1.13-.12-.42,0-.85,.01-1.27,.03h-.27c-.18,0-.37,0-.55,.01h-.22c-.18,0-.44,0-.69,0-.55,0-.97-.03-1.37-.09-.27-.05-.49-.08-.7-.15-.18-.05-.39-.11-.58-.2-.15-.06-.3-.15-.46-.25-.04-.01-.06-.04-.09-.06-.09-.05-.18-.11-.26-.17-.16-.13-.29-.26-.39-.4-.07-.09-.14-.2-.22-.32-.06-.11-.12-.22-.18-.32l-.05-.1c-.09-.17-.17-.34-.25-.51v-.02c-.18-.4-.32-.76-.42-1.12-.07-.23-.13-.42-.2-.61-.06-.15-.13-.3-.2-.45-.06-.08-.12-.16-.18-.24-.12-.11-.25-.23-.39-.32-.05-.02-.1-.04-.16-.06-.02,0-.04,0-.06-.01h-.06s-.08,.04-.13,.06c-.06,.05-.13,.1-.2,.16-.15,.16-.28,.34-.42,.56-.06,.12-.11,.23-.16,.35-.05,.11-.1,.23-.16,.34v.02c-.08,.14-.16,.3-.26,.44-.12,.18-.27,.32-.43,.42-.18,.11-.37,.21-.58,.23h-.12c-.2,0-.38-.04-.55-.1-.11-.04-.2-.1-.3-.15-.06-.04-.15-.1-.23-.16-.3-.25-.56-.58-.81-1.02-.13-.23-.23-.48-.32-.69-.06-.13-.11-.27-.15-.4-.11-.35-.18-.64-.2-.95-.01-.33,0-.64,.05-.93,.04-.23,.1-.47,.14-.66,.06-.27,.15-.51,.24-.73,.03-.07,.06-.14,.08-.2l.04-.08c.08-.16,.16-.33,.28-.53,.15-.25,.32-.51,.51-.74l.05-.06,.04-.04c.1-.12,.21-.26,.33-.38l.07-.07h.01s.02-.04,.02-.04c.08-.08,.14-.15,.21-.21l.11-.1,.13-.12c.15-.14,.3-.28,.44-.4,.25-.26,.45-.48,.63-.69,.2-.25,.39-.51,.56-.78,.08-.15,.15-.31,.2-.49,.04-.16,.05-.32,.06-.51,0-.13-.02-.25-.05-.37-.08-.27-.17-.54-.25-.78h0s-.01-.03-.01-.03c-.08-.25-.17-.51-.25-.78-.19-.67-.32-1.23-.4-1.76v-.08c-.08-.37-.13-.76-.17-1.14-.02-.28-.03-.49-.01-.69h0c0-.2,.01-.4,.05-.59,.05-.27,.09-.47,.15-.65,.04-.12,.07-.23,.11-.34,.02-.06,.05-.13,.07-.2v-.02c.06-.17,.12-.33,.2-.48,.04-.07,.08-.13,.12-.2l.02-.04s.02-.04,.03-.05c.03-.05,.06-.11,.1-.15,.05-.06,.1-.11,.15-.15,.08-.06,.18-.1,.29-.1h.07s.07-.09,.11-.13c.01-.01,.03-.02,.04-.04h.11c.06,0,.11-.04,.13-.11,.01-.05,.01-.12-.04-.16,0,0-.01-.01-.03-.03-.01-.01-.04-.04-.06-.05-.04-.02-.08-.03-.13-.04-.04,0-.07-.01-.11-.03-.02,0-.04,0-.05-.01-.04,0-.06-.01-.1-.03-.28-.11-.58-.2-.92-.25-.2-.04-.42-.08-.64-.14-.11-.04-.23-.08-.32-.12-.06-.02-.12-.05-.17-.07-.04-.01-.06-.03-.1-.04-.06-.03-.13-.06-.19-.08h-.03c-.08-.05-.16-.08-.25-.11-.04-.01-.07-.03-.1-.04l-.15-.06c-.25-.11-.49-.22-.75-.3-.14-.05-.29-.09-.43-.13h-.06c-.18-.06-.33-.11-.5-.13-.15-.02-.28-.04-.42-.04-.08,0-.17,0-.25,.01-.17,.01-.36,.05-.55,.12-.32,.12-.67,.27-1.06,.45-.14,.06-.28,.15-.41,.22-.06,.03-.12,.06-.18,.09-.09,.05-.18,.1-.27,.15l-.17,.1c-.08,.05-.16,.1-.25,.15-.1,.06-.21,.12-.32,.18-.05,.03-.1,.05-.15,.08-.18,.1-.35,.2-.51,.3l-.27,.17s-.07,.06-.11,.08c-.06,.05-.13,.1-.2,.16-.01,.01-.04,.03-.05,.04-.04,.03-.06,.06-.1,.08-.04,.04-.08,.06-.11,.09h-.01s-.01,.03-.02,.04c-.06,.06-.13,.12-.2,.18-.02,.01-.04,.04-.06,.06-.04,.04-.08,.08-.13,.13-.01,.01-.04,.04-.06,.06-.04,.04-.07,.07-.11,.11-.04,.04-.07,.07-.11,.11-.01,.02-.04,.04-.06,.06-.04,.05-.08,.09-.13,.13-.01,.01-.03,.04-.04,.05-.07,.07-.14,.15-.2,.23-.01,.01-.04,.04-.05,.06-.04,.05-.08,.09-.11,.13-.01,.02-.04,.04-.05,.06,0,0,0,.01-.01,.01-.02,.03-.04,.06-.06,.08-.04,.05-.08,.1-.12,.15-.01,.02-.04,.04-.05,.06-.08,.11-.15,.2-.23,.3-.06,.08-.12,.16-.18,.25-.01,.02-.03,.04-.04,.06h-.01s-.05,.08-.07,.11c-.04,.05-.08,.11-.11,.16-.01,.01-.03,.04-.04,.05,0,0,0,.01-.01,.02-.05,.08-.1,.16-.15,.23-.04,.06-.07,.11-.11,.16-.06,.09-.12,.18-.18,.27-.04,.06-.08,.13-.13,.19l-.1,.14s-.01,.03-.03,.04c-.06,.09-.12,.18-.18,.28-.01,.02-.02,.04-.04,.06,0,0,0,.01-.01,.02-.01,.02-.03,.04-.04,.07,0,.01-.01,.03-.02,.04,0,.02,0,.04-.01,.06-.01,.12-.04,.23-.04,.35v.11c-.04,.18-.06,.37-.08,.55-.02,.17-.04,.35-.05,.54-.01,.37-.02,.75,0,1.11,0,.22,.02,.43,.04,.64,.01,.16,.02,.32,.03,.47,.01,.25,.03,.5,.04,.74l.02,.38c.01,.2,.04,.4,.06,.6,.01,.16,.04,.33,.05,.49,0,.06,0,.13,.01,.19,0,.11,.01,.23,.03,.34,.02,.24,.05,.44,.08,.64,.03,.17,.05,.35,.08,.53,.01,.08,.03,.18,.04,.27,.01,.1,.03,.19,.05,.29,.07,.39,.15,.75,.24,1.09,.1,.37,.17,.72,.22,1.05,.02,.19,.04,.35,.04,.5,0,.17,0,.34,0,.5v.04c0,.22-.01,.44-.03,.66,0,.17-.02,.35-.02,.52v.8s.04,.08,.04,.12v.08s0,.05-.01,.07v.03c0,.1,.01,.2,.02,.3,0,.09,.01,.18,.02,.27,0,.09,.01,.18,.01,.27s.01,.18,.01,.27c.02,.27,.04,.56,.08,.85,0,.06,.01,.12,.02,.18,.01,.08,.02,.18,.04,.26,0,.06,.01,.13,.01,.2,0,.08,0,.17-.01,.25,0,.02,0,.04,.01,.05,.01,.01,.04,.03,.06,.03,.05,0,.08-.04,.08-.08h0c.04-.1,.09-.16,.15-.2v-.02s.01-.04,.02-.06c.05-.18,.11-.37,.2-.56,.04-.08,.09-.18,.13-.25v-.03c.06-.08,.11-.16,.16-.23,.15-.22,.34-.4,.54-.56,.21-.17,.42-.27,.62-.31,.09-.01,.19-.04,.31-.05,.06,0,.12-.01,.2-.01,.05,0,.08,0,.13,0,.12,.01,.24,.04,.35,.08,.15,.05,.28,.13,.4,.2h.01c.14,.09,.27,.17,.4,.27,.07,.06,.13,.11,.2,.17,.13,.12,.27,.25,.38,.4l.02,.04s.09,.12,.13,.19c.11,.16,.2,.32,.3,.47l.03,.05c.23,.37,.46,.79,.65,1.11l.04,.08c.12,.21,.22,.41,.3,.61,.1,.23,.18,.47,.25,.69,.06,.2,.11,.4,.13,.57,.01,.09,.02,.18,.03,.29v.08c0,.08,0,.19,0,.29v.03c0,.18-.01,.37-.05,.54-.05,.28-.11,.49-.18,.7-.08,.23-.18,.45-.27,.66h0c-.06,.14-.12,.28-.18,.42-.16,.39-.27,.71-.36,1.02v.03s-.01,.07-.02,.11c-.04,.18-.05,.37-.06,.55,0,.11,.01,.22,.04,.36,.02,.14,.06,.29,.09,.43v.06s.03,.06,.03,.06c.04,.18,.08,.36,.12,.55,.09,.44,.14,.82,.15,1.17v.46c0,.2-.04,.41-.1,.63-.12,.47-.26,.82-.45,1.11-.13,.19-.25,.35-.36,.48-.13,.16-.28,.31-.48,.51-.29,.29-.57,.53-.87,.73-.2,.13-.37,.23-.54,.3-.09,.04-.18,.06-.27,.1h-.02c-.06,.02-.12,.04-.18,.06h-.01c-.08,.04-.16,.06-.24,.1-.05,.02-.09,.04-.13,.06h-.02s-.05,.04-.06,.04c-.08,.04-.15,.06-.23,.09h-.03c-.09,.04-.19,.07-.28,.08h-.55c-.11,0-.21-.02-.3-.05-.15-.05-.25-.16-.3-.3-.05-.14-.06-.28-.07-.4v.05s0-.08,0-.08c.01-.07,.02-.14,.03-.22v-.05s-.01-.08-.06-.08h0s-.07,.02-.08,.06h0c0,.08-.01,.14-.02,.2,0,.05-.02,.09-.04,.14,0,.02-.01,.05-.01,.07-.04,.15-.06,.28-.1,.4h0c-.1,.33-.22,.64-.35,.99-.08,.23-.18,.45-.26,.67-.05,.13-.11,.27-.15,.4l-.08,.2c-.1,.27-.2,.54-.32,.8-.16,.37-.35,.73-.49,1-.05,.1-.11,.2-.15,.3-.04,.06-.06,.13-.1,.19-.04,.06-.06,.11-.09,.17-.06,.11-.11,.21-.17,.32-.13,.23-.27,.45-.39,.67-.06,.1-.12,.19-.18,.29l-.06,.11c-.1,.16-.2,.33-.3,.51-.04,.06-.07,.12-.11,.18-.08,.13-.15,.28-.24,.41-.08,.12-.16,.25-.26,.37-.11,.13-.22,.26-.32,.38-.06,.06-.13,.13-.19,.2-.04,.05-.08,.1-.13,.14-.02,.03-.05,.06-.07,.08-.03,.04-.06,.06-.08,.09-.02,.02-.04,.04-.06,.06l-.03,.04s-.08,.09-.11,.15c-.04,.09-.03,.2,.04,.29,0,.03-.01,.05-.01,.08v.4c0,.11,.01,.23,.04,.33,.03,.2,.06,.4,.09,.59,.04,.24,.09,.49,.14,.72,.04,.16,.06,.31,.1,.47,.04,.21,.08,.42,.12,.63,.04,.18,.06,.35,.1,.54,.08,.47,.15,.83,.21,1.18,.06,.41,.12,.78,.16,1.16,.04,.36,.06,.73,.09,1.23,0,.15,.01,.3,.02,.45,0,.23,.01,.46,.04,.69,.02,.4,.05,.8,.08,1.21,.04,.61,.08,1.25,.11,1.85l.03,.49c.01,.21,.02,.43,.04,.64,0,.16,.01,.3,.02,.45,0,.2,.02,.39,.04,.59,.01,.17,.02,.35,.03,.51v.04c.01,.16,.02,.33,.06,.49v.07s.03,.06,.03,.06c.04,.08,.09,.16,.17,.22,.09,.07,.21,.11,.32,.11h.11s.08,.01,.13,.01c.06,0,.12-.01,.17-.04,.04,.03,.08,.06,.11,.09,.06,.06,.11,.13,.15,.2,.1,.18,.18,.4,.25,.67,.02,.08,.04,.18,.06,.27,.01-.05,.05-.08,.1-.11,.1-.04,.2-.09,.31-.13,.12-.04,.23-.08,.32-.1,.12-.04,.24-.06,.35-.1,.08-.02,.17-.04,.25-.06l.11-.03c.06-.01,.12-.04,.18-.05l.18-.04h.08c.06-.03,.11-.04,.17-.05,.04-.01,.08-.02,.12-.03h.06c.07-.03,.14-.05,.21-.06,.15-.02,.31-.04,.46-.06h.1c.18-.03,.39-.05,.61-.06h1.39s.09,0,.13,.01c.04,0,.06,.01,.1,.01,.06,0,.11,.02,.17,.04,.05,.01,.09,.02,.13,.04h.06s.1,.01,.1,.01c0,0,.06,0,.08,.01,.01,0,.02,0,.03,.01-.1-.13-.19-.27-.27-.41-.15-.31-.28-.63-.41-.93-.04-.08-.06-.16-.1-.24-.04-.1-.08-.2-.13-.3-.07-.18-.13-.36-.17-.53v-.03c-.06-.17-.1-.33-.15-.5-.01-.04-.03-.08-.04-.12-.01-.04-.03-.08-.04-.12-.02-.08-.04-.16-.06-.23v-.04c-.06-.19-.11-.38-.16-.56-.06-.2-.12-.42-.17-.63-.03-.11-.05-.22-.08-.32-.06-.31-.1-.61-.13-.88-.02-.27-.02-.55-.01-.78,0-.13,.01-.25,.02-.38v-.13c.01-.1,.02-.19,.03-.28,0-.1,0-.19,.01-.28v-.22c.03-.29,.05-.59,.08-.88v-.1c.04-.34,.07-.68,.12-1.03,.05-.35,.08-.7,.12-1.09,.01-.18,.03-.35,.04-.55,0-.11,.01-.22,.02-.33,0-.08,.01-.16,.01-.25,0-.11,.01-.22,.02-.33,.02-.25,.04-.51,.05-.78,.04-.8,.13-1.57,.27-2.29,.04-.2,.08-.4,.13-.58l.03-.13c.02-.11,.05-.23,.08-.33,.08-.23,.17-.42,.25-.58,.08-.15,.17-.3,.27-.47,.15-.22,.32-.43,.56-.68,.2-.22,.4-.42,.6-.61,.16-.13,.35-.27,.57-.42,.07-.04,.13-.08,.2-.13l.13-.08s.06-.04,.1-.06c.08-.06,.16-.11,.23-.14,.27-.13,.49-.23,.7-.31,.04-.01,.07-.02,.11-.04,.02,0,.05-.01,.07-.02,.06-.02,.12-.05,.17-.07,.13-.06,.27-.14,.39-.2l.06-.04h.01s.08-.05,.13-.06c.13-.06,.25-.12,.36-.18,.12-.06,.24-.15,.36-.23l.08-.05s.04-.03,.06-.04c.08-.05,.17-.11,.25-.16h0l.09-.06,.03-.02h0c.13-.08,.27-.18,.41-.25,.11-.06,.22-.12,.33-.18,.05-.03,.1-.06,.14-.09,.02-.01,.05-.04,.07-.05,.12-.08,.23-.18,.33-.27,.06-.05,.12-.1,.18-.15,.08-.07,.18-.14,.26-.21,.12-.11,.24-.22,.35-.32h0l.05-.05s.08-.07,.11-.11l.06-.05h.01c.12-.12,.23-.23,.35-.35,.04-.04,.08-.08,.11-.12h.2c.13,0,.3,0,.46,.01,.16,.01,.32,.03,.5,.05h.13s.06,.01,.06,.01c.13,.01,.25,.03,.37,.05,.37,.05,.72,.12,1.04,.2,.32,.08,.67,.2,.92,.29h.01c.25,.09,.51,.2,.76,.3h.03s.13,.07,.13,.07l.09,.04c.29,.12,.58,.25,.88,.4l.09,.05c.1,.05,.22,.11,.33,.17,.17,.08,.32,.18,.42,.25l.05,.04h.01s0,.03-.01,.04c0,.01-.01,.03-.01,.04,0,.02-.01,.04-.01,.06,0,.04,0,.06,.02,.09,.02,.05,.06,.08,.11,.1,.15,.05,.27,.08,.38,.12,.11,.04,.23,.08,.35,.13,.11,.06,.23,.13,.33,.2h.01s.08,.06,.12,.08c.08,.06,.17,.11,.25,.16,.08,.05,.15,.1,.23,.15,.32,.2,.6,.38,.85,.56,.07,.05,.15,.11,.22,.16h.01c.08,.06,.17,.12,.25,.18,.06,.05,.13,.11,.19,.16,.06,.05,.13,.11,.21,.16,.1,.07,.2,.14,.3,.21,.05,.04,.1,.06,.14,.1,.13,.09,.27,.2,.4,.3h.02c.3,.23,.61,.43,.96,.65,.23,.13,.46,.26,.69,.38,.09,.05,.19,.1,.28,.15,.08,.04,.16,.08,.25,.13,.23,.13,.48,.26,.72,.38,.11,.06,.23,.12,.33,.18,.23,.12,.46,.25,.7,.35l.3,.13c.07,.03,.14,.06,.21,.09,.05,.02,.11,.05,.16,.07,.11,.05,.23,.11,.35,.15,.35,.14,.72,.25,1.1,.37,.36,.11,.72,.2,1.08,.29,.23,.06,.46,.11,.72,.16,.2,.04,.37,.07,.55,.09,.18,.02,.35,.03,.53,.04h.21c.13,.01,.26,.03,.39,.03h.25c.23,0,.46,0,.69-.01h.19c.39-.02,.78-.05,1.16-.08h.11c.4-.05,.76-.1,1.08-.16,.39-.08,.77-.17,1.09-.25l.16-.04c.13-.04,.27-.07,.42-.11,.17-.05,.35-.11,.51-.16h.02c.22-.08,.46-.16,.71-.25,.15-.06,.32-.13,.46-.2h.03c.3-.15,.6-.28,.88-.42l.21-.1c.11-.05,.22-.09,.32-.13,.06-.02,.13-.05,.2-.08,.18-.07,.36-.16,.57-.25,.13-.06,.26-.12,.39-.18,.23-.1,.46-.21,.7-.31,.39-.16,.75-.32,1.06-.47,.31-.14,.63-.27,.93-.4l.12-.05c.55-.23,1.16-.46,1.92-.71,.15-.05,.32-.1,.49-.14,.17-.04,.35-.07,.56-.1,.13-.01,.27-.04,.4-.05h.18c.2-.04,.37-.06,.54-.06h.32c.42,0,.87,.03,1.42,.08,.28,.03,.6,.06,.9,.12,.13,.02,.25,.04,.38,.07,.17,.03,.33,.06,.5,.09,.18,.04,.35,.08,.53,.11,.02,.06,.05,.13,.08,.18,.04,.06,.08,.11,.13,.15,.17,.3,.3,.61,.44,.92v.03c.25,.61,.56,1.4,.8,2.22l.02,.07c.11,.36,.21,.73,.3,1.1,.1,.4,.18,.78,.25,1.13,.07,.37,.13,.73,.2,1.16,.06,.48,.13,.97,.2,1.46,.01,.11,.04,.23,.06,.33,.06,.33,.11,.68,.16,1.02,.04,.37,.08,.74,.12,1.18,.02,.23,.05,.46,.08,.68,.01,.15,.04,.29,.05,.44,0,0,.06,.01,.07,.04h.03s.04,.07,.05,.11c0,.04,0,.07-.03,.1-.01,.01-.03,.03-.04,.04,0,.04,0,.06-.01,.1,0,.03,0,.05-.01,.08,.06,.73,.1,1.35,.1,1.95,0,.45-.05,.9-.09,1.25-.02,.13-.04,.27-.07,.4-.04,.19-.06,.4-.08,.54-.04,.32-.08,.61-.11,.9-.04,.31-.04,.64-.04,.93v.1c0,.22-.01,.43,.11,.61,.03,.04,.06,.08,.09,.11,.06,.06,.12,.08,.21,.13,.08,.04,.16,.04,.25,.06h.17s.08,.01,.08,.01c.12,.02,.23,.05,.34,.08,.05,.03,.1,.05,.15,.08,.06,.06,.12,.12,.18,.18,.11,.16,.21,.32,.32,.54,.05,.09,.08,.18,.12,.27l.04,.08s.02,.05,.04,.07l.02,.04v.03s.01,.01,.01,.01c.02,.04,.04,.08,.06,.12,.04,0,.08,.04,.08,.08,0,.03,0,.05-.03,.07,.01,.04,.02,.06,.04,.1,0,.01,0,.03,.01,.04,.09-.06,.18-.13,.28-.18,.05-.02,.1-.04,.15-.06h0c.06-.03,.13-.04,.19-.06,.27-.08,.49-.13,.7-.18,.25-.06,.5-.09,.78-.13l.1-.02c.1-.01,.19-.03,.28-.04,.11-.01,.23-.02,.32-.02h.06c.13,0,.27-.01,.41-.01h.29c.1,0,.2,0,.27-.01h.28c.09,0,.18,0,.27,0h.87s.16,.01,.16,.01h.26s.06,.01,.1,.02h.04s.04,.02,.05,.04c.01,0,.04,.01,.05,.04h0s.02,.05,.04,.06c0,.01,.01,.02,.03,.04,0,0,0,.01,.01,.02h.01s0,.03,.01,.03c-.08-.12-.16-.23-.23-.33-.12-.16-.21-.3-.28-.44-.07-.13-.16-.3-.25-.47-.08-.14-.18-.28-.27-.42l-.02-.03c-.08-.13-.16-.27-.23-.4l-.04-.07c-.1-.18-.2-.35-.28-.48-.04-.07-.09-.14-.13-.22-.05-.08-.11-.16-.15-.24-.06-.09-.11-.19-.16-.28l-.05-.08c-.05-.11-.11-.21-.15-.32-.16-.39-.3-.8-.42-1.19-.06-.2-.12-.41-.18-.64-.05-.2-.1-.4-.13-.59v-.03s-.02-.05-.02-.08c-.03-.02-.04-.06-.04-.08,0-.04,0-.07,.03-.1h0v-.2c0-.18,0-.38,.01-.56,0-.22,.02-.43,.04-.64v-.16c0-.11,.01-.23,.02-.33,.01-.31,.04-.63,.06-.9h0s.01-.15,.01-.15v-.13s.01-.09,.01-.09c.04-.37,.06-.76,.08-1.14v-.13c0-.15,.02-.3,.02-.45v-.59c0-.16,0-.32-.01-.47v-.04c0-.22-.01-.44-.02-.65,0-.43-.01-.81-.03-1.16,0-.1-.01-.19-.02-.29,0-.08-.01-.17-.01-.25,0-.15-.01-.36-.04-.59-.04-.35-.07-.7-.11-1.04,0-.1-.02-.2-.04-.3v-.13s-.01-.01-.01-.01c-.02-.2-.05-.41-.06-.61-.04-.37-.08-.73-.12-1.12-.02-.23-.05-.48-.08-.78-.08-.01-.15-.07-.18-.13,0-.01-.01-.04-.02-.06-.02-.04-.04-.08-.05-.13,0-.04,0-.06-.01-.1-.01-.08-.01-.18-.02-.26v-.08c0-.07-.02-.16-.04-.24,0-.04-.01-.07-.01-.11s-.01-.09-.01-.13c0-.05-.02-.1-.03-.15,0-.03-.01-.06-.01-.08l-.02-.12c-.02-.13-.05-.25-.06-.37-.05-.25-.08-.5-.11-.74-.01-.08-.02-.17-.04-.26-.05-.35-.08-.68-.09-.99-.01-.39-.01-.71,.01-.99,.01-.18,.05-.37,.09-.56v-.05c.04-.13,.07-.26,.13-.38,.06-.15,.16-.29,.25-.42l.04-.05s.06-.08,.08-.13c.06-.08,.12-.18,.18-.26,.08-.12,.18-.24,.28-.37,.1-.12,.18-.25,.27-.37l.03-.04c.09-.14,.21-.27,.39-.41l.03-.03c.1-.08,.2-.16,.28-.25s.15-.2,.22-.3c.06-.09,.11-.19,.17-.29l.04-.06c.09-.16,.18-.3,.28-.44l.03-.04c.08-.11,.17-.22,.23-.34,.03-.06,.05-.13,.06-.2,0-.06,.01-.13,0-.21-.03-.25-.08-.51-.19-.82-.04-.1-.06-.19-.1-.28-.06-.19-.13-.38-.18-.57-.04-.11-.08-.2-.11-.28-.04-.08-.08-.17-.13-.25l-.04-.08c-.04-.06-.04-.14-.01-.22,.02-.08,.08-.14,.15-.18,.04-.02,.08-.04,.13-.04,.11,0,.21,.06,.27,.16,.02,.04,.04,.06,.06,.1,.05,.08,.09,.17,.13,.26,.05,.11,.1,.23,.13,.33,.08,.24,.18,.49,.3,.8,.1,.25,.2,.53,.26,.82,.01,.07,.03,.14,.04,.2h0c0,.09,.01,.16,.01,.25,0,.05,0,.1-.01,.14-.02,.16-.06,.32-.13,.45-.07,.15-.15,.28-.25,.43-.05,.09-.11,.19-.18,.32-.04,.08-.08,.16-.12,.23v.02c-.08,.13-.14,.25-.22,.37-.08,.11-.17,.23-.27,.35-.08,.1-.2,.18-.3,.26-.1,.08-.2,.16-.28,.25-.08,.1-.18,.2-.28,.3l-.04,.04c-.06,.06-.13,.12-.19,.19-.12,.15-.23,.31-.35,.47-.04,.06-.08,.12-.13,.17-.08,.11-.16,.22-.23,.33-.04,.1-.08,.2-.11,.3-.04,.11-.07,.23-.1,.34-.04,.25-.06,.49-.06,.74s0,.49,.02,.73c.01,.16,.03,.32,.05,.47,.01,.08,.02,.18,.03,.26,.03,.28,.06,.52,.11,.75,.03,.12,.05,.25,.08,.37,0,.05,.02,.09,.03,.13,.01,.07,.04,.15,.04,.22v.11c.03,.08,.04,.16,.05,.23,.01,.11,.02,.23,.03,.36,0,.02,0,.04,0,.06,0,.02,0,.05,.01,.07,0,.04,.01,.08,0,.13v.09c.37,.2,.77,.37,1.19,.52,.36,.13,.75,.18,1.2,.18,.22,0,.45-.01,.7-.04h.04c.03-.06,.08-.09,.15-.09h.03s.08,.03,.11,.07c.01,.01,.01,.04,.02,.05,.02,0,.05,0,.07,.01l.15,.02c.24,.04,.44,.07,.66,.08h.05c.18,0,.37-.03,.55-.06h.04c.39-.06,.76-.23,1.04-.35h.04c.27-.14,.56-.28,.81-.45l.04-.02c.27-.18,.54-.37,.8-.56l.06-.04c.14-.11,.28-.22,.42-.34,.13-.12,.27-.25,.38-.37,.27-.27,.51-.53,.74-.79,.21-.25,.42-.5,.61-.75l.06-.08,.02-.02c.11-.15,.23-.3,.34-.44,.04-.05,.06-.09,.1-.14,.32-.37,.57-.68,.8-.97,.25-.32,.5-.66,.73-1.01,.21-.32,.39-.68,.57-1.02v-.04c.19-.35,.37-.7,.55-1.05,.23-.44,.4-.81,.56-1.2,.09-.22,.18-.44,.27-.66,.06-.17,.13-.34,.2-.51,.3-.72,.55-1.47,.77-2.23,.23-.78,.4-1.6,.55-2.37,.1-.51,.2-1.02,.3-1.52l.16-.77c.06-.29,.11-.59,.17-.87,.09-.49,.18-1,.3-1.5,.17-.72,.33-1.42,.55-2.1,.1-.32,.22-.65,.35-1.02l.05-.13c.1-.26,.2-.54,.3-.8,.19-.43,.4-.85,.64-1.26,.35-.59,.67-1.02,.78-1.16,.44-.57,.82-.94,.95-1.08,1.5-1.52,1.42-2.97,2.78-3.86,.8-.53,1.63-.54,2.85-.54,1.37-.01,1.58,.32,3.87,.75,2.35,.44,3.52,.67,4.42,.37,.54-.18,1.23-.55,2.18-.41,.51,.07,.75,.3,1.16,.4,.85,.23,2.44,.63,3.92-.07,.89-.42,2.14-1.45,2.17-2.7,.02-1.15-1-1.98-1.77-2.67h-.02Zm-94.74,2.73h-.08c-.21-.01-.42-.08-.66-.23-.18-.11-.33-.23-.45-.37-.08-.1-.16-.2-.23-.33-.06-.09-.09-.17-.11-.24-.05-.14-.09-.3-.12-.44-.02-.12-.04-.24-.04-.37,0-.08,.01-.16,.04-.24v-.04h.01c.01-.06,.03-.12,.04-.18,.02-.06,.04-.13,.07-.18,.03-.06,.06-.11,.1-.17l.1-.1c.1-.1,.25-.17,.41-.18h.1c.09,0,.15,0,.23,.04,.08-.02,.15-.04,.21-.04h0c.09,0,.18,.02,.3,.06,.09,.03,.17,.06,.25,.11,.08,.05,.16,.11,.23,.17l.02,.02c.06,.06,.13,.12,.18,.19,.07,.1,.14,.2,.2,.3,.07,.11,.14,.22,.18,.35,.04,.11,.06,.22,.08,.33,.01,.09,.04,.19,.05,.3,0,.06,.01,.12,.01,.18,0,.13,0,.25-.05,.37-.04,.13-.11,.25-.2,.35-.1,.1-.18,.18-.3,.23-.18,.08-.4,.13-.6,.13Zm6.93,15.27c-.05,.17-.12,.32-.2,.43-.05,.06-.1,.12-.16,.18-.04,.04-.08,.09-.14,.13-.13,.08-.25,.17-.39,.2-.15,.05-.29,.08-.42,.12-.15,.04-.3,.05-.45,.05h-.01v-.03c-.14,0-.29-.03-.44-.08-.13-.05-.27-.11-.42-.2-.13-.08-.23-.16-.31-.23-.15-.13-.25-.24-.33-.35-.08-.11-.16-.23-.23-.35-.11-.2-.2-.43-.28-.73-.05-.17-.07-.3-.08-.42-.01-.16-.02-.31-.02-.44v-.37c.02-.26,.08-.53,.17-.77,.01-.04,.04-.1,.06-.16,.01-.04,.03-.06,.05-.08,0,0,0-.01,.01-.02v-.02s.06-.11,.08-.15c.06-.07,.12-.13,.2-.19,.06-.05,.14-.09,.23-.12,.06-.03,.13-.04,.19-.05h.15s.09,0,.15,.01c.09,0,.18,.04,.25,.1l.05,.05,.05,.05s.02,.03,.04,.05c.04,0,.08,.01,.13,.04,.26,.08,.53,.23,.82,.48,.13,.11,.27,.23,.39,.36h0c.11,.11,.2,.22,.28,.34,.19,.29,.35,.6,.47,.87,.06,.13,.14,.32,.17,.49,.04,.28,.03,.55-.04,.8Zm33.84,7.83c-.04,.06-.08,.1-.15,.14-.04,.02-.09,.05-.14,.06-.05,.02-.1,.04-.14,.04h-.07c-.06,0-.12,0-.18-.01-.12-.03-.24-.1-.34-.2-.16-.17-.25-.32-.32-.49-.01-.05-.04-.1-.04-.14-.02-.08-.04-.17-.04-.25,0-.11,0-.25,.08-.37,.06-.11,.16-.19,.25-.22,.07-.02,.12-.04,.18-.04h.06c.24,.04,.46,.16,.64,.35,.1,.11,.23,.27,.24,.47v.06c.05,.12,.06,.24,.06,.36,0,.08-.04,.16-.09,.23Zm8.33-1.69c-.04,.23-.07,.41-.12,.59-.08,.27-.14,.49-.22,.69-.04,.1-.07,.2-.12,.28-.14,.28-.3,.51-.49,.69-.13,.12-.27,.23-.43,.35-.14,.1-.28,.17-.42,.23-.11,.04-.21,.08-.32,.11-.17,.05-.34,.1-.51,.11-.08,0-.16,.01-.25,.01h-.06c-.14,.01-.3,0-.46-.04-.16-.04-.32-.08-.54-.16-.16-.05-.3-.13-.44-.2h0c-.17-.08-.33-.18-.51-.3-.42-.25-.77-.51-1.08-.78-.3-.26-.59-.59-.89-.98-.11-.14-.19-.3-.27-.47-.08-.14-.14-.28-.22-.44-.04-.06-.06-.13-.09-.19-.09-.19-.17-.35-.23-.52-.08-.22-.13-.45-.14-.66,0-.13,0-.25,0-.4,0-.09,.03-.19,.06-.32,.07-.25,.16-.54,.38-.75h.01c.04-.11,.09-.18,.15-.23,.09-.08,.19-.18,.32-.25,.11-.06,.23-.09,.34-.11,.07-.01,.16-.02,.25-.03h.46c.38,.01,.69,.03,.98,.07,.3,.04,.58,.06,.87,.08h.11c.32,.01,.66,.04,.99,.09,.16,.04,.32,.07,.48,.12h.05s0,.01,0,.01c.17,.06,.35,.11,.51,.17,.21,.09,.38,.17,.54,.26,.19,.11,.37,.23,.57,.37,.16,.12,.28,.23,.37,.35,.11,.15,.22,.32,.27,.51,.06,.23,.11,.47,.15,.76,.04,.28,.02,.61-.04,.95Z" fill="#fff0e2"/><path d="M86.58,9.78h.01s.02-.04,.03-.05l-.04,.05Z" fill="#fff0e2"/><path d="M10.17,14.34c-.04,.18-.07,.37-.09,.56-.02,.19-.04,.38-.06,.58-.01,.18-.02,.35-.03,.51-.01,.18-.03,.35-.04,.52-.04,.36-.04,.72-.08,1.07-.02,.18-.04,.37-.06,.55-.02,.18-.04,.35-.05,.52,0,.07-.01,.14-.02,.21,0,.06-.01,.13-.03,.18-.01,.08-.03,.17-.04,.25,0,.07,0,.15,.02,.22,.07,.25,.35,.41,.6,.34,.12-.04,.23-.12,.29-.23,.02-.04,.04-.08,.05-.12,.04-.11,.02-.21,.01-.32,0-.08-.01-.18-.01-.26,0-.16-.01-.32-.01-.49,0-.37-.01-.73-.03-1.09-.01-.35-.03-.69-.04-1.04,0-.36-.04-.72-.02-1.08,0-.2,.01-.4,.04-.6,.01-.06,.02-.13,.04-.18,.03-.12-.04-.25-.16-.29h-.06c-.1,0-.2,.06-.23,.17h0Z" fill="#fff0e2"/><path d="M10.92,12.43s-.07,.11-.11,.16c-.06,.09-.12,.18-.18,.27-.04,.06-.08,.13-.13,.19,0,.01-.01,.02-.02,.04-.06,.24-.11,.47-.17,.71-.07,.29-.17,.57-.25,.85-.04,.15-.08,.3-.13,.44-.04,.11-.08,.23-.13,.34-.08,.18-.15,.36-.23,.54-.06,.14-.11,.28-.17,.42-.06,.15-.1,.3-.15,.46-.06,.16-.11,.33-.13,.5-.04,.23-.06,.47-.05,.71,0,.18,.03,.37,.05,.56l.03,.23h.03s.06,.03,.06,.06v.03c.01,.07,.02,.16,.03,.24,0,.06,0,.11,.01,.17v.32c.01,.08,.04,.15,.05,.23,.06,.37,.15,.74,.23,1.09,.09,.37,.18,.74,.28,1.09,.03,.09,.05,.18,.07,.28v.04c.03,.07,.05,.15,.06,.23,.04,.12,.06,.25,.11,.4l.04,.15c.04,.12,.06,.24,.08,.35v.05s.03,.08,.04,.12c.04,.15,.08,.3,.12,.45h0s.02,.08,.02,.08c.04,.11,.06,.23,.08,.33h0v.08c.05,.17,.08,.32,.11,.46,0,.05,.01,.1,.03,.15v.06s.03,.05,.03,.05v.11c.04,.15,.07,.3,.1,.46,.02,.13,.04,.25,.06,.38h0c.02,.15,.05,.29,.07,.43v.1s.01,.05,.01,.05c0,0,0,.05,.01,.07,0,.03,0,.06,.01,.09v.1c.02,.15,.04,.3,.06,.46,.01,.13,.03,.27,.04,.4,.01,.16,.02,.33,.08,.48,.01,.06,.04,.11,.08,.15,.04,.04,.09,.07,.15,.08,.13,.04,.31-.02,.37-.15,.03-.06,.05-.11,.06-.17,.01-.06,.02-.13,.03-.2,0-.08,.01-.17,.02-.26,.01-.18,0-.37,0-.56,0-.13-.01-.25-.01-.39v-.04c-.01-.2-.02-.41-.04-.61-.01-.33-.05-.67-.07-1-.01-.17-.01-.35-.04-.52-.02-.19-.05-.38-.07-.56,0-.04,0-.08-.01-.12-.01-.11-.03-.22-.04-.33-.05-.4-.11-.8-.18-1.2-.04-.18-.07-.37-.11-.56-.04-.18-.08-.35-.13-.53-.1-.35-.19-.71-.27-1.07-.04-.18-.09-.37-.13-.55-.04-.19-.08-.38-.12-.56-.04-.2-.08-.4-.12-.6-.03-.16-.05-.32-.08-.47-.04-.28-.05-.56-.01-.85,.04-.23,.08-.46,.11-.68,0,.04-.01,.08-.01,.13,.02-.14,.05-.28,.08-.42,.04-.16,.06-.33,.09-.49,.04-.2,.07-.41,.1-.61,.02-.18,.04-.37,.06-.56,.04-.35,.05-.71,.07-1.06,0-.19,.03-.38,.06-.56,.02-.18,.04-.35,.06-.53,.01-.12,.04-.23,.06-.35-.05,.07-.09,.14-.14,.21v-.04s0,0,0,0Z" fill="#fff0e2"/><path d="M11.54,23.76v.04c0-.06-.01-.11-.02-.17,0,.05,.01,.09,.01,.13h0Z" fill="#ffddce"/><path d="M17.29,7.29c-.19,.07-.38,.13-.56,.22-.01,.01-.04,.01-.05,.03h-.01s-.07,.04-.11,.06c-.01,0-.02,.01-.04,.02h-.01s-.03,.01-.04,.02c-.01,0-.04,.01-.05,.02-.06,.04-.12,.06-.18,.1-.34,.19-.68,.37-1.02,.55-.28,.16-.56,.32-.85,.47-.03,.02-.06,.04-.09,.06-.05,.04-.1,.07-.15,.11-.02,.01-.04,.03-.06,.04-.07,.06-.15,.11-.23,.17-.06,.05-.13,.1-.2,.16-.01,.01-.04,.03-.05,.04-.04,.03-.06,.06-.1,.08-.04,.04-.08,.06-.11,.09h-.01s-.02,.04-.02,.04c-.06,.06-.13,.12-.2,.18-.02,.01-.04,.04-.06,.06-.04,.04-.08,.08-.13,.12l-.06,.06-.11,.11-.11,.11s-.04,.04-.06,.06c-.04,.05-.08,.09-.13,.13-.01,.01-.03,.04-.04,.05-.07,.07-.14,.15-.2,.23-.01,.01-.04,.04-.05,.06l-.11,.13s-.04,.04-.05,.06h-.01s-.04,.07-.06,.1c-.04,.05-.08,.1-.12,.15-.01,.02-.04,.04-.05,.06-.08,.1-.15,.2-.23,.3-.06,.08-.12,.16-.18,.25-.01,.02-.03,.04-.04,.06h-.01s-.05,.08-.07,.11c-.04,.05-.07,.11-.11,.16-.01,.01-.03,.04-.04,.05,0,0,0,.01-.01,.02-.05,.08-.1,.15-.15,.23-.04,.05-.07,.11-.11,.16-.06,.09-.12,.18-.18,.27-.04,.06-.08,.13-.13,.19l-.1,.14s-.01,.03-.03,.04c-.06,.09-.12,.18-.18,.28-.01,.02-.02,.04-.04,.06,0,0,0,.01-.01,.02-.01,.02-.03,.05-.04,.07-.06,.1-.11,.2-.17,.3,0,.01-.01,.04-.03,.05-.01,.04-.04,.06-.05,.1-.06,.1-.11,.2-.16,.3-.03,.05-.05,.1-.08,.15-.05,.11-.11,.21-.16,.31,0,.02-.01,.04-.03,.06h0s-.02,.06-.03,.08c-.08,.18-.16,.35-.24,.52-.04,.08-.07,.18-.11,.27-.01,.16-.03,.32-.04,.48v.61c0,.18,.02,.37,.04,.55,0,.28,.02,.56,.04,.85,0,.18,.06,.33,.18,.45,.12,.12,.28,.18,.45,.18,.36,0,.63-.29,.64-.64,.01-.42,.01-.83,.01-1.25,0-.36,0-.72,.03-1.08,.04-.2,.09-.4,.15-.59,.06-.22,.15-.43,.23-.64,.07-.22,.14-.43,.21-.64,.08-.21,.15-.42,.24-.63,.08-.2,.18-.39,.27-.58,.11-.22,.23-.43,.36-.65,.13-.22,.26-.43,.39-.66,.12-.2,.24-.4,.37-.59,.06-.08,.13-.15,.21-.21,.12-.08,.25-.15,.38-.23,.15-.1,.29-.2,.43-.3,.31-.23,.62-.45,.94-.67,.31-.22,.62-.44,.94-.65,.31-.2,.63-.4,.95-.61,.22-.14,.44-.29,.68-.4,.08-.04,.18-.06,.27-.1,.14-.05,.24-.18,.2-.34-.04-.11-.15-.2-.27-.2-.03,0-.05,0-.08,.01l-.02,.02Z" fill="#fff0e2"/><path d="M6.29,37.58c-.1,.06-.22,.15-.32,.25-.1,.11-.19,.23-.27,.35-.08,.13-.17,.25-.25,.38,0,0-.01,.04-.02,.04,0,.01-.01,.02-.01,.03-.05,.11-.08,.2-.11,.3-.01,.06-.04,.12-.05,.18-.01,.05-.03,.09-.04,.13l-.04,.12s-.04,.11-.05,.16v.05c-.03,.06-.05,.13-.07,.18-.04,.05-.04,.12-.03,.18,.01,.06,.06,.11,.1,.13,.04,.02,.08,.03,.12,.03h.06s.09-.05,.13-.11c.03-.04,.04-.08,.05-.13,0-.01,0-.03,.01-.04,0-.02,.01-.04,.02-.06,0-.02,.01-.04,.02-.06,.01-.04,.02-.06,.03-.1l.05-.18,.03-.08c.05-.16,.1-.32,.16-.47,.04-.08,.08-.19,.13-.3l.04-.09c.02-.06,.04-.11,.06-.16,.06-.15,.13-.31,.23-.52,.04-.02,.08-.03,.12-.03h.04c.08,0,.15,.05,.2,.11,.04,.04,.05,.09,.06,.15l.04-.08-.05,.1c-.05,.11-.11,.22-.15,.32-.04,.06-.01,.13,.05,.17,.01,.01,.04,.01,.06,.01,.05,0,.09-.02,.11-.06,.02-.06,.05-.1,.08-.16l.03-.05v.02c0-.06,0-.12,.01-.17,0-.04,0-.07,.01-.11,0-.14-.05-.25-.15-.31,0,0-.01,0-.02-.01,0-.01-.01-.04-.02-.05-.05-.08-.14-.13-.24-.13-.05,0-.09,.01-.13,.04l-.04,.03Z" fill="#f8d7c8"/><path d="M22.68,46.05s-.07,.08-.11,.12c-.11,.11-.23,.23-.35,.34h-.01s-.06,.06-.06,.06c-.04,.04-.08,.07-.11,.11l-.05,.04c-.11,.11-.23,.23-.35,.33-.08,.07-.17,.14-.26,.21-.06,.05-.12,.09-.18,.15-.1,.08-.22,.18-.33,.27-.02,.01-.05,.04-.07,.05-.04,.04-.09,.06-.14,.09-.11,.06-.22,.13-.33,.18-.14,.08-.28,.17-.41,.25l-.03,.02-.09,.06c-.08,.06-.17,.11-.25,.16-.01,.01-.04,.03-.06,.04l-.08,.05c-.12,.08-.23,.16-.36,.23-.1,.06-.23,.12-.36,.18-.04,.01-.08,.04-.13,.06h-.01l-.06,.04c-.12,.06-.25,.14-.39,.2-.05,.02-.11,.05-.17,.07-.02,0-.05,.01-.07,.02-.04,.01-.07,.02-.11,.04-.21,.08-.44,.18-.7,.31-.07,.04-.15,.08-.23,.14-.04,.02-.07,.04-.1,.06,0,.16,.03,.3,.06,.45h0c.03,.13,.06,.25,.1,.34,0,0,.06,.03,.08,.05h0v.03s.03,.06,.03,.08v.09s-.01,.02-.01,.02c.02,.08,.06,.16,.11,.25,.08,.16,.19,.32,.32,.47,.11,.12,.27,.3,.48,.37,.05,.02,.1,.04,.16,.05,.05,.01,.1,.01,.14,.01h.06c.12,0,.25-.06,.33-.11,.15-.08,.25-.22,.32-.35h.01s.04,0,.06,.02c.01,0,.04,.01,.06,.03,.04,.01,.07,.03,.11,.04,.2,.08,.4,.13,.58,.2,.16,.04,.32,.09,.51,.12h.06c.08,.02,.2,.04,.32,.07v.04s.01,.08,.01,.13v.02c0,.08,.01,.17,.04,.28,.02,.09,.06,.18,.11,.27,.03,.06,.06,.11,.1,.17,.09,.13,.19,.26,.31,.37,.02,.01,.04,.04,.06,.05,.11,.09,.24,.16,.37,.2h.01c.01-.06,.04-.1,.08-.13,0,0,.07-.04,.11-.04h.08c.06,.03,.11,.08,.13,.14v.02c.16-.06,.32-.18,.46-.35,.07-.08,.13-.17,.16-.25,.02-.06,.04-.11,.06-.17v-.04s.01-.02,.01-.02c.03-.08,.06-.16,.08-.25,.01-.04,.02-.07,.03-.11v-.07s.04-.08,.05-.12v-.06s.04-.08,.04-.08h.04s.01,.04,.03,.05c.03,.06,.05,.12,.06,.18h0c.04,.08,.06,.16,.09,.23,.09,.21,.2,.41,.3,.57,.1,.18,.23,.35,.37,.49,.07,.08,.15,.14,.24,.2,.09,.06,.2,.1,.28,.13,.13,.04,.25,.06,.38,.06h.04c.06,0,.15-.01,.2-.04,.1-.02,.18-.06,.27-.12,.15-.1,.25-.24,.33-.38,.08-.13,.13-.29,.16-.51,.01-.13,.03-.24,.03-.34s-.01-.2-.02-.3c-.01-.14-.01-.28-.01-.41v-.54c.06,0,.12,0,.19-.01h.13c.06,0,.13-.02,.2-.02h.13c.08,0,.14,.01,.2,.04,.04,.01,.08,.04,.12,.06,.03,.02,.05,.04,.07,.06,.04,.04,.06,.09,.09,.15,.05,.11,.09,.23,.13,.37,.05,.16,.09,.32,.12,.47,.06,.3,.21,.61,.45,.92,.05,.06,.1,.12,.16,.18,.05,.04,.1,.07,.15,.11l.04,.02c.15,.1,.32,.16,.48,.16h.07c.17-.02,.33-.09,.46-.2l.04-.04s.1-.08,.14-.13c.05-.06,.1-.13,.15-.22,.05-.09,.08-.2,.11-.28l.02-.06c.04-.09,.05-.18,.06-.27,.04-.23,.04-.45,.04-.68,0-.08,0-.18-.01-.26v-.02c0-.13-.01-.26,0-.39,0-.11,.02-.22,.04-.32,.01-.12,.04-.23,.08-.37v-.02h.08s.09-.03,.13-.04h.07s.11-.04,.11-.04h.04c.09-.03,.16-.05,.23-.06,.21-.04,.41-.06,.61-.08h.18s.06,.02,.09,.02c.02,0,.05,0,.07-.02h.01s.05-.04,.05-.04h.06c.07-.01,.15-.03,.21-.06,.21,0,.38,.01,.52,.02h.01c.06,0,.13-.04,.17-.08,.04-.05,.06-.11,.06-.18,0-.04-.01-.08-.04-.12-.08-.06-.17-.12-.25-.18h-.01c-.07-.06-.15-.11-.22-.16-.25-.18-.53-.36-.85-.56-.08-.05-.15-.1-.23-.15-.08-.06-.17-.11-.25-.16-.04-.02-.08-.05-.12-.07h-.01c-.11-.07-.22-.14-.33-.2-.13-.06-.24-.1-.35-.13-.11-.04-.24-.08-.38-.12-.05-.01-.09-.05-.11-.1-.01-.03-.02-.06-.02-.09,0-.02,0-.04,.01-.06,0-.01,0-.02,.01-.04,0-.01,0-.01,.01-.02l-.07-.04c-.1-.06-.25-.17-.42-.25-.12-.06-.23-.12-.33-.17l-.09-.05c-.3-.15-.59-.28-.88-.4l-.09-.04-.13-.06h-.02c-.25-.12-.51-.23-.77-.31h-.01c-.25-.09-.6-.21-.92-.3-.32-.08-.68-.16-1.04-.2-.13-.01-.25-.04-.37-.04h-.14s-.05-.01-.05-.01c-.18-.02-.35-.04-.5-.05-.17-.01-.33-.01-.46-.01h-.2v.05h.02Z" fill="#f89fa3"/><path d="M6.26,37.81s-.09,.08-.11,.13c-.01,.06,0,.13,.02,.18,.03,.05,.08,.09,.13,.11-.01,.04-.02,.08-.04,.13-.03,.11-.06,.23-.1,.34-.08,.25-.15,.49-.22,.74-.15,.51-.3,1.03-.42,1.55-.04,.14-.07,.29-.1,.43-.04,.13-.06,.27-.08,.4-.06,.3-.13,.6-.2,.9-.03,.12,.04,.24,.15,.28,.12,.04,.24-.04,.27-.16,.15-.51,.28-1.04,.42-1.56,.06-.24,.13-.49,.2-.73,.08-.26,.15-.52,.23-.79,.05-.17,.09-.34,.13-.52,.05-.18,.11-.36,.15-.54,.04-.13,.07-.25,.1-.38,.01-.06,.02-.11,.03-.17,0-.04,0-.07,.01-.11,0-.14-.05-.25-.15-.31,0,0-.01,0-.02-.01,0,0-.06-.02-.1-.02-.11,0-.22,.06-.32,.11h0Z" fill="#a16053"/><path d="M6.31,37.77c-.08,.13-.16,.27-.25,.39-.09,.11-.18,.21-.27,.32-.11,.13-.21,.27-.31,.41-.05,.06-.09,.13-.13,.19-.04,.06-.09,.13-.13,.19-.09,.13-.18,.28-.25,.42-.15,.28-.32,.56-.46,.85-.15,.31-.3,.62-.44,.94-.13,.32-.26,.64-.38,.97-.06,.15-.12,.3-.17,.45-.05,.17-.11,.34-.15,.51-.18,.63-.37,1.27-.55,1.9-.08,.3-.17,.59-.25,.89-.04,.16,.06,.34,.22,.38,.08,.02,.17,0,.24-.04,.08-.04,.11-.11,.14-.18,.25-.65,.49-1.3,.7-1.95,.1-.32,.2-.65,.3-.97,.1-.32,.22-.63,.33-.95,.13-.35,.26-.68,.4-1.02,.12-.29,.25-.57,.38-.85,.07-.16,.15-.3,.22-.47,.06-.15,.13-.3,.21-.44,.07-.14,.15-.28,.23-.42,.07-.13,.15-.26,.23-.39,.15-.25,.32-.48,.46-.72,.04-.06,.07-.11,.11-.17,.06-.11,.02-.25-.08-.32-.04-.02-.08-.03-.11-.03-.08,0-.16,.04-.2,.11h-.01Zm-1.39,3.62s0,.02-.01,.04c0-.01,0-.02,.01-.04Z" fill="#a16053"/><path d="M6.29,37.58c-.1,.06-.22,.15-.32,.25-.1,.11-.19,.23-.27,.35-.08,.13-.17,.25-.25,.38,0,0-.01,.04-.02,.04,0,.01,0,.01-.01,.03-.02,.04-.04,.07-.06,.11-.04,.06-.07,.13-.11,.19-.07,.15-.15,.3-.22,.45-.06,.13-.12,.28-.18,.42-.06,.13-.11,.25-.16,.39-.06,.15-.12,.3-.18,.45-.06,.16-.12,.32-.18,.49-.09,.25-.18,.5-.26,.75-.08,.23-.15,.46-.23,.69-.16,.49-.33,.98-.48,1.47-.04,.13,.05,.29,.18,.32,.07,.02,.15,0,.2-.03,.06-.04,.1-.09,.12-.16,.2-.6,.41-1.21,.61-1.81,.1-.28,.2-.56,.3-.83,.09-.25,.18-.51,.28-.75,.08-.2,.15-.4,.24-.6,.06-.16,.13-.32,.2-.48,.07-.16,.15-.32,.23-.47,.04-.07,.07-.13,.11-.2,.04-.06,.07-.13,.11-.2,.1-.17,.2-.33,.32-.49,.06-.07,.12-.14,.19-.2,.04-.03,.08-.06,.12-.08,.11-.07,.16-.2,.12-.32,0,0-.01-.04-.02-.05-.05-.08-.14-.13-.24-.13-.05,0-.09,.01-.13,.04h-.01Z" fill="#a16053"/><path d="M73.09,38.98s-.09,.01-.13,.04c-.07,.04-.13,.1-.15,.18-.03,.08-.01,.16,.01,.22l.04,.08c.04,.08,.08,.16,.13,.25,.04,.08,.08,.17,.11,.28,.06,.19,.12,.38,.18,.57,.04,.1,.06,.19,.1,.28,.1,.32,.16,.57,.19,.82v.21c-.02,.08-.04,.14-.06,.2-.06,.12-.15,.23-.23,.34l-.03,.04c-.1,.13-.2,.28-.28,.44l-.04,.07c-.05,.09-.11,.19-.17,.28-.06,.1-.13,.2-.22,.3s-.18,.18-.28,.25l-.03,.03c-.18,.14-.3,.27-.39,.41l-.03,.04c-.08,.13-.17,.25-.27,.37-.11,.13-.2,.25-.28,.37-.06,.08-.12,.18-.18,.26-.03,.04-.05,.08-.08,.13l-.04,.05c-.09,.13-.18,.27-.25,.42-.06,.12-.08,.25-.11,.38v.05c-.06,.2-.09,.38-.11,.56-.03,.29-.04,.6-.01,.99,.01,.31,.04,.64,.09,.99,.01,.08,.02,.18,.04,.26,.04,.25,.06,.5,.11,.74,.02,.13,.04,.25,.06,.37l.02,.12s.01,.06,.01,.08c0,.05,.02,.1,.03,.15v.13s.03,.07,.03,.11c.01,.08,.02,.17,.03,.24v.08c0,.08,.01,.18,.02,.26,0,.04,0,.06,.01,.1,0,.05,.03,.09,.05,.13,0,.01,.01,.04,.02,.06,.02,.06,.09,.12,.18,.13,.04,.3,.06,.54,.08,.78,.04,.39,.08,.75,.12,1.12l.06,.61h0s.01,.15,.01,.15c.01,.1,.02,.2,.04,.3,.04,.35,.08,.7,.11,1.04,.02,.23,.04,.44,.04,.59,0,.08,.01,.17,.01,.25,0,.1,.01,.19,.02,.29,.01,.35,.03,.73,.03,1.16,0,.22,.01,.44,.02,.65v.04c0,.16,.01,.31,.01,.47v.15c0,.1,0,.28,0,.44,0,.15-.01,.3-.01,.45v.13c-.03,.38-.06,.77-.09,1.14v.23s-.03,.13-.03,.13h0c-.03,.29-.06,.6-.07,.92,0,.11-.01,.23-.02,.33v.14c-.01,.22-.03,.43-.04,.65,0,.18-.01,.38-.01,.56v.19h0s-.04,.07-.03,.11c0,.04,.01,.06,.04,.08,0,.06,.04,.11,.09,.12h.02s.05,0,.06-.02c.03-.01,.04-.04,.04-.06,.01-.04,.01-.07,.01-.11v-.11s.01-.04,.01-.05v-.2s0-.06,.01-.08c.01-.03,0-.06,.01-.08,0-.05,0-.09,.01-.13v-.09s.03-.1,.04-.15v-.08s.01-.01,.01-.01c0,0,.01-.06,.01-.1,.03-.17,.06-.3,.08-.43,.02-.09,.04-.18,.06-.27,.01-.05,.02-.1,.04-.15,.03-.13,.06-.25,.08-.38,0-.03,.01-.05,.01-.08v-.02s.02-.06,.03-.1l.02-.08v-.02l.04-.09c.06-.24,.13-.5,.23-.78,.05-.15,.1-.3,.15-.47l.03-.08,.06-.18c.01-.06,.04-.11,.05-.17h0s.03-.1,.03-.1c.04-.12,.08-.25,.11-.37l.03-.08c.07-.23,.16-.48,.24-.73,.06-.16,.1-.3,.14-.44,.01-.06,.04-.11,.05-.17h0c.02-.07,.04-.13,.06-.18,.02-.08,.05-.16,.08-.24,.06-.2,.13-.42,.2-.64,.04-.14,.08-.28,.12-.44,.02-.09,.04-.18,.06-.27v-.04s.02-.06,.03-.09c.03-.12,.06-.27,.1-.42,.04-.15,.07-.29,.11-.44,.06-.27,.14-.54,.2-.78l.02-.07c.04-.13,.08-.28,.12-.41,.01-.05,.03-.09,.04-.14v-.03h.01c.02-.09,.04-.17,.07-.25,.08-.26,.15-.54,.21-.84,.01-.07,.03-.14,.04-.22,.02-.1,.04-.19,.06-.29,0-.04,.01-.08,.03-.13,0-.03,.01-.06,.02-.09,0-.04,.01-.07,.02-.11v-.08s.03-.08,.03-.08c0-.04,0-.08-.03-.12-.03-.04-.06-.06-.11-.07h-.03c-.06,0-.12,.04-.15,.09h-.04c-.25,.03-.49,.04-.7,.04-.45,0-.85-.06-1.2-.18-.42-.15-.82-.32-1.19-.52v-.23s0-.05-.01-.07c0-.02,0-.04,0-.06,0-.13-.01-.25-.03-.36,0-.08-.02-.16-.04-.23v-.11c-.03-.07-.04-.15-.06-.22,0-.05-.02-.09-.03-.13-.02-.13-.05-.25-.08-.37-.05-.23-.08-.47-.11-.75,0-.08-.01-.18-.03-.26-.01-.16-.04-.32-.05-.47-.01-.24-.02-.49-.02-.73s.02-.49,.06-.74c.03-.11,.06-.23,.1-.34,.04-.09,.06-.2,.11-.3,.07-.11,.15-.23,.23-.33,.04-.06,.08-.11,.13-.17,.11-.16,.23-.32,.35-.47l.19-.19,.04-.04c.1-.1,.2-.2,.28-.3,.08-.09,.19-.17,.28-.25,.11-.08,.22-.16,.3-.26,.11-.12,.2-.23,.27-.35,.08-.12,.14-.25,.2-.37v-.02c.05-.08,.09-.16,.13-.23,.06-.13,.12-.23,.18-.32,.09-.15,.18-.28,.25-.43,.06-.13,.11-.29,.13-.45,0-.05,.01-.09,.01-.14,0-.08,0-.16-.01-.23h0c0-.08-.01-.15-.04-.22-.06-.29-.17-.56-.26-.82-.12-.31-.22-.56-.3-.8v.04c-.04-.12-.08-.24-.14-.37-.04-.09-.08-.18-.13-.26-.02-.04-.04-.06-.06-.1-.05-.1-.15-.16-.27-.16l.02,.02h0Z" fill="#ffe1c0"/><path d="M66.44,62.44s-.06,.02-.06,.06l-.02,.02s-.04,.06-.03,.1c0,.03,.01,.06,.04,.08,0,.05-.01,.11-.02,.16v.04c-.02,.1-.04,.2-.05,.3-.04,.22-.08,.43-.12,.61-.03,.14-.06,.28-.1,.42l-.04,.16c-.03,.12-.06,.25-.08,.37l-.03,.13-.03,.12c-.03,.13-.06,.27-.1,.4l-.04,.14c-.04,.16-.08,.35-.14,.54l-.04,.11-.06,.22c-.04,.1-.06,.2-.09,.29v-.02c-.07,.26-.15,.54-.23,.82l-.03,.11h0c-.03,.11-.05,.2-.08,.3-.04,.11-.06,.23-.1,.34v.04c-.04,.06-.06,.13-.08,.2-.04,.12-.08,.25-.13,.38-.02,.07-.04,.14-.06,.2l-.04,.13c-.04,.11-.07,.21-.11,.31l-.04,.08s-.03,.06-.04,.09c-.01,.04-.03,.07-.04,.11,0,.02-.01,.05-.03,.07l-.11,.29-.03,.08c-.05,.13-.09,.25-.12,.36v.05c-.04,.09-.08,.18-.09,.28,0,.04-.01,.08-.01,.13,0,.08,0,.16,.02,.25,.02,.07,.07,.13,.13,.19,.06,.05,.13,.09,.2,.12,.02,0,.04,.02,.06,.03l.05,.02s.11,.06,.17,.09c.08,.06,.16,.12,.23,.2l.06,.07,.12,.13h.01s.04,.05,.05,.06h.01c.04,.06,.06,.09,.1,.13,0-.04,0-.08,.03-.1,.01-.01,.04-.04,.06-.04h.09l.06-.02s.08-.03,.13-.04c.09-.03,.17-.05,.25-.08,.01,0,.04-.01,.05-.01,.02,0,.04-.01,.06-.02,.02,0,.04-.01,.06-.02h.04c.07-.04,.15-.06,.24-.08h.06c.06-.01,.12-.04,.18-.06,.04-.01,.07-.02,.11-.04,.06-.02,.12-.04,.18-.05,.04-.01,.07-.02,.11-.04,.06-.02,.13-.04,.2-.06,.04-.01,.08-.03,.13-.04,.06-.01,.12-.04,.18-.05,.05-.01,.1-.03,.15-.04h.01s.11-.04,.16-.05c.05-.01,.1-.02,.16-.03,.05,0,.1-.01,.15-.01,.06,0,.13-.01,.18-.02h.01s-.04-.08-.05-.12h0s-.01-.04-.01-.04l-.02-.04s-.02-.05-.04-.07l-.04-.08c-.04-.08-.07-.18-.12-.27-.11-.22-.2-.39-.32-.54-.06-.07-.12-.13-.18-.18-.05-.03-.09-.06-.15-.08-.11-.04-.23-.06-.34-.08h-.23s-.02-.01-.02-.01c-.08-.01-.17-.02-.25-.06-.09-.04-.15-.06-.21-.13-.04-.03-.06-.06-.09-.11-.12-.18-.12-.4-.11-.61v-.09c0-.3,0-.63,.04-.94,.04-.29,.06-.59,.11-.9,.02-.15,.05-.35,.08-.54,.03-.13,.05-.26,.07-.4,.04-.35,.09-.79,.09-1.25,0-.6-.04-1.22-.1-1.95,0-.03,0-.06,.01-.08,0-.04,0-.06,.01-.1,.01,0,.04-.02,.04-.04,.02-.03,.04-.06,.03-.1,0-.04-.02-.06-.05-.09h-.03s-.04-.06-.07-.06l.02-.02h0Z" fill="#ffe1c0"/><path d="M16.63,50.88l-.02,.08-.04,.12s-.04,.11-.07,.17v.02s-.03,.03-.04,.04c-.02,.03-.04,.06-.06,.09l-.03,.04c-.06,.11-.08,.24-.09,.36h0c-.01,.17-.02,.33-.02,.5v.46c0,.34,0,.65,.02,.94,0,.16,.01,.32,.02,.47v.47c0,.28,.01,.57,.03,.83v.15c.01,.08,.01,.16,.01,.23,0,.22,.01,.47,.04,.71v.15s.01,.04,.01,.04c.06,.53,.12,1.14,.17,1.71,0,.08,.01,.16,.03,.24,0,.07,.01,.14,.02,.22,0,.06,.01,.13,.01,.2v.03c0,.08,.01,.18,.02,.26,.04,.3,.07,.62,.12,.96,0,.07,.01,.14,.02,.21v.04c.01,.07,.02,.13,.04,.2v.06c.03,.13,.04,.28,.06,.42,.01,.15,.03,.3,.04,.44v.02c.01,.15,.03,.33,.05,.51,.01,.1,.02,.2,.04,.29,0,.06,.01,.12,.01,.18h0s.01,.13,.01,.13v.05c0,.08,.02,.18,.04,.27,.05,.34,.08,.67,.11,.95,.02,.28,.06,.58,.11,.93,.05,.34,.13,.67,.2,.97,.05,.23,.1,.42,.15,.6,.01,.06,.04,.13,.05,.19,.04,.12,.06,.23,.1,.35,0,.04,.02,.06,.03,.1,.01,.05,.03,.11,.04,.16h0s.03,.09,.04,.13c0,.01,.01,.04,.02,.05,.04,.1,.08,.16,.15,.23,.1,.1,.25,.16,.42,.16,.05,0,.09,0,.13-.01,.06-.01,.15-.03,.23-.03h.02l.03,.04c.06,.07,.11,.14,.15,.22,.05,.11,.09,.21,.13,.3,.04,.1,.06,.2,.1,.33,.06,.2,.1,.4,.15,.56,0,0,.01-.01,.02-.02,.06-.04,.11-.08,.17-.12,.06-.04,.11-.07,.17-.1,.05-.02,.11-.04,.16-.06,.06-.02,.13-.04,.19-.06,.08-.02,.18-.04,.27-.06,.05,0,.1-.02,.15-.03,.15-.03,.3-.06,.44-.08,.1-.01,.2-.04,.3-.06,.05-.01,.1-.02,.15-.03,.12-.02,.24-.05,.35-.08l.11-.03h.06c.26-.08,.54-.13,.8-.17,.2-.02,.42-.03,.62-.04h.33c.08,0,.17-.01,.25-.01h.37s.1,0,.16,.01c.03,0,.06,0,.08,.01h.12s.04,.01,.06,.01h.08c.06,0,.11,.01,.15,.03,.04,0,.07-.01,.11-.01h.04s.06,.02,.11,.04c-.06-.08-.12-.17-.18-.25-.11-.16-.21-.31-.28-.41-.05-.08-.1-.15-.15-.23-.13-.19-.25-.38-.37-.57-.09-.15-.18-.3-.27-.47-.02-.04-.05-.08-.07-.13v-.02s-.03-.02-.03-.02c-.05-.08-.1-.18-.14-.27h0c-.06-.11-.11-.21-.15-.32-.05-.1-.08-.2-.13-.3h0s-.04-.1-.04-.1c-.11-.25-.2-.51-.29-.75-.17-.47-.3-.97-.43-1.52-.05-.23-.08-.48-.12-.66l-.04-.22c-.05-.25-.11-.59-.15-.93-.02-.11-.04-.23-.05-.34v-.16c-.03-.12-.04-.24-.05-.36v-.2c-.04-.28-.06-.59-.08-.89-.01-.17-.01-.34-.03-.51v-.06c0-.14-.01-.28-.02-.42-.01-.22-.04-.43-.05-.64v-.04c-.01-.11-.02-.23-.04-.34-.02-.33-.04-.66-.04-.96v-1.88c0-.13,.01-.25,.02-.38v-.11c.01-.12,.01-.25,.01-.4v-.06c-.02-.06-.07-.11-.13-.13h-.08s-.08,.01-.11,.04c-.04,.04-.07,.08-.08,.13h0s-.01,.01-.01,.01c-.13-.04-.26-.11-.37-.2-.02-.01-.04-.04-.06-.05-.12-.11-.22-.23-.31-.37-.04-.06-.06-.12-.1-.17-.04-.08-.08-.18-.11-.27-.02-.11-.04-.2-.04-.28v-.02s0-.08-.01-.13v-.04c-.12-.04-.24-.06-.32-.07h-.06c-.18-.04-.35-.08-.51-.13-.19-.06-.39-.12-.58-.2-.04-.01-.07-.03-.11-.04-.02,0-.04-.01-.06-.03s-.05-.02-.06-.04v.02c-.09,.12-.18,.26-.34,.35-.08,.05-.22,.11-.33,.11h-.06s-.09,0-.14-.01c-.06-.01-.11-.03-.15-.06-.2-.07-.37-.25-.48-.37-.13-.16-.25-.31-.32-.47-.05-.09-.09-.18-.12-.25v-.02l.02-.06v-.04s0-.06-.03-.08h0v-.03s-.06-.04-.09-.05h-.04c-.08,0-.15,.06-.17,.14h-.01s-.02,.01-.02,.01Z" fill="#ffe1c0"/><path d="M9.16,18.85s-.04,.01-.05,.03c-.01,.01-.01,.03-.01,.04,.01,.1,.03,.2,.04,.32v.3c0,.22,0,.42-.01,.63v1.29c0,.18-.01,.36-.01,.54,0,.25-.01,.5-.02,.75v.11c0,.18-.01,.37-.03,.56,0,.06,0,.11-.01,.17v.15c-.01,.06-.01,.11-.02,.17,0,.05,0,.11-.01,.16v.22c-.03,.15-.04,.29-.05,.44-.01,.18-.03,.37-.05,.55v.13c-.01,.08-.03,.18-.04,.27-.01,.13-.03,.28-.04,.41,0,.1-.01,.2-.03,.3-.01,.12-.02,.24-.04,.36,0,.1-.02,.2-.04,.3l-.04,.25v.12c-.04,.13-.05,.28-.07,.42v.11c-.03,.11-.05,.23-.06,.35-.04,.23-.08,.47-.11,.65-.01,.11-.04,.22-.06,.33v.09s-.05,.2-.05,.2c-.04,.21-.08,.42-.11,.64-.04,.21-.08,.42-.13,.61-.02,.09-.04,.18-.06,.26v.03h0c-.03,.13-.06,.23-.08,.35l-.04,.17c-.04,.16-.06,.31-.1,.47v.06s-.01,.01-.01,.01c-.04,.17-.08,.33-.12,.5-.03,.1-.05,.19-.08,.29v.03c-.04,.09-.06,.19-.08,.28-.06,.21-.12,.42-.18,.63-.02,.08-.04,.16-.06,.23v.07c-.04,.1-.06,.2-.09,.3l-.04,.15v.04l-.04,.1-.03,.08v.03c-.03,.06-.04,.13-.06,.19-.05,.17-.11,.37-.18,.56-.05,.15-.11,.29-.16,.42v.04s-.03,.02-.03,.02c0,0-.02,.05-.04,.08v.04s-.03,.04-.03,.04v.03s-.01,.01-.01,.01c0,0-.03,.04-.04,.06l-.02,.04c-.04,.07-.07,.15-.11,.22l-.02,.05h0s-.02,.04-.02,.04h0c-.02,.06-.05,.11-.07,.15-.01,.04-.04,.06-.05,.1l-.06,.13-.07,.13h0c-.07,.13-.14,.25-.2,.36-.09,.18-.2,.38-.29,.59-.02,.06-.05,.11-.07,.17v.02h-.01v.03s-.04,.09-.06,.13l-.02,.05h0s0,.01,0,.01v.02s.01-.02,.01-.04c0,0,.01-.02,.02-.04,.08-.13,.16-.27,.25-.4,.08-.12,.17-.23,.27-.35,.1-.11,.22-.18,.32-.25,.04-.02,.08-.04,.13-.04,.1,0,.19,.05,.24,.13,0,.01,.01,.04,.02,.05,0,0,.01,0,.02,.01,.1,.06,.15,.17,.15,.31,0,.04,0,.08-.01,.11,0,.06-.01,.11-.03,.17v-.03c.08-.13,.14-.25,.2-.37,.06-.11,.13-.23,.18-.33,.04-.09,.09-.18,.13-.26l.08-.16,.04-.08,.04-.06c.15-.28,.32-.57,.46-.87l.02-.05c.08-.16,.18-.35,.25-.55l.09-.22v-.02c.06-.12,.11-.24,.16-.36,.05-.11,.09-.21,.13-.3,.04-.08,.08-.16,.13-.25l.04-.06c.11-.2,.2-.4,.28-.58l.05-.11h0s.01-.03,.01-.03c.08-.17,.15-.34,.23-.51,.02-.06,.05-.12,.06-.18v-.03s.04-.07,.05-.11c.04-.1,.07-.2,.12-.3,.08-.18,.15-.38,.23-.63,.04-.1,.06-.2,.1-.3,.04-.11,.07-.22,.11-.32,.01-.05,.04-.1,.05-.15,.01-.06,.03-.1,.04-.15l.04-.11c.02-.06,.04-.13,.06-.2,.07-.25,.13-.44,.18-.63,.02-.09,.05-.18,.07-.27,.02-.08,.04-.16,.06-.24l.04-.13v-.05s.03-.06,.03-.06c.03-.09,.05-.18,.07-.28,.04-.13,.08-.31,.11-.49,0-.04,.01-.07,.01-.11,.01-.05,.02-.11,.04-.16,.01-.07,.02-.15,.04-.21v-.04s.01-.1,.02-.15v-.08s.01-.07,.01-.11v-.08s.01-.09,.01-.13c0,0,.01-.06,.01-.08v-.08s0-.08-.04-.12v-.4s-.01-.06-.01-.06c-.04-.14-.06-.28-.08-.42h0c-.02-.14-.04-.27-.06-.4-.03-.16-.06-.3-.08-.46v-.11s-.03-.05-.03-.05v-.06s-.03-.1-.04-.15c-.03-.13-.06-.28-.09-.46v-.05s-.01-.01-.01-.01v-.02c-.02-.11-.05-.23-.08-.33v-.07s-.01-.01-.01-.01c-.04-.15-.08-.3-.12-.45-.01-.04-.02-.08-.03-.12v-.05c-.04-.11-.07-.23-.1-.35l-.04-.15c-.04-.15-.08-.27-.11-.4-.02-.08-.04-.15-.06-.23v-.04c-.04-.1-.06-.19-.08-.28-.1-.35-.19-.72-.28-1.09-.08-.35-.17-.72-.23-1.09-.01-.08-.03-.15-.04-.23v-.32c0-.06,0-.11-.01-.17,0-.08-.01-.17-.03-.24v-.03s-.04-.06-.06-.06v.02h-.03Z" fill="#ffe1c0"/><path d="M20.67,51.19c-.06,.04-.13,.13-.14,.21-.01,.17-.03,.33-.02,.5,0,.13,.02,.28,.04,.41,.02,.17,.05,.34,.08,.51,.01,.07,.04,.14,.06,.21,.04,.09,.08,.18,.12,.27,.01,.04,.04,.06,.06,.1,.08,.13,.18,.27,.31,.36,.06,.04,.12,.09,.19,.12,.08,.04,.16,.06,.25,.08,.04,0,.06,.01,.09,.01,.05,0,.09,0,.14,0,.04,0,.09-.01,.13-.02,.08-.02,.15-.08,.2-.13,.07-.06,.11-.16,.11-.25,0-.06-.02-.14-.06-.19,0,0,.05-.06,.08-.1,.07-.09,.07-.22-.01-.3-.08-.07-.23-.07-.3,.01-.04,.05-.07,.1-.11,.14-.01,0-.03,0-.04-.01-.04-.01-.06-.01-.1-.02l-.02-.02s-.04-.06-.06-.08c-.03-.04-.05-.08-.08-.12-.06-.06-.18-.08-.25-.01h-.01c-.02-.06-.05-.13-.06-.21-.01-.06-.03-.13-.04-.2,0,.03,0,.06,.01,.08-.04-.37-.07-.73-.04-1.1,0-.06-.02-.12-.06-.17-.05-.07-.12-.13-.2-.14-.02,0-.05,0-.07,0-.06,0-.13,.02-.18,.06h-.01Z" fill="#f89fa3"/><path d="M16.74,49.89s-.07,.02-.1,.05c-.02,.02-.04,.06-.04,.1,.01,.07,.02,.13,.04,.2,0,.07,.01,.14,.04,.21,.03,.13,.06,.26,.11,.38,.06,.13,.13,.24,.21,.35,.03,.04,.06,.06,.08,.1,.02,.02,.05,.05,.08,.06,.06,.05,.12,.08,.18,.13,.07,.05,.14,.1,.21,.15,.02,.01,.05,.01,.08,.01,.04,0,.08-.02,.11-.05,.05-.06,.05-.16-.01-.22-.06-.05-.11-.09-.17-.13-.04-.03-.08-.06-.13-.08-.06-.05-.13-.1-.19-.17-.03-.04-.06-.07-.08-.11-.04-.04-.06-.08-.08-.13-.06-.13-.1-.28-.13-.42-.01-.1-.03-.2-.05-.3,0-.04-.01-.07-.05-.1-.03-.02-.06-.04-.09-.04h0Z" fill="#f89fa3"/><path d="M27.36,47.55s-.04,.07-.04,.11c0,.04,.02,.08,.05,.11,.03,.03,.06,.04,.11,.04h.22s.11,.04,.15,.06c.1,.03,.2,.06,.3,.09,.07,.03,.15,.06,.22,.08,.07,.04,.14,.07,.22,.11,.15,.07,.3,.15,.45,.22,.15,.07,.29,.16,.43,.23,.07,.04,.14,.08,.21,.13,.07,.04,.13,.08,.2,.13s.15,.08,.22,.13c.07,.05,.13,.1,.21,.15,.06,.04,.13,.08,.19,.12,.15,.1,.29,.2,.42,.32,.04,.04,.08,.06,.12,.1,.05,.04,.08,.08,.13,.12,.08,.08,.18,.16,.27,.23,.07,.06,.18,.06,.24-.01,.03-.04,.04-.08,.04-.12,0-.05-.03-.08-.06-.12-.03-.03-.05-.06-.08-.08-.03-.02-.05-.04-.08-.06-.05-.04-.1-.08-.15-.13-.05-.05-.11-.08-.16-.13-.04-.04-.08-.07-.13-.11-.08-.07-.18-.13-.27-.2-.1-.07-.2-.13-.3-.2-.09-.06-.18-.13-.27-.2-.09-.06-.19-.12-.28-.18-.27-.18-.55-.35-.85-.49-.15-.07-.3-.14-.45-.21-.16-.07-.32-.13-.49-.19-.11-.04-.22-.06-.32-.09-.12-.04-.25-.04-.37-.04,0,0-.08,.02-.11,.05v.02Z" fill="#f89fa3"/><path d="M13.27,69.36h-.5c-.21,0-.42,.03-.61,.05h-.1c-.15,.03-.3,.04-.46,.06-.07,.01-.14,.03-.21,.04h-.06s-.08,.03-.13,.04c-.06,.01-.11,.02-.17,.04h-.08s-.18,.06-.18,.06c-.06,.01-.12,.04-.18,.05l-.11,.03c-.08,.02-.17,.04-.25,.06-.12,.04-.23,.06-.35,.1-.1,.03-.2,.06-.32,.1-.11,.04-.21,.08-.31,.13-.08,.04-.13,.15-.08,.24,0,.01,.02,.04,.04,.05,.04,.18,.08,.38,.14,.59,.06,.23,.13,.44,.19,.64,.02,.07,.05,.14,.08,.21v.03c.07,.1,.11,.18,.21,.25,0,.07,.02,.14,.05,.22,.05,.13,.13,.25,.25,.36,.13,.11,.32,.18,.48,.18,.04,0,.07,0,.1-.01,.06-.01,.13-.04,.18-.05h.43c.09,0,.18,.01,.27,.03h.07c.13,.03,.27,.03,.37,.03h.77c.07,0,.15,0,.22-.01h.03c.07,0,.13-.01,.2-.01h.48c.09,0,.18-.01,.27-.01,.06,0,.11-.01,.16-.01,.16,0,.32-.03,.49-.04h.01c.09-.01,.18-.02,.27-.03,.08,0,.18-.01,.26-.01h.14c.12,0,.25-.02,.4-.04,.04,0,.08,0,.12-.01,.1,0,.2-.01,.29-.04,.2-.04,.37-.1,.52-.17,.27-.12,.39-.42,.28-.68-.06-.16-.21-.28-.38-.31l-.05-.08c-.06-.11-.14-.19-.22-.27-.06-.06-.13-.13-.2-.2l-.06-.08c-.05-.06-.1-.13-.14-.19-.05-.07-.11-.13-.16-.19l-.06-.06s-.06-.08-.1-.11c-.07-.08-.14-.16-.2-.24-.04-.06-.08-.11-.11-.17-.04-.05-.06-.1-.09-.15l-.06-.08v-.03s-.01-.06-.04-.08c-.04-.04-.06-.06-.1-.06-.03,0-.06-.01-.08-.01h-.16s-.09-.04-.13-.05c-.06-.01-.12-.02-.17-.03-.04,0-.06-.01-.1-.01-.05,0-.09-.01-.13-.01h-.92s0,0,0,0Z" fill="#7b493f"/><path d="M23.99,68.5h-.58c-.2,0-.42,0-.62,.04-.27,.04-.54,.1-.8,.16h-.06s-.11,.04-.11,.04c-.12,.03-.24,.06-.35,.08-.05,0-.1,.01-.15,.03-.1,.02-.2,.04-.3,.06-.15,.02-.3,.05-.44,.08-.05,0-.1,.02-.15,.03-.09,.01-.18,.04-.27,.06-.06,.01-.13,.04-.19,.06-.05,.02-.11,.04-.15,.06-.06,.02-.11,.06-.17,.1-.06,.04-.12,.08-.17,.12-.04,.02-.05,.07-.06,.11,0,.04,0,.08,.04,.11,.01,.02,.04,.04,.06,.04v.02c.07,.28,.13,.55,.2,.83,.01,.08,.04,.17,.06,.25v.06s.03,.06,.03,.06v.06s.03,.07,.03,.07c0,0,0,.07,.02,.1v.03s.03,.1,.04,.14c.01,.04,.03,.06,.05,.09v.04c.06,.11,.1,.17,.17,.24,.02,.02,.05,.04,.08,.06,.03,.02,.06,.04,.09,.06,.27,.1,.55,.18,.82,.23,.25,.04,.49,.06,.73,.08h.23s.03,.01,.03,.01c.09,.01,.18,.01,.27,.02,.15,0,.28,.01,.4,.01h.44c.16,0,.29-.01,.42-.01h.73c.1,0,.18,0,.27-.01,.1,0,.2-.01,.29-.02h.96c.08,0,.18,0,.27-.02,.08-.01,.14-.03,.2-.04,.06-.02,.12-.04,.16-.08,.04-.03,.06-.06,.07-.08,.17-.06,.25-.26,.19-.44-.03-.08-.08-.22-.14-.35-.04-.08-.08-.15-.13-.26l-.04-.08-.04-.08v-.02s-.04-.06-.06-.1h0s-.04-.07-.06-.12l-.08-.15c-.12-.23-.25-.49-.37-.73-.14-.27-.3-.53-.47-.78l-.03-.04s-.04-.06-.06-.07c-.04-.02-.06-.03-.11-.04h-.04s-.07,0-.11,.01c-.04,0-.1-.02-.15-.03h-.17s-.06-.01-.08-.01-.06,0-.08-.01c-.06,0-.11,0-.16-.01h-.37v-.02h0Z" fill="#7b493f"/><path d="M72.5,71h-.73c-.13,0-.27,0-.41,.01h-.06c-.1,0-.22,0-.32,.02-.09,.01-.18,.03-.28,.04l-.1,.02c-.28,.04-.54,.08-.78,.13-.2,.04-.43,.1-.7,.18-.06,.01-.13,.04-.19,.06h0s-.1,.04-.15,.06c-.11,.05-.2,.11-.29,.18-.01-.05-.03-.1-.04-.15,.01-.01,.03-.04,.03-.07,0-.04-.04-.08-.08-.08h-.01c-.06,0-.13,.01-.18,.02-.05,0-.1,.01-.15,.01-.06,0-.12,.01-.16,.03-.06,.01-.11,.03-.16,.04h-.01s-.1,.04-.15,.04c-.06,.01-.12,.04-.18,.05-.04,.01-.08,.03-.13,.04-.06,.02-.13,.04-.2,.06-.04,0-.08,.02-.11,.04-.06,.01-.13,.03-.18,.05-.04,.01-.07,.02-.11,.04-.06,.01-.12,.04-.18,.05h-.05c-.09,.02-.17,.04-.24,.06h-.04s-.05,.03-.06,.04c-.02,0-.04,.01-.06,.02-.01,0-.04,.01-.05,.01-.08,.03-.16,.06-.25,.08-.04,.01-.08,.03-.13,.04h-.06s-.04,.01-.04,.01h-.05s-.05,.03-.06,.04c-.02,.03-.04,.06-.03,.1,0,.04,.04,.08,.08,.1,.05,.07,.1,.15,.13,.21h0s.03,.04,.03,.04l.07,.11v.02c.08,.11,.15,.22,.21,.32,.05,.1,.1,.19,.15,.28l.04,.08v.03s.04,.04,.04,.04v.02l.03,.04s.03,.06,.04,.08v-.04s0,.05,0,.05c0,0,.04,.06,.07,.13,.01,.02,.02,.04,.04,.06,.01,.03,.03,.05,.04,.06,.04,.08,.08,.17,.14,.24s.12,.13,.18,.18c.1,.07,.22,.1,.34,.13,.05,.01,.09,.01,.15,.01h.23s.09-.01,.13-.02h.03s.08-.01,.13-.02c.05,0,.11-.01,.15-.02h.12s.07-.03,.11-.03c.11-.01,.25-.04,.39-.04h.75c.08,0,.15-.04,.2-.09,0-.01,.01-.02,.02-.04,.11,.13,.27,.22,.44,.22h.08c.06,0,.14-.01,.22-.01h.32c.21,.01,.45,.03,.68,.04h-.04c.15,0,.3,0,.45,.01h.34c.18,0,.31,.01,.43,.01,.17,0,.31,0,.45-.02,.14-.02,.27-.02,.42-.04h.04c.11,0,.23-.02,.33-.04h.11c.06-.01,.12-.03,.18-.04,.07-.01,.13-.02,.2-.03,.06,0,.12-.01,.18-.01,.07,0,.14-.01,.21-.03,.2-.02,.4-.06,.63-.1,.13-.03,.27-.05,.42-.06,.08,0,.17-.04,.23-.11,.06-.08,.1-.18,.09-.27,.04-.04,.06-.06,.08-.1,.06-.08,.05-.17,.04-.26-.01-.1-.07-.2-.12-.28l-.02-.04s-.06-.1-.08-.15l-.04-.06c-.08-.16-.17-.3-.25-.42-.05-.07-.09-.15-.13-.23v-.03h-.02v-.03s-.07-.11-.11-.16c-.08-.12-.17-.24-.26-.35l-.06-.08s-.06-.08-.08-.12h0s-.01-.06-.03-.08c0,0-.01-.02-.02-.03-.01-.01-.03-.04-.04-.05h-.01s-.03-.05-.04-.06c0-.01-.02-.03-.04-.04h-.01s0-.03-.01-.04c0-.01-.02-.02-.03-.04-.01-.01-.02-.04-.04-.05h0s-.03-.05-.05-.05c-.01,0-.04-.01-.05-.02h-.04s-.06-.03-.1-.03h-.47c-.06,0-.12,0-.18-.01h-1.06v.04Zm-3.27,2.87s-.02-.03-.04-.04c0,.01,.02,.02,.04,.04Z" fill="#7b493f"/><path d="M26.54,39.42c-.08,.1-.18,.2-.26,.3-.07,.08-.14,.18-.2,.27-.15,.2-.28,.4-.42,.61-.26,.4-.49,.81-.72,1.23-.11,.21-.23,.42-.33,.63-.11,.21-.2,.42-.32,.63-.11,.21-.2,.42-.31,.63-.05,.11-.12,.21-.18,.32-.06,.1-.11,.2-.17,.3-.17,.28-.35,.56-.55,.82-.2,.25-.41,.51-.6,.77-.06,.09-.03,.23,.06,.28,.1,.06,.22,.03,.28-.06,.28-.39,.61-.73,.89-1.12,.13-.19,.26-.39,.38-.59,.12-.2,.23-.41,.35-.62,.11-.22,.22-.43,.33-.65,.11-.2,.2-.42,.32-.61,.23-.42,.45-.85,.7-1.25,.17-.28,.35-.54,.53-.8,.18-.26,.39-.5,.58-.75,.06-.08,.05-.21-.02-.29-.04-.05-.1-.07-.16-.08h-.01c-.06,0-.12,.02-.15,.06v-.02Z" fill="#ffe1c0"/><path d="M63.24,44.26c-.08,.02-.2,.08-.23,.16-.06,.13-.13,.27-.2,.4-.06,.13-.15,.25-.24,.37-.08,.11-.16,.22-.24,.32-.08,.11-.18,.22-.25,.34-.08,.15-.15,.3-.18,.47-.01,.09-.04,.18-.04,.28,0,.11,0,.21,0,.32,.04,.31,.18,.59,.33,.85,.05,.09,.1,.18,.15,.27,.06,.08,.12,.17,.18,.25,.1,.15,.2,.3,.3,.44,.04,.05,.07,.1,.1,.15,.1,.16,.18,.32,.26,.48,.08,.17,.17,.34,.24,.51,.04,.08,.06,.17,.1,.25,.04,.09,.08,.19,.13,.28,.04,.08,.15,.12,.24,.08,.08-.05,.12-.16,.08-.24-.03-.06-.05-.11-.07-.17-.01-.04-.04-.08-.05-.13-.05-.13-.1-.28-.15-.42-.06-.18-.13-.35-.2-.53-.05-.13-.1-.26-.16-.39-.06-.12-.11-.24-.16-.36-.06-.12-.11-.23-.16-.35-.06-.11-.1-.23-.15-.35-.03-.08-.06-.17-.09-.25-.03-.06-.05-.13-.08-.19-.03-.09-.05-.18-.06-.28v-.17c0-.06,.01-.11,.02-.17,.01-.07,.04-.14,.06-.2,.06-.11,.14-.2,.22-.31,.08-.12,.17-.23,.25-.35,.08-.12,.18-.23,.24-.37,.08-.14,.15-.28,.22-.42l.04-.08c.02-.06,.02-.13,0-.2-.02-.1-.08-.18-.16-.23-.06-.04-.13-.06-.21-.06-.03,0-.06,0-.08,0v-.02Zm-.44,4.43s0,0,.01,.01h-.01Z" fill="#ffe1c0"/><path d="M4.56,40.68c-.08,.28-.17,.55-.24,.83-.07,.28-.12,.56-.15,.84-.04,.28-.07,.56-.11,.84-.01,.13-.03,.25-.04,.37-.01,.13-.02,.26-.03,.4v.32c0,.12,0,.23,0,.35,.01,.21,.03,.43,.04,.64,.04,.47,.08,.93,.11,1.4,.04,.42,.05,.85,.06,1.27,0,.23,.01,.45,.01,.68,0,.2-.02,.41-.05,.61-.03,.14-.06,.28-.09,.42-.05,.18-.11,.35-.18,.51-.04,.11,.03,.24,.13,.28,.12,.04,.23-.03,.27-.14,.11-.27,.22-.53,.3-.8,.08-.27,.11-.54,.13-.83,.02-.28,0-.56,0-.84s-.01-.55-.03-.83c0-.25-.04-.5-.05-.75-.01-.28-.04-.55-.06-.83,0-.13-.02-.26-.03-.4,0-.13-.01-.28-.02-.42v-.67c0-.06,0-.13,.01-.2,0-.16,.04-.31,.05-.46,.01-.16,.04-.32,.06-.47,.02-.14,.04-.29,.06-.43,.02-.13,.04-.28,.06-.41,.04-.17,.08-.35,.13-.52,.05-.2,.12-.39,.18-.58,.05-.15-.04-.32-.18-.37-.03,0-.06-.01-.08-.01-.12,0-.24,.08-.27,.2h-.01Z" fill="#7b493f"/><path d="M3.41,44.85c-.03,.33-.08,.67-.13,1-.02,.15-.04,.3-.06,.45-.02,.17-.04,.34-.06,.51-.08,.65-.13,1.3-.19,1.95-.01,.18-.04,.37-.05,.55,0,.06-.01,.13-.02,.19-.01,.1-.02,.2-.04,.3,0-.01,0-.03,0-.04-.02,.13-.05,.26-.07,.39-.06,.25-.12,.49-.19,.73-.02,.06-.04,.13-.06,.2-.02,.07-.05,.13-.06,.2-.02,.06-.04,.11-.06,.17-.02,.05-.04,.1-.06,.15-.08,.16-.17,.32-.27,.49-.04,.08-.03,.18,.05,.23,.08,.05,.18,.03,.23-.05,.09-.16,.18-.32,.27-.49,.07-.14,.13-.28,.18-.43,.05-.15,.1-.3,.13-.45,.03-.09,.05-.18,.07-.28,.02-.08,.04-.16,.05-.23,.01-.07,.04-.15,.05-.22,.01-.11,.04-.21,.05-.32,0-.06,.01-.12,.02-.18,.01-.1,.02-.19,.04-.28,.01-.17,.03-.35,.05-.52,.01-.16,.02-.32,.04-.49,.02-.31,.04-.62,.06-.93,.03-.32,.07-.63,.11-.95,.03-.28,.06-.55,.11-.83,.04-.28,.08-.56,.1-.83,0-.06-.05-.13-.12-.13-.06,0-.12,.06-.13,.12h-.01Zm-.63,5.29h0s0,0,0,0Z" fill="#7b493f"/><path d="M2.2,46.84c-.13,.56-.25,1.11-.37,1.68-.12,.54-.24,1.08-.41,1.6-.11,.32-.21,.65-.33,.97-.04,.1-.08,.2-.12,.3-.02,.06-.04,.12-.07,.18-.07,.16-.15,.32-.23,.49-.21,.43-.42,.87-.63,1.29,0,.02-.02,.05-.03,.07-.01,.05-.02,.1,0,.16,.01,.07,.06,.13,.12,.18,.06,.04,.15,.06,.22,.04,.06-.01,.15-.06,.18-.12,.14-.3,.28-.59,.42-.88,.11-.23,.22-.47,.32-.71,.06-.12,.11-.25,.16-.37,.06-.15,.11-.3,.17-.45,.05-.14,.1-.29,.14-.43,.04-.11,.07-.21,.1-.32,.04-.14,.09-.28,.13-.43,.04-.16,.08-.32,.12-.48,.06-.24,.11-.49,.16-.73,.11-.56,.22-1.13,.35-1.69,.01-.06,.03-.12,.04-.18,.01-.06,.01-.12-.01-.18-.03-.05-.07-.09-.13-.11-.02,0-.04-.01-.06-.01-.09,0-.2,.06-.22,.16h0Z" fill="#7b493f"/><path d="M76.9,15.81s.01,.06,.04,.09c.03,.02,.06,.03,.1,.03,.07,0,.13-.07,.12-.14,0-.04-.02-.06-.05-.08-.03-.03-.06-.04-.1-.04-.07,0-.13,.07-.12,.14h0Z" fill="#7b493f"/><path d="M76.6,17.26c-.06,0-.11,.04-.14,.07-.04,.04-.05,.09-.05,.15,0,.32,.01,.66,0,.98v.97c0,.11,.11,.19,.21,.18,.05,0,.1-.03,.13-.07,.04-.04,.05-.09,.05-.15v-1.95c0-.11-.11-.19-.21-.19h0s0,.01,0,.01Z" fill="#7b493f"/><path d="M77.25,21.63c-.03,.15-.06,.29-.08,.44-.04,.16-.06,.31-.11,.46,0,.02-.01,.05-.03,.07-.01,.05-.02,.09,0,.13,.01,.04,.05,.08,.08,.1,.08,.04,.2,0,.24-.08,.04-.08,.06-.16,.08-.23,.01-.04,.02-.08,.04-.13,.01-.06,.04-.13,.05-.2,.04-.16,.06-.32,.09-.48,.02-.1-.04-.2-.14-.21h-.04c-.08,0-.16,.06-.18,.15h0Z" fill="#7b493f"/><path d="M74.13,18.27s-.07,.07-.07,.11c-.04,.33-.06,.67-.17,.99v.02s-.01,.03-.01,.04v.09s.05,.08,.08,.1c.04,.01,.09,.02,.13,0,.04-.01,.08-.05,.1-.08,.04-.1,.07-.2,.09-.3,.01-.08,.03-.16,.04-.23,.03-.18,.05-.37,.06-.55,0-.05,0-.09-.03-.13-.03-.04-.06-.06-.11-.07h-.04s-.07,.01-.1,.03h0Z" fill="#7b493f"/><path d="M75.46,20.22c-.13,.25-.25,.5-.39,.74-.06,.09,0,.23,.09,.27,.05,.02,.11,.03,.15,0,.06-.01,.08-.06,.11-.1,.15-.24,.27-.49,.4-.73,.05-.1,0-.23-.09-.28-.03-.01-.06-.02-.09-.02-.08,0-.15,.04-.18,.11h0Z" fill="#7b493f"/><path d="M76.55,15.7c0,.07,.04,.13,.09,.18,.06,.05,.12,.06,.2,.06,.15,0,.26-.16,.25-.29,0-.07-.04-.14-.09-.18-.06-.05-.12-.06-.2-.06-.15,0-.26,.15-.25,.29Z" fill="#7b493f"/><path d="M72.12,14.36c-.13,.26-.27,.52-.4,.78-.14,.27-.28,.54-.42,.82-.06,.12,0,.27,.11,.32,.12,.06,.27,0,.32-.11,.13-.27,.27-.54,.42-.8,.13-.27,.27-.54,.41-.8,.06-.12,0-.27-.11-.32-.04-.01-.07-.02-.11-.02-.09,0-.18,.05-.22,.13h0Z" fill="#7b493f"/><path d="M72.12,19.54c-.08,.18-.15,.35-.24,.53-.08,.16-.17,.32-.27,.47-.03,.04-.03,.11,0,.15,.01,.05,.05,.08,.1,.11,.05,.02,.1,.03,.15,0,.05-.01,.08-.05,.11-.1,.09-.16,.19-.31,.27-.47,.08-.17,.16-.35,.24-.53,.04-.1,0-.22-.09-.27-.03-.01-.06-.02-.08-.02-.07,0-.15,.04-.18,.11h0Z" fill="#7b493f"/><path d="M69.33,18.65c-.06,.07-.09,.16-.08,.26,0,.09,.05,.18,.12,.24,.08,.06,.16,.08,.26,.08,.09,0,.18-.06,.24-.12,.06-.07,.09-.16,.08-.25,0-.09-.05-.18-.12-.25-.08-.06-.16-.08-.26-.08-.09,0-.18,.06-.25,.12h0Z" fill="#7b493f"/><path d="M66.44,22.93s-.07,.04-.08,.08c-.08,.21-.16,.42-.21,.64-.02,.08,.04,.16,.12,.18,.04,0,.08,0,.11-.02,.04-.02,.05-.06,.06-.1,.02-.07,.04-.13,.06-.2,.04-.12,.08-.23,.13-.35,.01-.04,.02-.08,0-.12-.01-.04-.04-.07-.08-.08-.02-.01-.05-.01-.07-.01-.01,0-.04,0-.05,0h0Z" fill="#7b493f"/><path d="M71.24,26.03s.02,.07,.05,.1c.04,.02,.06,.04,.11,.04,.08,0,.13-.08,.13-.16,0-.04-.02-.07-.05-.1-.04-.03-.06-.04-.11-.04-.08,0-.14,.08-.13,.16Z" fill="#7b493f"/><path d="M60.76,17.57c-.19,.22-.38,.44-.56,.66-.05,.07-.05,.17,.01,.23,.07,.06,.18,.05,.23-.01,.1-.11,.21-.23,.32-.34,.09-.11,.18-.2,.27-.3,.06-.07,.05-.19-.02-.25-.04-.03-.07-.04-.11-.04-.05,0-.1,.02-.13,.06h0Z" fill="#7b493f"/><path d="M32.75,16.48c-.1,.2-.2,.41-.3,.61-.04,.08-.07,.17-.11,.25-.02,.05-.04,.11-.06,.16,0,.03-.01,.05-.03,.08-.01,.05-.03,.11-.04,.16,0,.05,.02,.1,.07,.11,.05,0,.1-.02,.11-.07,0-.04,.01-.08,.03-.13,.06-.17,.13-.33,.2-.49,.1-.2,.19-.4,.29-.59,.02-.05,0-.11-.04-.13-.01,0-.03-.01-.04-.01-.04,0-.07,.02-.08,.06h0Z" fill="#7b493f"/><path d="M34.36,16.42s-.06,.01-.08,.04c-.02,.02-.03,.05-.03,.08v.57s0,.07-.01,.11c0,.04,0,.06,.01,.09,.01,.03,.05,.04,.08,.05,.06,.01,.13-.03,.14-.1,0-.05,.01-.1,.01-.15v-.59c0-.06-.06-.11-.12-.11Z" fill="#7b493f"/><path d="M30.55,12.56c-.17,.11-.33,.23-.49,.35-.17,.13-.34,.25-.5,.39-.03,.02-.05,.05-.06,.08,0,.04,0,.07,.02,.11,.04,.06,.13,.08,.19,.04,.17-.13,.33-.26,.5-.38,.15-.12,.32-.23,.49-.35,.06-.05,.08-.13,.04-.2-.03-.04-.07-.06-.12-.06-.03,0-.06,0-.08,.02h0Z" fill="#7b493f"/><path d="M29.71,16.65c-.1,.13-.2,.26-.31,.39-.1,.13-.19,.25-.28,.39-.01,.02-.02,.04-.02,.06,0,.02,.01,.05,.04,.06,.02,.01,.04,.02,.06,.02s.05-.01,.06-.03c.08-.13,.18-.26,.28-.39,.1-.13,.2-.26,.31-.39,.03-.04,.03-.09,0-.13-.01-.01-.04-.02-.06-.02s-.05,.01-.06,.04h0Z" fill="#7b493f"/><path d="M38.06,24.08c-.09,0-.16,.08-.15,.17,.01,.47,.04,.92,.06,1.39,0,.08,.09,.16,.18,.15,.09,0,.15-.08,.15-.18-.03-.47-.05-.92-.06-1.39,0-.08-.08-.15-.16-.15h-.01Z" fill="#7b493f"/><path d="M41.66,27.95s-.06,.01-.08,.04-.03,.05-.03,.08v.65c0,.2,0,.41-.01,.61,0,.03,.01,.06,.04,.08,.02,.02,.05,.03,.08,.03s.06-.01,.08-.04c.02-.02,.03-.05,.03-.08,0-.2,.01-.41,.02-.61,0-.22,0-.43,0-.65,0-.06-.06-.11-.12-.11h0Z" fill="#7b493f"/><path d="M39.25,28.26c0,.08-.02,.18-.03,.27,0,.06-.01,.12-.02,.18,0,.06-.01,.11-.03,.17v.04s0,.05-.01,.07c-.01,.05-.02,.11-.04,.16,0,.02,.01,.04,.03,.04,.02,0,.04-.01,.04-.03,.01-.05,.03-.11,.04-.16,0-.04,.01-.07,.02-.1v-.11s.01-.04,.02-.06c0-.06,.01-.12,.02-.18,0-.08,.02-.18,.03-.26v-.03s-.01-.01-.02-.01c0,0-.04,.01-.04,.03h-.01Z" fill="#7b493f"/><path d="M31.34,23.13c-.12,.28-.25,.55-.4,.82-.05,.09,0,.2,.08,.25,.09,.05,.2,0,.25-.08,.15-.27,.28-.54,.4-.82,.04-.09,0-.2-.08-.25-.02-.01-.05-.01-.08-.01-.06,0-.13,.04-.17,.1h0Z" fill="#7b493f"/><path d="M33.84,26.01s-.06,.04-.08,.07c-.11,.2-.23,.39-.33,.59-.11,.2-.2,.42-.3,.62-.04,.06,0,.16,.06,.18,.07,.04,.16,0,.18-.06,.1-.2,.19-.41,.3-.61,.11-.2,.22-.4,.34-.6,.04-.06,0-.15-.06-.18-.01,0-.04-.01-.06-.01h-.04Z" fill="#7b493f"/><path d="M113.04,15.82c-.13,0-1.65,.13-2.39,1.45-.53,.94-.32,1.88-.26,2.12,.37,1.44,1.72,2,1.87,2.06,.35-.1,.98-.32,1.56-.88,.3-.29,1.13-1.07,1.07-2.11-.04-.59-.33-1.01-.66-1.46-.42-.59-.89-.96-1.2-1.17h0Z" fill="#f89fa3"/><path d="M112.26,17.46c-.08,.02-.08,.5,.11,.98,.12,.31,.27,.68,.57,.73,.27,.04,.62-.2,.62-.45,0-.22-.25-.38-.27-.4-.15-.1-.25-.06-.39-.11-.44-.14-.53-.78-.62-.75h0Z"/><path d="M95.59,7c-.57,.49-.9,.63-.94,1.02-.04,.39,.24,.77,2.04,2.28,1.35,1.13,1.57,1.26,1.66,1.66,.18,.87-1,1.32-.99,2.46,0,.73,.49,1.43,.99,1.8,1.6,1.17,3.42-.95,5.67,0,1.27,.54,1.24,1.45,3.07,2.13,.67,.25,1.61,.59,2.27,.14,.92-.61,.72-2.29,.71-2.36-.3-2.36-2.78-2.77-3.26-5.44-.15-.83,.06-.95-.19-1.61-.54-1.4-1.67-1.29-2.93-2.74-1.32-1.53-.77-2.47-2.03-3.27-1.05-.66-2.04-.41-2.32-1.04-.23-.54,.26-1.26,.7-1.79-.13-.08-.4-.23-.75-.23-.75-.01-1.22,.61-1.27,.68,.18,.86,.13,1.55,.06,1.99-.23,1.5-1.13,3.16-2.48,4.33h0Z" fill="#a16053"/><path d="M102.99,7.58c-.2,.08-.29,.28-.33,.48-.02,.09-.04,.18-.04,.28,0,.07,0,.14,.01,.21,0,.1,.02,.19,.04,.28,0,.05,.02,.1,.04,.14,.02,.06,.04,.11,.06,.16,.04,.06,.09,.13,.16,.17,.06,.04,.11,.06,.18,.08,.04,0,.06,.01,.1,.01s.06,.01,.09,0c.08,0,.15-.01,.22-.05,.05-.02,.08-.06,.13-.08,.03-.04,.05-.06,.08-.1,.02-.04,.04-.07,.06-.11,.04-.08,.05-.18,.05-.27v-.11c0-.23-.04-.45-.11-.67-.05-.18-.15-.42-.36-.44-.06-.03-.12-.04-.18-.04-.07,0-.14,.01-.2,.05h0v.02Z"/><path d="M87.63,4.22h-.07s-.08,.06-.13,.08c-.02,.02-.04,.04-.06,.06,0,0,0,0-.02,.01h0s.01,.11,.01,.11c.01,.12,.04,.22,.08,.32,.05,.11,.11,.21,.18,.31,.06,.08,.13,.17,.21,.25,.11,.1,.21,.19,.32,.28,.13,.1,.26,.2,.39,.28l.08,.06c.06,.04,.13,.09,.2,.13l.05,.03s.11,.06,.15,.08l.06,.03s.06,.03,.1,.04c.09,.04,.18,.07,.27,.1,.05,.01,.1,.04,.15,.05,.15,.06,.27,.11,.39,.16,.16,.04,.33,.08,.5,.11,.09,0,.18,.02,.27,.03h.17c.1,0,.2,.01,.31,.01h1.9c.09,0,.18,0,.3-.02h.08s-.01-.01-.01-.01c-.17-.11-.34-.2-.5-.31-.09-.06-.18-.12-.25-.17h0s-.01-.01-.01-.01c-.06-.05-.13-.1-.19-.14-.29-.19-.61-.38-1.04-.63-.1-.06-.2-.12-.31-.18h-.02c-.06-.05-.13-.08-.19-.12-.06-.04-.12-.06-.18-.1h-.02s-.01-.01-.01-.01c-.08-.06-.18-.11-.28-.17-.33-.18-.68-.32-.96-.46-.13-.05-.25-.08-.37-.12-.1-.03-.21-.05-.35-.06h-.11s-.05-.01-.05-.01c-.18-.04-.37-.05-.54-.06-.11,0-.2-.01-.28-.01-.08,0-.15,0-.2,.01l-.03,.04h-.01Z" fill="#f89fa3"/><path d="M89.2,3.19h-.04c-.26,0-.51,.01-.75,.05-.1,.01-.21,.04-.35,.06-.12,.02-.23,.06-.34,.1-.13,.04-.25,.09-.42,.16h-.01c-.1,.05-.2,.09-.3,.15-.08,.05-.14,.1-.2,.16-.06,.06-.09,.12-.12,.18h0s-.04,.07-.05,.11c-.02,.07-.02,.15,0,.23,.01,.08,.04,.17,.08,.28,.01,.04,.04,.07,.05,.1v.03s.07,.11,.1,.16c.04,.06,.08,.11,.11,.16,0,.01,.02,.03,.03,.04,.03,.04,.05,.08,.08,.11,.03,.04,.06,.06,.1,.08h.02s.03,.04,.03,.04c.05,.04,.09,.08,.14,.12,.12,.11,.24,.21,.36,.32,.05,.04,.1,.08,.15,.13,.04,.03,.07,.06,.11,.08,.01,.01,.04,.03,.05,.04,.1,.07,.2,.15,.31,.22h.02c.1,.08,.2,.15,.3,.2,.03,.01,.06,.03,.08,.04l.12,.06s.08,.04,.12,.05c.03,.01,.05,.02,.08,.04,.12,.05,.23,.09,.35,.13,.15,.06,.3,.11,.44,.17,.11,.05,.2,.09,.29,.14,.12,.06,.24,.13,.35,.2,.07,.04,.13,.08,.2,.12,.15,.09,.3,.18,.46,.26,.24,.12,.5,.22,.74,.31,.12,.04,.25,.08,.37,.12,.08,.02,.15,.04,.22,.06,.05,.01,.1,.02,.15,.04,.11,.03,.21,.06,.32,.08h.04s.08,.04,.08,.04c.08,.02,.17,.05,.25,.06,.22,.05,.43,.07,.63,.07,.11,0,.21,0,.32-.01,.16-.02,.3-.08,.43-.13,.1-.04,.19-.09,.28-.15,.03-.02,.06-.04,.09-.05,.17-.1,.3-.18,.42-.28,.06-.04,.11-.1,.16-.15,.05-.04,.1-.08,.15-.12,.08-.07,.15-.16,.22-.23l.04-.04s.04-.05,.06-.07c.02-.03,.05-.05,.06-.08,.05-.06,.11-.13,.16-.19l.04-.04,.06-.08c.05-.06,.11-.13,.16-.2,.03-.04,.05-.08,.07-.11,0-.01,.02-.04,.04-.06,.05-.08,.09-.16,.13-.25l.04-.08s.03-.05,.04-.08,.04-.06,.05-.08v-.03s.06-.09,.09-.14c.06-.1,.11-.2,.17-.32,.06-.13,.12-.25,.13-.38,.01-.13-.04-.26-.12-.35-.06-.06-.13-.1-.22-.12-.12-.03-.25-.04-.37-.04h-.06c-.11,0-.22,.01-.33,.02h-.77c-.09,0-.18,0-.27-.01h-.04c-.09,0-.18-.01-.27-.03-.38-.07-.7-.16-.98-.28l-.23-.11s-.07-.04-.11-.06c-.14-.07-.28-.13-.43-.2-.11-.05-.23-.11-.37-.16-.15-.05-.25-.09-.36-.13-.13-.06-.23-.09-.33-.13-.13-.04-.27-.08-.41-.12-.27-.07-.55-.12-.84-.16-.13-.02-.27-.04-.4-.05h-.06c-.12-.02-.23-.04-.35-.04h-.85v.02s-.01,.01-.01,.01Zm.81,3.45c-.12-.05-.24-.1-.39-.16-.05-.01-.1-.04-.15-.05-.09-.03-.18-.06-.27-.1-.04-.01-.06-.03-.1-.04l-.06-.03s-.11-.06-.15-.08l-.05-.03c-.07-.04-.13-.08-.2-.13l-.08-.06c-.13-.09-.26-.18-.39-.29-.11-.09-.21-.19-.32-.28-.08-.08-.15-.17-.21-.25-.08-.1-.13-.2-.18-.31-.04-.1-.06-.2-.08-.32v-.1s-.01-.01-.01-.01h.02s.04-.05,.06-.08c.05-.04,.09-.06,.13-.07h.07c.06-.01,.13-.03,.2-.03,.08,0,.18,0,.28,.01,.16,.01,.35,.03,.54,.05h.11s.06,.01,.06,.01c.13,.03,.25,.05,.35,.08,.12,.04,.23,.07,.37,.12,.29,.13,.63,.28,.96,.45,.1,.05,.2,.11,.28,.16h.04c.06,.05,.12,.08,.18,.12,.06,.04,.13,.07,.19,.11h.02c.1,.07,.2,.13,.31,.19,.42,.25,.75,.44,1.03,.63,.06,.04,.13,.08,.19,.13h0s.01,.01,.01,.01c.06,.06,.15,.12,.25,.18,.16,.1,.33,.2,.5,.3h.01s-.05,.01-.05,.01h-.04c-.13,.01-.21,.03-.3,.03h-1.13c-.18,0-.36,0-.54-.01h-.23c-.11,0-.21-.01-.31-.02h-.17c-.09,0-.18-.01-.27-.03-.17-.03-.34-.06-.5-.11h.03s.01,0,.01,0Z" fill="#7b493f"/><path d="M88.46,4.83c-.09,0-.15,.1-.15,.19,0,.04,.03,.08,.06,.11,.04,.03,.08,.04,.13,.04h.15c.06,0,.13,.01,.18,.02,.07,.01,.15,.04,.22,.05,.12,.04,.23,.08,.34,.13,.12,.05,.23,.11,.35,.16,.12,.06,.23,.11,.35,.17,.11,.05,.22,.1,.32,.16,.11,.05,.21,.11,.32,.16,.11,.05,.21,.11,.32,.16,.11,.06,.23,.1,.35,.14,.11,.04,.23,.08,.34,.13,.21,.08,.42,.15,.63,.2l.08,.02h-.02c.06,.01,.13,.04,.2,.05,.06,.01,.13,.02,.18,.04,.04,0,.06,0,.09,.01,.04,0,.06,.01,.09,.01,.06,.01,.12,.01,.18,.03h.01s.1,0,.13-.05v-.07s-.01-.03-.03-.04c-.01-.01-.03-.01-.05-.02h-.24s-.1,0-.14-.01c-.05,0-.1-.02-.15-.04h.02s-.03,0-.04-.01c-.06-.01-.11-.04-.16-.05-.06-.01-.12-.04-.18-.06-.12-.04-.24-.08-.36-.13s-.23-.1-.35-.15c-.11-.05-.23-.1-.33-.15l-.13-.07c-.06-.04-.11-.07-.17-.11-.07-.04-.14-.08-.21-.13-.04-.02-.06-.04-.09-.06-.22-.13-.43-.25-.65-.36-.11-.06-.22-.12-.34-.17-.12-.05-.23-.11-.35-.16-.08-.03-.16-.06-.24-.08-.07-.02-.15-.04-.22-.05-.06-.01-.13-.02-.19-.03h-.04c-.08,0-.15,0-.23,.01h0Z" fill="#eb8f9c"/><path d="M90.38,26.07c-1.44-1.82-1.92-3.41-2.09-4.54-.25-1.63,.18-2.13-.23-3.87-.54-2.19-1.25-2.43-1.08-3.58,.27-1.96,2.91-3.91,4.61-3.29,.89,.32,1.36,1.3,1.87,2.34,.39,.8,.73,1.48,.45,2.09-.39,.86-1.46,.78-1.54,1.36-.1,.68,1.28,1.01,1.73,2.14,.37,.94-.07,2.01-.55,2.82-.23,.49-.5,1.02-.82,1.55-.75,1.25-1.58,2.24-2.33,3h0Z" fill="#a16053"/></g></g></g></svg>