<?xml version="1.0" encoding="UTF-8"?>
<svg voxified="true" id="svg" xmlns="http://www.w3.org/2000/svg" xmlns:xlink="http://www.w3.org/1999/xlink" version="1.1" viewBox="0 0 1920 1080">
  <!-- Generator: Adobe Illustrator 29.3.0, SVG Export Plug-In . SVG Version: 2.1.0 Build 146)  -->
  <defs>
    <image id="image" width="80" height="80" xlink:href="assets/headphones.svg"/>
    <image id="image1" width="90" height="90" xlink:href="assets/yes.svg"/>
    <image id="image2" width="90" height="90" xlink:href="assets/no.svg"/>
  </defs>
  <g id="s-end">
    <rect id="text-thankYou" y="399" width="1920" height="210" fill="#fbb03b" isolation="isolate" opacity=".5" stroke="#000" stroke-miterlimit="10" stroke-width="2"/>
    <g id="mpi-ccp-german">
      <g id="d">
        <g>
          <path d="M1699.58,69.24l-3.23,13.85c-.1.66-.65,1.16-1.32,1.2h-.45c-.67-.04-1.22-.54-1.31-1.2l-3.23-13.85v-.16c.02-.33.27-.6.59-.66l.31-.1c.36-.11.74.09.85.45,0,.02.01.05.02.07l2.4,10.7c.24,1.06.59,3.15.59,3.15h.07s.36-2.09.59-3.15l2.4-10.7c.08-.37.44-.61.81-.54.02,0,.04.01.07.02l.3.1c.33.06.57.33.59.66,0,0-.05.11-.05.16ZM1706.49,79.42h-4.36v1.86c-.06.74.48,1.39,1.22,1.45h2.73c.36-.03.67.23.71.59v.3c0,.36-.29.65-.65.65h-3.19c-1.45-.03-2.61-1.2-2.62-2.65v-5.89c.04-1.46,1.25-2.61,2.71-2.59h2.05c1.46-.02,2.66,1.13,2.71,2.59v2.28c.08.7-.41,1.33-1.11,1.41-.07,0-.13.01-.2,0h0ZM1706.11,75.98c0-.7-.57-1.27-1.27-1.27h-1.44c-.7,0-1.27.57-1.27,1.27v2h4l-.02-2h0ZM1716.03,74.71h-2.57c-.77,0-1.41.61-1.41,1.39v7.51c0,.39-.31.7-.7.7h-.34c-.38.01-.69-.28-.7-.66v-9.93c-.02-.31.22-.57.52-.59h.42c.19.03.36.15.44.33l.22.42c.06.17.23.29.42.28.59,0,1.13-1,2.45-1h1.25c.36-.03.68.24.71.61v.31c-.01.36-.32.65-.68.64h-.08.05s0-.01,0-.01ZM1722.93,89.48h-2.87c-.36.03-.68-.24-.71-.61v-.26c0-.36.29-.66.66-.66h2.24c.74.11,1.43-.4,1.54-1.15.02-.11.02-.23,0-.34v-2.69c0-.21-.07-.44-.28-.44-.54,0-1.06,1-2.47,1h-.36c-1.45-.03-2.61-1.21-2.61-2.66v-6c-.04-1.44,1.1-2.64,2.54-2.68h.43c1.32,0,1.88,1.1,2.47,1.1.15,0,.29-.09.36-.23l.3-.54c.11-.16.3-.26.5-.26h.33c.3,0,.55.26.54.56h0v13.22c0,1.46-1.2,2.65-2.66,2.64h-.01.06ZM1723.8,76.19c0-.81-.65-1.47-1.46-1.48h-1.02c-.81,0-1.47.67-1.46,1.48h0v5.06c0,.81.65,1.46,1.46,1.47h1c.81,0,1.47-.65,1.48-1.46h0v-5.07h0ZM1730.07,84.29h-.33c-.38.01-.69-.28-.7-.66v-14.55c-.01-.38.29-.7.67-.71h.36c.39,0,.71.32.71.71v14.53c0,.39-.33.69-.72.68h-.04.05ZM1740.37,79.42h-4.36v1.86c-.06.74.49,1.38,1.23,1.44h2.68c.36-.03.67.24.7.6v.29c0,.36-.29.65-.65.65h-3.19c-1.42-.06-2.55-1.23-2.56-2.65v-5.89c.04-1.46,1.25-2.61,2.71-2.59h2.05c1.45-.01,2.65,1.14,2.7,2.59v2.28c.08.7-.41,1.33-1.11,1.41-.08.01-.17.01-.25,0h.05ZM1739.99,75.98c0-.7-.57-1.27-1.27-1.27h-1.44c-.7,0-1.27.57-1.27,1.27v2h4l-.02-2h0ZM1745.84,71.08h-.35c-.39,0-.7-.3-.71-.69v-1.31c0-.39.3-.7.69-.71h.35c.39,0,.7.32.7.71v1.29c0,.39-.32.71-.71.71h-.02.05ZM1745.84,84.29h-.35c-.38.01-.7-.29-.71-.67v-9.79c0-.38.3-.69.68-.7h.36c.39,0,.7.31.7.7h0v9.78c-.01.39-.33.69-.72.68h-.01.05ZM1755.84,84.29h-3.23c-1.46,0-2.64-1.19-2.63-2.65v-5.9c.03-1.46,1.22-2.62,2.68-2.61h2.88c.36-.03.68.24.71.61v.31c0,.36-.29.66-.66.66h-2.31c-.76-.1-1.46.44-1.56,1.2-.01.11-.02.22,0,.33v5c0,1.11.71,1.47,1.58,1.47h2.5c.36-.03.67.24.7.6v.3c.02.36-.26.66-.62.68h-.08.04ZM1765.22,84.29h-.33c-.38.01-.7-.29-.71-.67v-7.43c0-.82-.66-1.48-1.48-1.48h-1c-.82,0-1.48.66-1.48,1.48h0v7.42c0,.39-.31.7-.7.7h-.34c-.38.01-.69-.28-.7-.66v-14.57c-.01-.38.29-.7.67-.71h.34c.39,0,.71.32.71.71v4.68c0,.24.07.4.28.4.59,0,1.15-1.1,2.47-1.1h.36c1.44,0,2.61,1.17,2.61,2.61v7.94c-.01.39-.33.69-.72.68h-.02.04ZM1774.9,79.42h-4.41v1.86c-.06.74.5,1.39,1.24,1.45h2.76c.36-.03.67.23.71.59v.3c0,.36-.3.66-.67.65h-3.17c-1.44-.04-2.59-1.21-2.6-2.65v-5.89c.04-1.47,1.26-2.62,2.73-2.59h2c1.46-.01,2.66,1.14,2.71,2.59v2.28c.08.7-.43,1.34-1.13,1.41h-.21.04ZM1774.49,75.98c0-.7-.57-1.27-1.27-1.27h-1.44c-.7-.01-1.28.55-1.29,1.25v2.02h4v-2ZM1785.49,84.29h-.33c-.38.01-.7-.29-.71-.67v-7.41c.02-.81-.61-1.48-1.42-1.5h-1.06c-.81-.02-1.47.62-1.49,1.43v7.47c0,.39-.31.7-.7.7h-.33c-.38.01-.7-.29-.71-.67v-9.92c-.01-.31.23-.58.55-.59h.39c.2.02.37.15.45.33l.21.42c.06.17.23.29.42.28.59,0,1.16-1.1,2.48-1.1h.25c1.45,0,2.62,1.17,2.62,2.62v7.93c0,.35-.27.64-.62.68h0ZM1796,84.29h-.35c-.22,0-.42-.13-.52-.33l-.22-.4c-.06-.15-.21-.24-.37-.23-.59,0-1.09,1-2.5,1h-.35c-1.45-.02-2.62-1.21-2.62-2.66v-6c-.04-1.44,1.1-2.64,2.54-2.68h.43c1.32,0,1.89,1.1,2.48,1.1.21,0,.28-.16.28-.4v-4.61c0-.39.31-.7.7-.71h.33c.39,0,.7.3.71.69v14.64c.01.31-.23.58-.54.59h-.05.05ZM1794.8,76.19c0-.82-.66-1.48-1.48-1.48h-1.01c-.82,0-1.48.66-1.48,1.48h0v5c0,.82.65,1.48,1.47,1.49h1.01c.82,0,1.48-.65,1.49-1.47v-5.02h0ZM1805.49,79.42h-4.36v1.86c-.06.74.48,1.39,1.22,1.45h2.74c.36-.03.67.24.7.6v.29c0,.36-.29.65-.65.65h-3.19c-1.43-.05-2.57-1.22-2.58-2.65v-5.89c.04-1.46,1.25-2.61,2.71-2.59h2.05c1.45-.01,2.65,1.14,2.7,2.59v2.28c.08.7-.41,1.33-1.11,1.41-.08,0-.15.01-.23,0h0ZM1805.11,75.98c0-.7-.57-1.27-1.27-1.27h-1.44c-.7,0-1.27.57-1.27,1.27v2h4l-.02-2h0ZM1699.15,108.09l-.35.3c-.31.24-.76.18-1-.13h0l-5.48-6.73v6.24c0,.39-.31.7-.7.7h-.34c-.38.01-.7-.29-.71-.67v-14.54c0-.39.3-.7.69-.71h.35c.39,0,.71.32.71.71h0v6.19l5-6.71c.2-.3.61-.39.91-.19.03.02.06.04.09.07l.26.21c.31.2.4.62.19.93-.02.03-.03.05-.05.07l-5.06,6.66,5.55,6.74c.1.12.15.27.15.42,0,.17-.08.34-.21.45h0ZM1707.9,108.46h-.36c-.22-.01-.41-.13-.52-.32l-.21-.41c-.07-.14-.21-.24-.37-.23-.59,0-1.09,1-2.5,1h-.35c-1.45-.02-2.62-1.21-2.62-2.66v-7.84c0-.39.31-.7.7-.7h.34c.38,0,.69.32.7.7v7.4c0,.82.65,1.48,1.47,1.49h1.02c.81,0,1.47-.65,1.48-1.46v-7.43c0-.39.31-.7.7-.7h.34c.39,0,.7.31.71.7v9.88c0,.3-.23.56-.53.58h0ZM1712.96,108.46h-.33c-.38.01-.69-.28-.7-.66v-14.55c-.01-.38.29-.7.67-.71h.36c.39,0,.71.32.71.71v14.51c0,.39-.31.7-.7.7h-.01ZM1722.55,98.88h-2.45v8.88c0,.39-.31.7-.7.7h-.33c-.38.01-.7-.29-.71-.67v-8.91h-1.34c-.36.03-.68-.24-.71-.61v-.31c0-.36.29-.66.66-.66h1.39v-4c0-.39.3-.7.69-.71h.34c.39,0,.71.32.71.71v4h2.45c.36-.03.68.24.71.61v.31c0,.36-.29.66-.66.66h-.05ZM1731.62,108.46h-.35c-.22,0-.41-.13-.52-.32l-.21-.41c-.07-.15-.22-.24-.38-.23-.59,0-1.08,1-2.49,1h-.36c-1.45-.03-2.61-1.21-2.61-2.66v-7.84c0-.38.3-.69.68-.7h.35c.39,0,.7.31.71.7v7.4c0,.82.65,1.48,1.47,1.49h1.02c.82,0,1.48-.66,1.48-1.48h0v-7.41c0-.39.31-.7.7-.7h.38c.39,0,.7.31.7.7h0v9.88c0,.31-.25.57-.56.58t0,0h0ZM1740.77,98.88h-2.57c-.77,0-1.41.61-1.41,1.39v7.49c0,.39-.32.7-.71.7h-.33c-.38.01-.7-.29-.71-.67v-9.9c-.01-.31.23-.58.55-.59h.39c.2.02.37.15.45.33l.21.42c.07.18.24.29.43.28.59,0,1.13-1,2.45-1h1.25c.36-.03.67.24.7.6v.32c0,.36-.31.64-.67.63h-.03ZM1747.67,108.53h-.35c-1.42,0-1.94-1-2.48-1-.21,0-.28.23-.28.45v5c0,.39-.32.71-.71.71h-.36c-.38,0-.69-.3-.7-.68v-15.15c-.01-.3.22-.55.52-.56h.35c.2,0,.38.1.49.26l.31.54c.07.13.2.22.35.23.59,0,1.16-1.1,2.48-1.1h.35c1.44,0,2.61,1.15,2.61,2.59v6.09c-.02,1.42-1.16,2.58-2.58,2.62h0ZM1748.54,100.36c0-.81-.65-1.47-1.46-1.48h-1c-.82,0-1.48.66-1.48,1.48h0v5.07c0,.81.67,1.47,1.48,1.46h1c.8,0,1.45-.66,1.46-1.46v-5.07ZM1757.47,108.46h-4c-.36.03-.67-.23-.71-.59v-.32c0-.36.28-.66.64-.66h3.7c.8,0,1-.83,1-1.35v-.93c0-.55-.45-1-1-1h-2c-1.27,0-2.3-1.02-2.31-2.29v-1.57c.12-1.4,1.3-2.47,2.7-2.45h3c.36-.03.67.24.7.6v.32c0,.36-.28.66-.64.66h-2.66c-.65-.09-1.24.36-1.33,1.01,0,.06-.01.13-.01.19v.87c.03.68.6,1.21,1.28,1.18h1.95c1.1-.07,2.05.77,2.12,1.87v1.83c.14,1.3-.79,2.47-2.1,2.62-.1.01-.21.02-.31.01h-.02ZM1770.93,98.29l-5.44,14.89c-.06.33-.38.55-.71.49-.11-.02-.21-.07-.29-.14l-.26-.14c-.17-.1-.29-.27-.31-.47,0-.11,0-.23.05-.33l1.52-4.13c-.14,0-.26-.25-.31-.42l-3.56-9.75v-.24c0-.28.18-.52.44-.61l.38-.14c.32-.14.7,0,.84.33.01.02.02.05.03.07l3,8.48,3-8.48c.11-.35.48-.54.82-.44h.03l.35.17c.26.1.44.34.45.61,0,.08-.01.16-.03.24h0s0,0,0,0ZM1778.37,108.46h-3.23c-1.45-.03-2.61-1.23-2.59-2.68v-5.87c.03-1.46,1.23-2.62,2.69-2.61h2.87c.36-.03.68.24.71.61v.31c0,.36-.29.66-.66.66h-2.31c-.76-.1-1.45.43-1.55,1.19-.01.11-.02.23,0,.34v5c0,1.1.7,1.46,1.57,1.46h2.5c.36-.03.67.23.71.59v.33c.01.36-.27.66-.63.67h-.08ZM1787.75,108.46h-.33c-.38.01-.7-.29-.71-.67v-7.43c0-.82-.66-1.48-1.48-1.48h-1c-.82,0-1.48.65-1.49,1.47h0v7.41c0,.39-.31.7-.7.7h-.33c-.38.01-.7-.29-.71-.67v-14.54c0-.39.3-.7.69-.71h.35c.39,0,.7.32.7.71v4.68c0,.24.07.4.28.4.59,0,1.16-1.1,2.48-1.1h.35c1.44-.02,2.62,1.14,2.64,2.58v7.95c0,.39-.31.7-.7.7h-.04ZM1796.19,108.46h-2.24c-1.45,0-2.62-1.18-2.62-2.63v-5.94c.04-1.46,1.25-2.61,2.71-2.59h2.05c1.46-.02,2.67,1.13,2.71,2.59v5.94c0,1.45-1.16,2.62-2.61,2.63h0ZM1797.06,100.17c0-.71-.57-1.28-1.28-1.29h-1.41c-.71,0-1.29.58-1.29,1.29h0v5.44c-.02.7.54,1.28,1.24,1.3h1.44c.71.01,1.29-.55,1.3-1.26v-5.48h0ZM1803.33,108.46h-.33c-.38.01-.7-.29-.71-.67v-14.54c0-.39.3-.7.69-.71h.35c.39,0,.7.32.7.71v14.51c0,.39-.31.7-.7.7h0ZM1812.33,108.46h-2.24c-1.44-.01-2.61-1.19-2.6-2.63v-5.94c.04-1.46,1.25-2.61,2.71-2.59h2.05c1.46-.02,2.67,1.13,2.71,2.59v5.94c0,1.44-1.15,2.61-2.59,2.63h-.04ZM1813.2,100.17c0-.71-.56-1.28-1.27-1.29h-1.41c-.71,0-1.29.58-1.3,1.29v5.44c-.01.71.55,1.29,1.26,1.3h1.43c.71,0,1.28-.56,1.29-1.27v-5.47h0ZM1822.72,113.61h-2.88c-.36.03-.67-.24-.7-.6v-.32c0-.36.28-.66.64-.66h2.25c.75.11,1.44-.42,1.55-1.17.01-.08.02-.17.01-.25v-2.66c0-.22-.07-.45-.28-.45-.55,0-1.06,1-2.48,1h-.34c-1.45-.02-2.62-1.21-2.62-2.66v-6c0-1.44,1.17-2.61,2.61-2.61h.36c1.32,0,1.89,1.1,2.48,1.1.15,0,.28-.1.35-.23l.3-.54c.11-.16.3-.26.5-.26h.33c.3,0,.54.24.54.54v13.17c-.02,1.43-1.19,2.59-2.62,2.6ZM1823.59,100.32c0-.82-.66-1.48-1.48-1.48h-1.01c-.81,0-1.47.67-1.46,1.48h0v5.07c0,.8.66,1.45,1.46,1.46h1c.81.01,1.48-.64,1.49-1.45h0v-5.08h0ZM1829.86,95.21h-.37c-.39,0-.7-.3-.71-.69v-1.27c0-.39.3-.7.69-.71h.35c.39,0,.7.32.7.71v1.29c0,.37-.29.68-.66.71v-.04h0ZM1829.86,108.42h-.37c-.38.01-.7-.29-.71-.67v-9.75c0-.39.31-.7.7-.7h.34c.38,0,.69.32.7.7v9.76c0,.37-.29.68-.66.7v-.04h0ZM1840.15,103.61h-4.35v1.86c-.06.74.48,1.39,1.22,1.45h2.73c.36-.03.67.23.71.59v.33c0,.36-.29.65-.65.65h-3.19c-1.44-.05-2.58-1.24-2.57-2.68v-5.91c.04-1.46,1.25-2.61,2.71-2.59h2.05c1.45,0,2.63,1.15,2.68,2.59v2.28c.09.7-.41,1.34-1.11,1.43-.08,0-.15.01-.23,0h0ZM1839.78,100.17c.01-.7-.55-1.28-1.25-1.29h-1.47c-.7,0-1.26.55-1.27,1.25v2.02h4v-1.98s0,0,0,0Z" fill="#006c66"/>
          <g>
            <path d="M1603.71,84.88c.17-1.28,1.34-2.18,2.61-2.01h.06c.98.09,1.7.96,1.61,1.94-.01.13-.04.26-.08.38-.27,1.1-1.24,1.88-2.37,1.91-2.11.12-2.05-1.15-1.83-2.22h0ZM1590.55,76.33c1,.63,2.49,1,2.9-.07s.76-2.12-1.42-3.92c-.9-.75-2.32.15-2.73,1.25-.41,1.1-.33,1.73,1.25,2.74ZM1658.49,91.61c-1.73-1.92-2.3-2.16-3-1.22-.7.94-.49,3.92.45,4.62.93.71,2.26.54,2.97-.38,0-.01.02-.02.03-.04.6-.97.41-2.23-.45-2.98ZM1658.54,101.5c-2.76,7.35-7.99,13.51-14.8,17.43-1.6.92-3.27,1.71-5,2.36,0,0-3,1.06-3.35,5.75-.29,4.1,2.25,3.53,2.25,3.53-22.71,6.03-46.01-7.5-52.04-30.21-1.91-7.2-1.9-14.78.04-21.98,0,0,.77-2.48,4.18-.18,3.9,2.63,3.3,5.77,3.3,5.77-.3,1.82-.45,3.66-.45,5.51,0,7.85,2.72,15.46,7.7,21.53,1,1,2.3,1.42,5.63.18,4.17-1.55,1.44-5,1.44-5-2.61-3-4.48-6.56-5.47-10.41-.61-2.27-.49-6.33,2.12-7,2.27-.59,5.24,1.6,6.16,5,.39,1.49.99,2.92,1.77,4.24,1.19,1.93,3.3,2.6,6.24,1.52s2.31-3.78,1.12-5.78c-1.22-2.02-.58-4.65,1.44-5.88.03-.02.06-.03.09-.05,2.03-1.16,4.61-.45,5.77,1.57v.02h0c-1.19,2-.53,4.58,1.47,5.77.01,0,.02.01.04.02,2.04,1.19,4.65.5,5.84-1.53.02-.03.04-.07.06-.11,1.14-2,3.27-3.84,5.57-1.92,2.3,1.92,2.88,4.17,1.8,6.16-.76,1.34-1.7,2.57-2.79,3.66-2.52,2.52-2.93,6.18-1.29,7.86,1.89,1.92,5.47,0,7.13-1.67,2.84-2.78,4.99-6.18,6.28-9.94,0,0,1.61-4.08,5-1.25,2.83,2.33,3.11,3.66,2.75,5.03h0ZM1611.54,113.92c-.46-1.08-3.14-2.39-4.22-1.93s-1.59,1.71-1.13,2.79c.52,1.01,1.71,1.49,2.79,1.12,2.57-.53,3.06-.9,2.6-1.98h-.04ZM1633.49,127.4c.05-1.18-.35-2.68-1.51-2.48s-2.21.4-2.69,3.19c-.19,1.15,1.3,1.93,2.46,1.74,1.16-.19,1.63-.58,1.74-2.45h0ZM1635.31,109.03c-.59-.95-1.74-1.4-2.82-1.09-.96.2-1.58,1.13-1.38,2.09.03.13.07.27.13.39.48,1.21,1.85,1.8,3.07,1.32h.02c1.02-.33,2.16-.94.95-2.7h.03ZM1638.17,98.69c.89-.82,1.91-2.13,1.66-3.25s-1.59-2.51-2.66-1.8c-1.14.81-1.78,2.15-1.68,3.55.26,1.12,1.59,2.47,2.65,1.5h.03ZM1615.09,97.79c1.09.34,3-.11,2.89-1.4-.15-1.38-1.01-2.59-2.26-3.2-1.09-.34-2.93.15-2.62,1.54.23,1.19.86,2.72,1.96,3.06h.03Z" fill="#006c66"/>
            <path d="M1656.87,59.48s1.77,1.91-1.92,3.71c-4.23,2.06-6.65,0-6.66,0-1.42-1.17-2.94-2.22-4.54-3.14-6.79-3.93-14.74-5.38-22.49-4.1-1.37.37-2.38,1.28-3,4.79-.75,4.38,3.59,3.73,3.59,3.73,3.9-.76,7.92-.6,11.75.47,2.27.61,5.72,2.74,5,5.34-.63,2.26-4,3.73-7.45,2.81-1.49-.4-3.02-.6-4.56-.59-2.27.07-3.9,1.56-4.44,4.65-.54,3.09,2.12,3.89,4.45,3.85,2.37-.04,4.33,1.84,4.37,4.21v.09c-.01,2.34-1.91,4.22-4.25,4.21h-.01c-1.18,2.01-.52,4.59,1.49,5.78,0,0,.01,0,.02.01,2.04,1.19,4.65.5,5.84-1.53.02-.03.04-.07.06-.11,1.14-2,3.27-3.84,5.57-1.92,2.3,1.92,2.88,4.17,1.8,6.16-.76,1.34-1.7,2.57-2.79,3.66-2.52,2.52-2.93,6.18-1.29,7.86,1.89,1.92,5.47,0,7.13-1.67,2.84-2.78,4.99-6.18,6.28-9.94,0,0,1.61-4.08,5-1.25,2.74,2.27,3,3.6,2.66,5-2.76,7.35-7.99,13.51-14.8,17.43-1.6.92-3.27,1.72-5,2.37,0,0-3,1-3.35,5.74-.29,4.1,2.25,3.53,2.25,3.53,22.69-6.02,36.2-29.3,30.18-51.99-1.92-7.22-5.7-13.81-10.97-19.1l.08-.06h0ZM1629.05,78.05c-1.15.77-2.62.9-3.89.35-1.16-.58-.61-2.43.23-3.21s2.49-.55,3.64-.19c1.37.43.87,2.27.02,3.05ZM1642.65,75.15c-.56.8-1.65.99-2.45.44-.11-.08-.22-.17-.31-.28-.81-.78-1.01-2.01-.48-3,.94-1.9,2-1.24,2.83-.49,1.03.77,1.24,2.23.46,3.26-.02.02-.03.05-.05.07h0ZM1656.23,64.7c1.66-.86,2.25-.62,3,.29s.82,2.58-.28,3c-2.64,1-3.36.18-4.1-.73-.74-.91.34-2.01,1.38-2.56ZM1658.92,94.61c-.7.94-2.02,1.14-2.96.45-.01,0-.02-.02-.04-.03-.94-.7-1.15-3.68-.45-4.62.7-.94,1.28-.7,3,1.22.86.75,1.05,2.01.45,2.98ZM1629.27,128.13c.47-2.79,1.52-3,2.68-3.19s1.56,1.3,1.51,2.48c-.08,1.87-.59,2.25-1.74,2.45s-2.65-.61-2.45-1.76v.02h0ZM1634.27,111.75c1.06-.33,2.17-.94,1-2.7-.58-.95-1.71-1.4-2.78-1.11-.96.2-1.58,1.13-1.38,2.09.03.13.07.27.13.39.49,1.2,1.85,1.78,3.05,1.31l-.02.02ZM1638.12,98.75c.89-.82,1.91-2.13,1.66-3.25s-1.59-2.51-2.66-1.8c-1.1.81-1.72,2.12-1.63,3.49.26,1.12,1.59,2.47,2.65,1.5l-.02.06h0ZM1612.72,60.91c-.8,2.46-.72,3.07.44,3.21,1.16.14,3.64-1.53,3.78-2.69.15-1.16-.66-2.21-1.82-2.37h-.03c-1.14-.05-2.14.74-2.37,1.85Z" fill="#00b1ea"/>
            <path d="M1642.24,71.82c1.03.77,1.24,2.23.46,3.26-.02.02-.03.05-.05.07-.56.8-1.65.99-2.45.44-.11-.08-.22-.17-.31-.28-.81-.78-1.01-2.01-.48-3,.94-1.9,2.02-1.24,2.83-.49h0ZM1607.36,111.99c-1.08.46-1.59,1.71-1.13,2.79.52,1.01,1.71,1.49,2.79,1.12,2.53-.53,3-.9,2.56-2-.44-1.1-3.09-2.37-4.22-1.91h0ZM1659.22,64.99c-.74-.91-1.33-1.15-3-.29-1,.55-2.14,1.64-1.39,2.55s1.46,1.71,4.1.73c1.11-.37,1.04-2.09.29-2.99ZM1654.95,63.19c-4.23,2.06-6.65,0-6.66,0-1.42-1.17-2.94-2.22-4.54-3.14-6.79-3.93-14.74-5.38-22.49-4.1-1.37.37-2.38,1.28-3,4.79-.75,4.38,3.59,3.73,3.59,3.73,3.9-.76,7.92-.6,11.75.47,2.27.61,5.72,2.74,5,5.34-.63,2.26-4,3.73-7.45,2.81-1.49-.4-3.02-.6-4.56-.59-2.27.07-3.9,1.56-4.44,4.65-.54,3.09,2.12,3.89,4.45,3.85,2.37-.04,4.33,1.84,4.37,4.21v.09c-.01,2.34-1.91,4.22-4.25,4.21h-.01c-1.15-2.03-3.73-2.75-5.76-1.6h-.02c-2.02,1.22-2.68,3.85-1.45,5.88,0,0,0,.02.01.02,1.19,2,1.69,4.75-1.12,5.78-2.81,1.03-5.05.41-6.24-1.52-.78-1.32-1.38-2.75-1.77-4.24-.92-3.45-3.89-5.64-6.16-5-2.61.68-2.73,4.74-2.12,7,.98,3.83,2.83,7.38,5.41,10.37,0,0,2.73,3.43-1.44,5-3.33,1.24-4.62.82-5.63-.18-4.98-6.07-7.71-13.68-7.7-21.53,0-1.85.15-3.69.45-5.51,0,0,.6-3.14-3.3-5.77-3.41-2.3-4.18.18-4.18.18,6.12-22.67,29.46-36.08,52.13-29.95,7.21,1.95,13.78,5.76,19.04,11.05h0s1.78,1.89-1.91,3.69h0s0,.01,0,.01ZM1592.03,72.34c-.9-.75-2.32.15-2.73,1.25-.41,1.1-.33,1.73,1.25,2.74,1,.63,2.49,1,2.9-.07s.76-2.12-1.42-3.92ZM1606.38,82.86c-1.27-.2-2.46.67-2.66,1.94v.06c-.25,1.08-.28,2.35,1.83,2.21,1.13-.03,2.1-.81,2.37-1.91.29-.94-.23-1.94-1.17-2.23-.12-.04-.24-.06-.36-.07,0,0,0,0,0,0ZM1613.16,64.12c1.17.15,3.64-1.53,3.78-2.69.15-1.16-.66-2.21-1.82-2.37h-.03c-1.14-.05-2.14.73-2.37,1.85-.8,2.46-.72,3.07.44,3.21ZM1617.95,96.39c-.15-1.38-1.01-2.59-2.26-3.2-1.09-.34-2.93.15-2.62,1.54.26,1.19.89,2.72,2,3.06,1.11.34,2.96-.11,2.88-1.4h0ZM1625.39,75.19c-.84.78-1.39,2.63-.23,3.21,1.27.55,2.74.42,3.89-.35.85-.78,1.35-2.62,0-3-1.17-.44-2.82-.64-3.66.14Z" fill="#c6d325"/>
          </g>
          <rect x="1569.67" y="46.95" width=".77" height="85.04" fill="#006c66"/>
          <path d="M1513.36,46.96c-23.48,0-42.52,19.04-42.52,42.52s19.04,42.52,42.52,42.52,42.52-19.04,42.52-42.52h0c-.03-23.48-19.05-42.49-42.52-42.52ZM1513.36,130.81c-22.83,0-41.34-18.5-41.35-41.33-.01-22.83,18.5-41.34,41.33-41.35,22.83,0,41.34,18.5,41.35,41.33h0c-.02,22.83-18.51,41.32-41.33,41.35ZM1538.3,86.23c-.58-1.24-.18-2-.36-2.94-.5-1.49-1.08-2.94-1.74-4.37-.3-.71,1.52-.53.18-3.11,0-.07,1.87-.78,0-2.23-.95-.75-1.77-1.67-2.41-2.7-.12-.15-.12-.37,0-.52,1.08-1,1.11-2.34-.07-3-.84-.51-1.81,0-2.71.59-.29.19-.44.3-.74.18-.27-.15-.52-.33-.76-.52.71-.56,1.15-1.39,1.23-2.29-1.37-.37-2.83-.23-4.11.4l-.16-.11c.59-.81.72-1.87.34-2.8h0c1.46-1.98,3.14-3.79,5-5.4h0c.11-.11.15-.23-.06-.36s-.22-.13-.43-.25c-18.08-10-40.84-3.45-50.84,14.62-3.06,5.52-4.66,11.73-4.68,18.05.15,12.17,6.09,23.54,16,30.61.35.26.72.48,1.12.66.15.08.33.05.44-.08l.14-.19c.08-.09.13-.21.13-.34,0-.28-.39-.52-.85-1.21-1.23-1.81-1.9-3.94-1.93-6.13-.02-1.99.62-3.94,1.84-5.52,1.49,1.55,4.74,4.41,4.67,7-.08,2.92-2.81,2.78-2.22,5,.37,1.37,1.4.81,1.57,1.85.31,1.8,2.74,3,3.8,2.8.25,0,.47.17,1,.69.72.73,2.5.63,3.29.49s1.69.55,3.26.37c2-.21,2.46-.36,3.29-.38,4.88-.11,9.76.13,14.61.73,1,.14,1.25-.28.82-1-1.91-3.01-2.32-6.74-1.11-10.1,2,.14,4.93.69,8.77-1.62,1.3-.85,2.07-2.3,2.05-3.85-.19-.9-.26-1.82-.19-2.73.29-1.1.5-1.08.82-1.3,1.47-1,.41-1.85.18-1.93.63-.38.82-1.2.44-1.83,0-.01-.01-.02-.02-.03-.26-.28-1.06-2.52-.14-3s2.12-.72,3.26-1.22c.95-.38,1.4-1.46,1.02-2.41,0-.02-.01-.03-.02-.05-.63-1.47-3.62-8.33-3.72-8.52h0ZM1497.05,119.5c-.29,0-1.21.09-1-1.12.12-.74.93-1,1.34-.63-.09.58-.28,1.14-.34,1.75ZM1532.28,68.5c.48-.3,1-.43,1.31-.13,1.06,1-1.16,1.64-.7,2.44.78,1.31,1.8,2.47,3,3.41.5.39.57,1.25-1.34,1.65-1.91.4-9.57,2.41-13.61,6.69-5,5.35-8.26,12.28-8.7,11.33s-1.45-1.12-1.29-1.39c7.28-12.51,18.65-22.33,21.33-24.01h0s0,0,0,0ZM1535.6,77.29c-.41,1.19-3.71,2.25-3.55,1.42.07-.38,0-.88.26-.92s1.4-.43,3-.84c.18-.06.4.04.29.33h0ZM1527.25,79.47c-.09-.49,3.45-1.68,3.58-1.33.22.65-.73,2.4-1.92,2.83-1.35.5-1.91.35-1.86.16.16-.54.22-1.11.2-1.67h0s0,0,0,0ZM1519.03,97.94c-1.63,1-2.52-.91-2.75-1.25-.25-.38-.33-.84-.21-1.28.17-1.26.12-2.53-.17-3.77-.16-1.07,2-3.73,2.55-4.19s1.27.24,1.32,1c.05,1.19-.56,2.32-1.6,2.91-1.05.78-1.25,1.8-1.05,2.07.08.1.55.11.76-.33.63-1.35,2.43-2,2.72-2.73.27-.72.3-1.52.08-2.26,0-.41.35-.51.65-.46s.55.57.75,1.08c1.16,3-1.77,4.88-2.24,5.6-.22.36.45,2.83-.81,3.61ZM1521.49,86.15c-.87.59-2.13-.21-1.88-.57,1.26-1.76,2.84-3.27,4.65-4.46,1.39-.87,1.54-.93,1.61-.44.06,1.1-.33,2.18-1.06,3-.62.63-1.46.99-2.34,1-.33.15-.32,1.01-.98,1.47ZM1513.69,96.53c-.4-.09-.55-.88-.47-1.18.42-.94.97-1.82,1.62-2.61.1-.13.29,0,.31.14.22,1.65,0,3.97-1.47,3.65h0ZM1526.69,66.53c.94-.42,1.97-.64,3-.65.33,0-.74,1.95-2.65,2.77-1.12.57-2.35.88-3.61.91-.2-.15,1.72-2.35,3.28-3.06l-.02.03ZM1492.98,98.16c-.31-.42-.71-.77-1.18-1-.73,1.09-1.23,2.32-1.44,3.62-1.85-3.49-2.88-7.36-3-11.31-.59-14.33,11.42-25.86,26.07-25.86,3.12,0,6.2.65,9.06,1.88-.62.82-1.13,1.73-1.49,2.69,0-.77-.22-1.38-.16-1.86,0-.3-2.08.35-3.95,3.34-.41.67-.71,1.4-.88,2.16.03-.69-.1-1.37-.38-2-1.57.69-2.8,1.96-3.44,3.55-.19.45-.34.91-.45,1.39,0-.46-.13-.92-.36-1.32-1.61.68-2.86,1.98-3.49,3.61-.22.61-.36,1.24-.4,1.89-.2-.94-.56-1.51-.68-1.36-.77,1-2.28,1.41-3.09,3.89-.17.55-.27,1.12-.27,1.7-.33-.84-.8-1.32-.91-1.3-1.4,1.12-2.4,2.67-2.84,4.41-.13.77-.11,1.56.04,2.33-.49-.6-.9-1.24-1.25-1.93-1.35,1.06-2.21,2.63-2.35,4.34-.02.83.08,1.67.3,2.47-.65-1.17-1.56-1.72-1.66-1.65-1.15,1.22-1.86,2.8-2,4.47-.06.62,0,1.25.2,1.85ZM1522.98,65.9c1.15-1.37,3.11-2.47,3.33-2.33s-.33,2.25-1.59,3.49c-1.01,1.01-2.19,1.84-3.48,2.46-.23,0,.7-2.39,1.74-3.62ZM1519.24,71.18c-.92.7-1.7,1.57-2.28,2.57-.22.36-.76-2,.69-4.3.67-1.02,1.57-1.87,2.63-2.48-.13.56.86,2.64-1.04,4.21ZM1515.14,74.18c-1.37,2-1.45,1.34-3,3.34-.11-1.28.04-2.57.43-3.8.52-1.23,1.4-2.27,2.52-3,.27-.04.8,2.37.05,3.5v-.04h0ZM1510.65,78.26c-.7,1.23-1.34,1-2.51,2.69-.13.2-.44-1.44.26-3.65.44-1.19,1.29-2.19,2.4-2.8.26-.03.69,2.34-.15,3.8v-.04ZM1506.49,82.61c-.72,1.56-1.18,1.61-2,2.59-.15.16-.77-1.49-.17-3.57.42-1.14,1.18-2.12,2.17-2.82.16-.2.75,2.16,0,3.8ZM1503.09,85.29c0,.41-.06.82-.19,1.21-.45,1.24-1.17,2.36-2.11,3.29-.4-.73-.62-1.54-.65-2.37.02-1.73.79-3.38,2.1-4.51.3.01.84,1.3.84,2.4v-.02h.01ZM1499.64,90.47c-.06,1.68-.8,3.26-2.05,4.38-.53-.94-.83-1.99-.89-3.07-.19-1.48.34-2.97,1.43-4,.21.83,1.52,1.38,1.5,2.71v-.02h.01ZM1494.76,93.01c1.1.73,1.73,1.99,1.65,3.31.03,1.49-.66,2.91-1.84,3.82-.39-1.45-1.06-1.76-1.06-3.22.05-1.39.48-2.73,1.24-3.89v-.02h.01ZM1497.72,98.09c1.26-.55,2.64-.76,4-.6-.3,1.39-1.17,2.59-2.39,3.32-1.81,1-3.84,1.06-4,.83.21-1.48,1.09-2.78,2.38-3.53v-.02h.01ZM1497.59,96.72c.49-1.45,1.51-2.67,2.86-3.39h0c1.2-.52,2.5-.72,3.8-.59.22.09-.69,2.26-2.36,3.06-1.88.91-2.62.39-4.31.94v-.02s.01,0,.01,0ZM1500.38,91.94c.07-.18,1.42-2.61,3-3.35,1.13-.48,2.37-.67,3.6-.54-.39,1.33-1.3,2.44-2.52,3.08-1.78.9-4.17,1.02-4.09.83v-.02s.01,0,.01,0ZM1504,87.1c.82-1.38,1.99-2.53,3.38-3.34,1.07-.46,2.25-.6,3.4-.41-.37,1.34-1.33,2.44-2.6,3-1.32.57-2.75.84-4.19.77v-.02h0ZM1508.34,82.32c.62-1.36,1.68-2.48,3-3.18,1.18-.33,2.42-.33,3.6,0,.38,0-.54,1.84-2.69,2.63-1.24.49-2.59.69-3.92.57v-.02h.01ZM1513.21,77.7c.8-1.28,1.94-2.32,3.29-3,1.21-.35,2.49-.38,3.71-.09.21.09-1.12,2.06-3.14,2.67-1.24.42-2.56.57-3.87.44v-.02h.01ZM1518.13,73.7c-.21-.15,1.73-2.32,3.3-2.92,1.07-.4,2.22-.54,3.35-.41-.57,1.24-1.6,2.21-2.87,2.72-1.19.54-2.49.77-3.79.65v-.04h.01ZM1491.27,117.96c-8.75-6.88-13.9-17.36-14-28.49.02-19.98,16.23-36.17,36.21-36.15,5.85,0,11.61,1.43,16.79,4.15.07.05.1.15.05.22-.01.02-.03.04-.05.05-1.49,1.43-2.87,2.97-4.12,4.62-3.97-1.87-8.3-2.83-12.69-2.82-16.57,0-30,13.43-30,30-.07,7.17,2.5,14.12,7.22,19.52-.5,1.21-.76,2.51-.75,3.82,0,1.78.46,3.53,1.34,5.08ZM1491.33,107.9h0c-4.37-5.14-6.73-11.69-6.66-18.44.03-15.89,12.9-28.76,28.79-28.78,4.14-.02,8.24.87,12,2.6-.59.26-1.14.6-1.65,1-3.26-1.39-6.78-2.09-10.33-2.06-15.02,0-27.2,12.18-27.22,27.2-.09,6.2,2.04,12.23,6,17l-.93,1.48ZM1492.76,105.61c-.98-.88-1.61-2.08-1.78-3.38v-.24c.02-1.28.36-2.54,1-3.65.2-.19,2.16,1.34,2.19,3.53,0,1.37-.51,2.7-1.41,3.74ZM1496.01,102.69c1.19-.51,2.5-.67,3.77-.46-.13.1-.75,2.37-2.51,3.25-1.08.61-2.35.8-3.56.53.95-1.01.75-2.55,2.3-3.29v-.03ZM1498.12,121.5c-.28-.97-.2-2.01.21-2.93.7-.34,2-.48,2-.07-.22,1.38-.17,2.78.12,4.14-.12.34-1.86.2-2.33-1.11v-.03ZM1498.24,117.03c-.14-.81.63-1.58.62-3.33,0-2.15-2.67-5.1-4.47-7,1.11-.02,2.2-.27,3.2-.74,1.64-.86,2.84-2.39,3.27-4.2-.49-.15-1.01-.2-1.52-.15l.3-.15c1.69-.94,2.86-2.59,3.17-4.5-.53-.1-1.07-.14-1.61-.11.26-.08.52-.18.79-.29,1.79-.77,3.08-2.37,3.44-4.28-.46-.12-.93-.18-1.4-.17.25-.1.5-.21.75-.33,1.66-.83,2.86-2.36,3.27-4.17-.43-.11-.87-.16-1.31-.15.64-.15,1.26-.37,1.85-.64,1.7-.69,2.98-2.13,3.47-3.89-.39-.13-.79-.21-1.2-.23.6-.13,1.18-.3,1.76-.5,1.68-.54,3.01-1.83,3.6-3.49-.36,0-.86-.21-1.51-.32.9-.06,1.79-.24,2.65-.54,2.89-1,3.91-2.72,4-3.48-.28-.17-.59-.28-.91-.32.64-.1,1.27-.27,1.87-.51,1.76-.79,3.16-2.22,3.92-4,.54-.17,1.06-.37,1.57-.61.27-.12.53-.25.78-.4.13.1.34.25.66.45.32.2.55.33.35.5-7.44,6.56-13.89,14.16-19.15,22.56-.08.13-.24.11-.5.09-3.22-.21-5,3.62-3.6,7.22-.46.86-1.08,1.63-1.83,2.26-.11.1-.42.55.1.5.75-.06,1.72-1.27,2.17-1.81.2.24.9.83.56,1.16-1.68,1.67-3.58,3.09-5.65,4.23-1,.5,1.7.85,6.36-3.36.28-.25.6,1,1,1.49-.8,2.64,1.17,7.74.86,9.34-.04.61-.54,1.08-1.15,1.09-4.61.09-5.07-.12-7.42.57-1.09.33-.8,1,0,.83s1.85-.61,6.85-.29c1.22.07,2.61-.25,2.62-2.31,0-1.87-1.48-7.45-1-8.21.4.32.88.51,1.39.56-.06,1.82,2.86,7.7,1.56,10.94-.48,1.2-2.61,1.11-6.25.75-6.15-.63-8.15.71-8.28-.03,0,0,0-.03,0-.03ZM1512.46,121.03c-1.18.43-2.48-.18-2.91-1.36-.14-.39-.17-.81-.09-1.22.24-.37,1.76.41,2.95-.35.94-.57,1.44,2.51.05,2.95v-.02ZM1501.53,122.81c-.34-1.49-.47-4.07.14-4.65.13-.11,2-.38,2,0-.15,1.78-.86,3.76.49,5.74.43.79-2.18.91-2.63-1.09ZM1506.12,124.51c-.65-.16-2.43-3-1-6.39.15-.35,2.38-.13,2.75,0s-.3,2.78,2.76,4c.33.06-.04,3.49-4.51,2.39ZM1525.25,115.05c-1,3.58-1.55,5,0,8.89.21.52.36.91-.09.83-3.13-.54-3.8-1-13.63-.22-.7.06.23-1.37.12-2.34,1.22-.02,2.28-.83,2.63-2,.37-1.77-.86-3.07-.73-3.32,1.39-2.72-.09-5.73-1.27-10.77-.11-.48.16-.68.37-.46,6.31,6.83,10.33,8.19,12.51,8.83.21.12.17.32.09.56ZM1541.39,96.39c-1.32,1.17-3.34,1.26-4.16,2-.43.39-.62,1-.16,2.09.26.63.45.71-.46,1-1.47.39-1.67,2.32-3.54,2-.75-.14-.21.34.06.36.68.14,1.38-.06,1.87-.55.41-.48.9-.89,1.45-1.2.59-.23,1.19-.21,1.2.23s-.74.88-1,1c.38.2,1.55.79.55,1.47-.78.53-1.85-.2-2-.29-.15-.09-.68-.07-.53.11.58.7,2.13.52,1.85.89-1.43,1.93-.26,3.05-.7,5s-3.13,3-5.19,3.41c-7.04,1.22-13.92-4.76-17.93-9.3.36-.86.32-2,0-1.58s-.29,1-1.12,1.21c-1.62.41-2.31-2.39-2.81-2.88-2.01-1.73-2.65-4.58-1.56-7,.51-1.34,2.01-2.01,3.34-1.5.52.2.97.56,1.27,1.04,1.22,1.8.66,2.82,1.35,3.36.67.44,1.54.44,2.21,0,.74-.2.68,1.75,3.21,1.66,2.72-.09,2.41-4.32,2.79-4.7,3.49-3.4,1.71-6.43,1.08-7.14-.17-.18.38-1.43.59-1.48,1.71-.35,3.15-1.53,3.83-3.14,0,0,3.4-.06,4.61-2.51.32-.65,1.32.63,3.59-1.15.14-.14.37-.15.51-.01.04.04.07.09.09.14,1.46,3.58,2.07,4.56,2,6.39-.08,1.33,3.54,8.69,3.8,9.33s.25,1.44-.09,1.74ZM1533.21,83.39c-2,.07-4.28,2.5-5,2.83s-.51.58,0,.41c1-.36,2.39-1.86,4.33-2.56,1.53-.56,1.43.7,2,.63.2,0-.19-1.32-1.33-1.28v-.03ZM1533.66,85.33c-.17,0,.17.88-.69.94-1.86.11-3.34,1.87-4.47,2.4-.48.26-1,.45-1.54.57-.15,0-.09.23,0,.25,4.75.63,6.57.46,6.61.29.08-.33-.27-.49-.19-.7.21-.72.23-1.49.06-2.22-.09-.32.7-.11.7-.55.03-.2-.21-1.02-.48-.95v-.03h0ZM1532.93,89.08c-.09.37-2.21.2-3.37.1-.27,0-.73-.07.15-.59.87-.62,1.85-1.07,2.88-1.32.16-.03.31.06.35.22v.02c.11.53.11,1.07-.01,1.6v-.03ZM1539.12,95.83c-.83.22-1.63.55-2.37,1-.32.2-1.8,1.11-1.7-.33,0-.51.37-1.77.36-2.12,0-.52-.43-.31-.44,0-.04.75-.15,1.5-.31,2.23-.14.53.17,1.08.71,1.22.27.07.55.03.78-.11.9-.59,1.89-1.06,2.92-1.38.26-.09.3-.47.05-.48v-.03h0ZM1511.64,101.05c-.28-.11-.21.47-.59.41s-.08-.53-.72-1.22c-.33-.34-1.13-.48-1.73-1.44-1-1.51-.14-4.88,1.25-4.4.76.27.63,2.06.4,3.27-.14.74,1,1.11,1.12.85.18-.44-.42-.39-.56-.79-.22-.62,1.42-3.12-.72-3.79-1.55-.52-2.58,1.44-2.39,3.61.06,1.28.87,2.4,2.07,2.85.94.34.23,1.63,1.49,1.64.56,0,.68-.88.38-.99ZM1524,60.48c.06.05.13.05.19,0l2.64-3.33c.05-.08.03-.19-.05-.25,0,0-.01,0-.02,0l-.45-.18c-.07-.02-.14,0-.19.05l-2.63,3.3c-.06.07-.05.17.01.23.02.02.04.03.06.03l.44.16ZM1519.11,59.12l.46.09c.08.02.16-.02.18-.1l1.55-3.81c.04-.09,0-.19-.09-.22h-.03l-.51-.11s-.1,0-.11.06c-.2.49-1.27,3.15-1.57,3.88-.03.08,0,.18.08.21.01,0,.02,0,.04,0h0s0,0,0,0ZM1513.68,58.61h.46c.09,0,.16-.06.17-.15h0l.38-4.05c.01-.09-.05-.17-.14-.18h-.49c-.08,0-.15.07-.16.15l-.41,4.03c-.02.08.02.17.11.2h.08ZM1508.4,59.01l.45-.07c.09,0,.16-.1.14-.19h0l-.77-4c-.01-.09-.1-.15-.18-.13h0l-.46.07c-.09,0-.15.1-.13.18h0l.77,4c.03.08.11.13.19.12v.02h0ZM1503.01,60.24c.04.07.12.11.2.08l.43-.15c.09-.03.14-.13.11-.22h0s-1.83-3.68-1.83-3.68c-.04-.07-.12-.11-.2-.08l-.44.16c-.08.03-.13.12-.1.2,0,0,0,.02.01.03l1.83,3.66h-.01ZM1498.01,62.57c.06.05.14.05.2,0l.41-.22c.07-.06.08-.17.02-.24,0,0-.01,0-.02-.02l-2.73-3.11c-.06-.05-.15-.05-.21,0l-.4.24c-.07.06-.08.17-.02.24,0,0,.01,0,.02.02l2.73,3.09ZM1493.29,65.86c.06.04.13.04.19,0l.37-.31c.07-.05.09-.15.04-.22-.01-.01-.02-.03-.04-.04l-3.45-2.4c-.06-.05-.15-.05-.21,0l-.36.32c-.07.06-.08.16-.03.22,0,0,.02.02.03.03l3.46,2.4ZM1489.2,70.06c.07.03.15.01.19-.05.1-.12.2-.25.31-.37.06-.07.05-.17-.01-.23-.02-.02-.04-.03-.06-.03l-4-1.55c-.07-.02-.14,0-.19.05l-.3.39c-.05.07-.04.17.03.22.02.01.03.02.05.03l3.98,1.54ZM1481.69,74.41l4.26.59c.07.01.14-.02.17-.08l.24-.44c.04-.09,0-.19-.08-.23-.02,0-.03-.01-.05-.01l-4.28-.63c-.07-.02-.14.02-.17.09l-.21.43c-.06.07-.05.18.02.24.03.02.06.04.1.04ZM1479.36,80.86l4.35-.41c.07,0,.12-.06.14-.12l.15-.47c.03-.09-.02-.18-.11-.21h-.06l-4.34.42c-.07,0-.13.05-.15.12l-.12.48c-.02.09.03.17.11.2,0,0,.02,0,.03,0h0ZM1482.66,86.03l.06-.51c0-.09-.06-.18-.15-.19h-.07l-4.23,1.48c-.06.02-.11.07-.11.14v.5c0,.09.06.16.15.17.02,0,.05,0,.07-.01l4.2-1.46s.08-.08.08-.12h0ZM1482.55,91.81v-.53c0-.09-.09-.16-.18-.16-.03,0-.05.01-.08.03l-3.83,2.52c-.05.04-.08.1-.07.16,0,.17,0,.34.07.51.01.09.09.15.18.14.03,0,.05-.01.07-.03l3.8-2.5s.06-.09.04-.14ZM1483.49,97.61c0-.17-.09-.35-.13-.53-.02-.09-.1-.14-.19-.12-.04,0-.07.03-.09.05l-3.1,3.4c-.03.05-.03.12,0,.17l.18.49c.03.09.13.13.22.1.02,0,.04-.02.06-.04l3.05-3.39s.02-.09,0-.13ZM1485.09,102.74l-2.2,4.19s-.03.11,0,.16c.09.15.18.31.28.46.05.08.15.11.23.06.02-.01.04-.03.06-.06l2.17-4.14s.03-.1,0-.15l-.25-.51c-.03-.08-.13-.12-.21-.08-.02,0-.04.03-.06.04,0,0-.02.03-.02.03ZM1488.18,107.44c-.06-.07-.17-.08-.24-.02-.02.02-.04.05-.05.08l-1.18,4.86s-.02.1,0,.15l.37.42c.06.07.16.08.23.02.03-.02.05-.06.05-.09l1.16-4.8s.02-.1,0-.14c0,0-.34-.48-.34-.48Z" fill="#006c66"/>
        </g>
      </g>
    </g>
  </g>
  <g id="s-sheep">
    <rect id="ph-s-sheep-headphones" x="19" y="21" width="80" height="80" fill="#b8846e"/>
    <rect id="ph-s-sheep-sheep" x="864" y="351" width="192" height="192" fill="#4ae5d9" isolation="isolate" opacity=".6"/>
    <image id="link-s-sheep-headphones" transform="translate(28 30) scale(.76)" xlink:href="assets/headphones.svg" isolation="isolate"/>
    <image id="link-s-sheep-sheep" width="80" height="76" transform="translate(920 365)" xlink:href="assets/sheep.svg" isolation="isolate"/>
    <rect id="ph-s-sheep-no" x="1246" y="730" width="90" height="90" fill="#4ae5d9" isolation="isolate" opacity=".6"/>
    <image id="link-s-sheep-no" transform="translate(1261 745) scale(.68)" xlink:href="assets/no.svg" isolation="isolate"/>
    <rect id="ph-s-sheep-yes" x="584" y="730" width="90" height="90" fill="#4ae5d9" isolation="isolate" opacity=".6"/>
    <image id="link-s-sheep-yes" transform="translate(597 743) scale(.71)" xlink:href="assets/yes.svg" isolation="isolate"/>
  </g>
  <g id="s-pig">
    <rect id="ph-s-pig-headphones" x="19" y="21" width="80" height="80" fill="#b8846e"/>
    <rect id="ph-s-pig-pig" x="855.5" y="329" width="209" height="209" fill="#4ae5d9" isolation="isolate" opacity=".6"/>
    <rect id="ph-s-pig-yes" x="584" y="730" width="90" height="90" fill="#4ae5d9" isolation="isolate" opacity=".6"/>
    <rect id="ph-s-pig-no" x="1246" y="730" width="90" height="90" fill="#4ae5d9" isolation="isolate" opacity=".6"/>
    <image id="link-s-pig-headphones" transform="translate(28 30) scale(.76)" xlink:href="assets/headphones.svg" isolation="isolate"/>
    <image id="link-s-pig-pig" width="94" height="67" transform="translate(903 344)" xlink:href="assets/pig.svg" isolation="isolate"/>
    <image id="link-s-pig-no" transform="translate(1261 745) scale(.68)" xlink:href="assets/no.svg" isolation="isolate"/>
    <image id="link-s-pig-yes" transform="translate(597 743) scale(.71)" xlink:href="assets/yes.svg" isolation="isolate"/>
  </g>
  <g id="s-cow">
    <rect id="ph-s-cow-headphones" x="19" y="21" width="80" height="80" fill="#b8846e"/>
    <rect id="ph-s-cow-cow" x="828" y="258" width="274" height="274" fill="#4ae5d9" isolation="isolate" opacity=".6"/>
    <rect id="ph-s-cow-yes" x="584" y="730" width="90" height="90" fill="#4ae5d9" isolation="isolate" opacity=".6"/>
    <rect id="ph-s-cow-no" x="1246" y="730" width="90" height="90" fill="#4ae5d9" isolation="isolate" opacity=".6"/>
    <image id="link-s-cow-headphones" transform="translate(28 30) scale(.76)" xlink:href="assets/headphones.svg" isolation="isolate"/>
    <image id="link-s-cow-cow" width="116" height="76" transform="translate(907 292)" xlink:href="assets/cow.svg" isolation="isolate"/>
    <image id="link-s-cow-no" transform="translate(1261 745) scale(.68)" xlink:href="assets/no.svg" isolation="isolate"/>
    <image id="link-s-cow-yes" transform="translate(597 743) scale(.71)" xlink:href="assets/yes.svg" isolation="isolate"/>
  </g>
  <g id="s-introduction">
    <rect id="ph-si-headphones" x="19" y="21" width="80" height="80" fill="#b8846e"/>
    <image id="link-si-headphones" transform="translate(28 30) scale(.76)" xlink:href="assets/headphones.svg" isolation="isolate"/>
    <rect id="ph-si-next" x="1815" y="981" width="80" height="80" fill="#b8846e"/>
    <image id="link-si-next" width="80" height="81" transform="translate(1815 981) scale(1 .99)" xlink:href="assets/next.svg" isolation="isolate"/>
    <rect id="ph-si-matt-logo" x="1507" y="-17" width="430" height="430" fill="#aaa"/>
    <image id="link-si-matt-logo" width="430" height="431" transform="translate(1602 74) scale(.57)" xlink:href="assets/matt-logo.svg" isolation="isolate"/>
    <rect id="ph-si-speaker" x="920" y="945" width="80" height="80" fill="#b8846e"/>
    <image id="link-si-speaker" width="80" height="81" transform="translate(938 967) scale(.55)" xlink:href="assets/speaker.svg" isolation="isolate"/>
    <rect id="text-introAdult" x="401" y="142.28" width="1118" height="805.43" fill="#fbb03b" isolation="isolate" opacity=".5" stroke="#000" stroke-miterlimit="10" stroke-width="2"/>
    <rect id="text-introChild" x="401" y="142.28" width="1118" height="805.43" fill="#fbb03b" isolation="isolate" opacity=".5" stroke="#000" stroke-miterlimit="10" stroke-width="2"/>
    <rect id="text-beginning" x="140" y="35" width="765.98" height="110" fill="#fbb03b" isolation="isolate" opacity=".5" stroke="#000" stroke-miterlimit="10" stroke-width="2"/>
  </g>
  <g id="s-blocking-state">
    <rect id="s-bs" width="1920" height="1080" fill="#fff" isolation="isolate" opacity=".75"/>
    <rect id="ph-ccp-orb" x="845" y="425" width="230" height="230" fill="#aaa"/>
    <image id="link-ccp-orb" width="172" height="172" transform="translate(874 454)" xlink:href="assets/ccp-orb.svg" isolation="isolate"/>
  </g>
</svg>