<?xml version="1.0" encoding="UTF-8"?><svg id="b" xmlns="http://www.w3.org/2000/svg" viewBox="0 0 92.59 66.05"><g id="c"><g id="d"><g id="e"><path d="M.39,12.27l-.04,.03s-.04,.06-.05,.1c-.02,.04-.02,.08-.04,.13l-.02,.06c-.02,.07-.04,.15-.06,.22-.03,.09-.05,.2-.06,.3-.01,.05-.02,.11-.03,.17-.02,.14,0,.29,.04,.46,.02,.05,.03,.13,.06,.18l.02,.02s.02,.07,.03,.1c.04,.08,.08,.17,.12,.23l.03,.03c.05,.13,.12,.23,.21,.32-.06,.08-.11,.17-.17,.25l-.04,.03c-.06,.08-.1,.15-.12,.21-.04,.07-.08,.17-.1,.26-.04,.15-.06,.3-.1,.44v.03c-.02,.08-.04,.18-.05,.28-.01,.06-.01,.14-.01,.23,0,.19,.01,.38,.04,.53,.03,.16,.08,.34,.15,.55,.05,.15,.13,.3,.2,.45l.03,.04s.02,.05,.03,.07c.02,.04,.06,.1,.09,.17,.05,.06,.1,.14,.13,.2l.33,.39c.1,.13,.25,.23,.41,.34l.05,.03s.09,.06,.15,.1c.05,.03,.11,.07,.18,.11v.02s.1,.04,.14,.07c.1,.05,.2,.11,.29,.17,.24,.11,.43,.21,.64,.27,.1,.04,.2,.06,.29,.08,.02,0,.04,.02,.06,.01,.02,0,.05,.01,.08,.03,.05,.01,.1,.03,.18,.04h.03s.08,.02,.13,.03h.23s.04-.01,.06,0c.02,0,.04-.01,.05-.02l.03-.03s.01-.06,0-.1l-.02-.02v-.03c.07-.18,.14-.38,.23-.58,.07-.2,.15-.41,.25-.6,.02-.04,.03-.07,.05-.11h-.02c.05-.02,.1-.04,.17-.07l.03-.03c.05-.05,.07-.14,.04-.2-.04-.07-.13-.1-.22-.07l-.02,.02c-.05,.02-.11,.04-.17,.06-.09,.03-.21,.05-.31,.05h-.21l-.11-.02h-.11c-.13-.03-.29-.05-.42-.06-.28-.05-.53-.14-.78-.25-.21-.1-.41-.23-.59-.38-.16-.14-.3-.29-.43-.45l-.06-.08c-.1-.13-.23-.24-.32-.39-.08-.13-.14-.25-.2-.38-.02-.05-.03-.13-.04-.18-.01-.05-.02-.14-.03-.21,0-.15,0-.27,.02-.39,.03-.16,.06-.27,.11-.39,.03-.07,.07-.13,.11-.2,.1,.09,.2,.17,.29,.23,.06,.04,.13,.07,.2,.09,.06,.02,.12,.03,.18,.04,.11,.02,.22,0,.32-.01,.12-.01,.26-.07,.38-.18,.11-.09,.18-.23,.19-.37,0-.06,0-.11-.02-.17-.02-.1-.06-.21-.13-.28l-.1-.11s-.09-.08-.15-.11c-.05-.03-.11-.05-.17-.08-.08-.03-.17-.05-.3-.06h-.18c-.09,0-.18,.04-.22,.06-.09,.04-.19,.09-.29,.18l-.12,.1v-.02c-.04-.05-.08-.1-.11-.17-.03-.04-.06-.1-.09-.16v-.02l-.03-.04s-.06-.1-.07-.16c-.02-.06-.05-.13-.06-.18-.02-.09-.04-.17-.05-.24,0-.11,.01-.24,.02-.36,.02-.11,.02-.2,.03-.28,.02-.11,.05-.23,.09-.32h.02s.06-.09,.04-.14c-.02-.07-.08-.11-.14-.09-.04,0-.06,.02-.08,.04l-.02,.06v.04Zm1.68,2.69h-.02s-.04,.05-.07,.04c-.03,.01-.05,.02-.08,.01-.02,.01-.04,0-.05,0-.08,0-.14,0-.23-.01-.03,0-.07-.02-.11-.04-.07-.04-.14-.09-.21-.15-.03-.03-.07-.06-.09-.08,.05-.05,.09-.11,.14-.15h.02c.05-.05,.1-.07,.13-.08,.02,0,.05-.02,.09-.02h.17c.06,.01,.11,.02,.17,.05,.04,.02,.07,.04,.11,.07l.05,.05s.02,.04,.03,.07c.01,.03,0,.06,.01,.08v.03s-.02,.03-.03,.05l-.04,.03v.03h.01Z" fill="#f8c9b8"/><path d="M.86,14.36s-.05,.11-.01,.17c.03,.04,.11,.05,.17,.01,.05-.05,.1-.1,.18-.15,.08-.05,.19-.09,.27-.11,.09-.04,.18-.06,.28-.07h.16c.05,.01,.1,.02,.14,.04,.03,.02,.06,.04,.09,.06,.06,.05,.12,.11,.19,.19,.03,.03,.04,.07,.05,.11,0,.02,.01,.04,.02,.07v.13s-.02,.02-.03,.04l-.07,.06s-.07,.03-.1,.05c-.08,.01-.16,.04-.25,.04h-.08c-.12,0-.24,.09-.24,.22,0,.06,.02,.13,.06,.17,.04,.04,.09,.06,.16,.07,.11,.02,.21,.02,.31,0,.09-.01,.2-.04,.27-.08,.07-.04,.17-.09,.23-.17,.04-.03,.06-.08,.09-.14,.05-.08,.08-.17,.08-.26v-.09c0-.05-.01-.11-.02-.17-.03-.09-.07-.2-.13-.29-.06-.08-.12-.15-.21-.22-.08-.07-.17-.11-.27-.16-.06-.02-.13-.03-.2-.04-.06-.01-.12,0-.19,0-.11,0-.24,.05-.34,.1-.1,.04-.2,.1-.29,.16-.04,.03-.08,.05-.11,.08-.05,.05-.11,.09-.16,.16h-.04Z" fill="#f8c9b8"/><path d="M74.59,10.83l-.07,.14v.02h-.01c-.08,.17-.17,.35-.26,.52-.05,.09-.09,.18-.14,.26v.03l-.03,.03c-.05,.08-.1,.17-.13,.24l-.07,.14c-.16,.29-.32,.62-.53,.9-.08,.11-.18,.22-.27,.32-.13,.17-.28,.33-.39,.52l-.04,.1v.03c-.03,.08-.03,.16-.04,.22v.04c-.04,.07-.09,.1-.15,.1h-.02s-.08-.03-.11-.07c-.03-.04-.04-.08-.04-.11v-.03c.01-.09,.02-.2,.06-.29-.1-.42-.21-.78-.33-1.12-.1-.29-.24-.59-.44-.98-.17-.32-.36-.66-.59-1.01-.21-.31-.39-.57-.57-.8-.21-.26-.43-.49-.62-.69-.23-.24-.46-.48-.71-.7-.1-.09-.2-.18-.3-.27l-.06-.05-.11-.09-.07-.02s-.05,0-.09-.01c-.04-.01-.07-.05-.09-.07-.02,0-.02-.02-.02-.03-.02-.03-.05-.06-.08-.09-.02-.05-.05-.09-.04-.15-.02,0-.05,0-.07-.01-.03-.01-.06-.02-.08-.05,.04,.01,.09,.01,.13,0,.05-.02,.09-.06,.1-.11l.03-.08,.06-.17c.03-.08,.07-.15,.11-.22,.06-.1,.12-.2,.2-.29,.01-.04,.04-.06,.07-.09l.13-.19c.12-.17,.27-.32,.44-.52,.08-.09,.18-.19,.27-.28,.09-.09,.2-.19,.28-.26l.06-.04,.05-.05c.11-.09,.22-.2,.32-.29,.07-.06,.13-.11,.22-.18,.04-.04,.1-.07,.13-.11,.04-.04,.09-.07,.13-.11,.07-.06,.16-.13,.23-.18,.11-.09,.23-.18,.34-.26l.04-.04c.12-.08,.26-.2,.39-.29,.12-.09,.24-.18,.36-.27,.24-.18,.52-.38,.8-.57,.24-.14,.44-.25,.65-.35h.02l.06-.03h.03l.06-.03s.09-.04,.14-.06c.03-.01,.05-.02,.06-.03,.17-.07,.34-.14,.49-.17h.09l.03-.02h.03l.34-.11c.09-.02,.21-.05,.33-.06,.12-.01,.24-.01,.35,0,.09,0,.2,.03,.32,.07l.05,.02c.06,.02,.12,.05,.19,.09h.03s.07,.06,.1,.09c.03,.03,.07,.07,.11,.11,.03,.04,.06,.1,.08,.17,.03,.09,.05,.19,.05,.29,0,.09-.03,.2-.05,.29-.06,.24-.14,.49-.21,.72l-.05,.14-.07,.2c-.04,.1-.05,.22-.09,.34-.06,.23-.08,.47-.11,.7-.03,.22-.06,.45-.07,.66v.07c-.03,.27-.06,.53-.11,.78-.04,.22-.09,.43-.14,.63-.02,.06-.03,.13-.04,.18-.1,.43-.25,.91-.45,1.47l-.04,.1c-.19,.52-.36,.98-.56,1.38l.02,.07v-.03Z" fill="#f89fa3"/><path d="M75.5,13.2c.09-.23,.17-.45,.25-.67l.05-.16c.09-.3,.19-.59,.28-.9,.05-.18,.12-.38,.17-.57,.14-.53,.27-1.08,.4-1.7,.04-.22,.09-.45,.12-.67l.03-.17c.02-.06,.02-.11,.04-.18l.04-.24v-.08c.04-.11,.05-.22,.07-.33,0-.05,.01-.1,.03-.16,0-.07,.03-.16,.04-.24v-.09l.06-.3c.04-.15,.07-.28,.09-.43,.02-.13,.06-.26,.08-.39,.01-.07,.02-.14,.04-.2,.01-.06,.02-.14,.04-.21,0-.05,.02-.11,.03-.17,0-.08,.02-.16,.04-.24,.02-.13,.05-.24,.09-.39l.06-.17c0-.07,.03-.15,.05-.21l.02-.07c.06-.18,.13-.34,.2-.5,.07-.18,.14-.35,.26-.52l.02-.05c.11-.18,.24-.38,.37-.55v-.02c.07-.07,.12-.16,.17-.25l.02-.06c.01-.07,0-.18,0-.18v-.03s-.02-.07-.03-.09c0-.02-.02-.06-.02-.06v-.03h-.01c-.04-.07-.08-.11-.13-.18-.05-.05-.1-.09-.18-.14-.11-.07-.26-.11-.38-.16h-.03c-.14-.05-.29-.1-.45-.13l-.05-.02-.21-.05c-.06-.01-.13-.02-.2-.03h-.06c-.15-.02-.29-.03-.42-.04-.14,0-.27,.01-.39,.03l-.29,.05c-.19,.03-.37,.06-.57,.1-.07,.02-.14,.03-.21,.05-.05,.01-.1,.03-.16,.04-.11,.01-.23,.05-.35,.09-.03,.01-.05,.03-.09,.04-.04,.02-.09,.04-.14,.06-.02,0-.05,.01-.07,.03-.01,0-.03,0-.06,.02-.04,.03-.09,.03-.12,.05-.05,.01-.1,.04-.15,.05-.05,.01-.09,.03-.13,.05-.01,0-.04,.02-.06,.03-.02,0-.04,.02-.06,.02s-.04,.02-.05,.01l-.13,.06s-.03,.02-.05,.02c-.01,0-.04,.02-.06,.03-.04,.02-.08,.04-.12,.06-.02,.02-.03,.03-.05,.03s-.04,.02-.06,.03c-.09,.04-.18,.08-.27,.13-.04,.03-.08,.05-.12,.07-.04,.02-.08,.04-.12,.06-.04,.02-.08,.05-.12,.07-.04,.02-.08,.05-.12,.06-.04,.01-.08,.04-.12,.06-.02,0-.06,.03-.06,.03l-.05,.02s-.08,.05-.13,.07c-.01,0-.05,.02-.05,.02l-.07,.04c-.08,.05-.15,.1-.24,.16-.04,.02-.07,.05-.11,.07-.01,0-.03,.02-.04,.04-.01,0-.03,.01-.04,.03-.03,.02-.06,.04-.1,.06-.04,.02-.07,.04-.1,.06-.04,.02-.07,.04-.1,.07-.04,.02-.07,.04-.1,.07-.03,.02-.05,.05-.08,.07-.02,0-.04,.02-.05,.03-.02,.02-.03,.02-.04,.04-.03,.03-.06,.05-.09,.08-.03,.02-.04,.04-.06,.05-.02,.01-.04,.03-.06,.04-.03,.03-.06,.05-.09,.08-.03,.03-.08,.07-.11,.1-.03,.03-.06,.06-.1,.09-.04,.03-.07,.06-.11,.09-.03,.03-.06,.06-.1,.09-.02,.02-.04,.02-.04,.04-.02,.02-.04,.04-.05,.06-.03,.03-.06,.06-.1,.09-.01,0-.03,.02-.04,.04-.03,.01-.04,.04-.06,.05l-.03,.02v.04s-.06,.04-.07,.06c-.03,.03-.05,.06-.08,.09-.02,.03-.06,.07-.09,.13-.03,.03-.06,.06-.09,.1-.06,.07-.11,.15-.18,.22-.02,.03-.05,.07-.08,.1-.03,.04-.05,.08-.08,.13-.03,.03-.06,.07-.09,.11,0,0-.03,.02-.04,.04-.01,.02-.04,.05-.04,.05l-.09,.13-.09,.11s-.05,.07-.08,.1c-.02,.03-.05,.07-.08,.1-.02,.02-.05,.05-.06,.07-.02,.02-.06,.08-.06,.08l-.07,.09c-.05,.08-.09,.16-.14,.23-.02,.03-.06,.07-.07,.11-.01,.04-.05,.07-.06,.13-.02,.02-.02,.03-.03,.05-.02,.02-.03,.04-.03,.06-.03,.03-.05,.07-.06,.11-.03,.03-.05,.08-.06,.13-.01,.04-.06,.11-.06,.11l-.04,.1-.03,.04c-.02,.06-.02,.13,0,.19,.01,.05,.04,.08,.08,.11l.03,.03h.03s.05,.03,.07,.03c.02,.02,.04,.03,.06,.03,.04,.03,.1,.02,.15,0,.05-.02,.09-.06,.1-.11l.03-.08,.06-.17c.04-.07,.07-.15,.11-.22,.06-.1,.12-.2,.2-.29,.02-.03,.07-.09,.07-.09l.13-.19c.12-.16,.26-.32,.44-.52,.09-.1,.19-.19,.27-.28,.08-.09,.2-.18,.28-.26l.06-.04,.05-.05c.1-.09,.22-.2,.32-.29,.07-.06,.14-.13,.22-.18,.04-.04,.1-.07,.14-.11,.04-.04,.09-.07,.13-.11,.07-.05,.14-.11,.23-.18,.11-.09,.23-.19,.34-.26l.04-.04c.13-.09,.26-.2,.39-.29,.12-.09,.24-.18,.36-.27,.23-.19,.52-.38,.8-.57,.25-.15,.48-.27,.71-.38l-.05,.02,.07-.03h.03l.06-.03c.05-.01,.09-.03,.14-.06,.03-.01,.04-.02,.06-.03,.17-.07,.34-.13,.51-.17h.02s.05-.01,.05-.01l.03-.03h.03l.34-.11c.1-.03,.21-.05,.33-.06,.12-.01,.23,0,.35,0,.09,0,.2,.03,.31,.08l.05,.02c.06,.02,.12,.04,.19,.09h.03s.07,.05,.1,.08c.03,.02,.07,.06,.11,.11,.03,.04,.06,.1,.08,.17,.03,.09,.06,.18,.05,.29,0,.09-.03,.2-.05,.29v.02c-.07,.25-.13,.5-.22,.72l-.05,.14-.07,.2c-.03,.11-.05,.22-.09,.34-.05,.24-.08,.47-.11,.7-.03,.22-.06,.45-.07,.66v.07c-.03,.27-.06,.53-.11,.78-.04,.22-.09,.43-.14,.63-.01,.06-.02,.13-.04,.18-.1,.43-.25,.9-.45,1.47l-.04,.1c-.19,.52-.36,.98-.56,1.38l-.07,.14v.03c-.09,.16-.18,.35-.27,.52-.04,.08-.09,.18-.14,.26l-.02,.02v.04c-.06,.07-.11,.16-.16,.24l-.07,.14c-.15,.29-.32,.62-.53,.9-.08,.11-.18,.22-.27,.32-.13,.17-.28,.33-.39,.52l-.04,.1v.03c-.03,.08-.04,.16-.04,.22v.04c-.03,.06-.09,.1-.16,.1l.02,.09c.11,.57,.14,1.16,.13,1.67v-.02c.02,.44,.02,.79,.02,1.16v.06l-.12,.05-.07,.09v.03c-.02,.05,0,.1,.03,.15,.02,.05,.07,.07,.12,.08,.05,0,.09-.01,.14-.04,.08-.04,.14-.08,.21-.13,.12-.09,.22-.2,.32-.3,.09-.11,.18-.22,.24-.32,.18-.25,.32-.51,.47-.76l.11-.2c.1-.19,.22-.38,.32-.56,.13-.27,.28-.54,.4-.8,.11-.26,.24-.52,.34-.79,.09-.22,.19-.44,.27-.67l.05-.14,.07,.07,.02,.07Z" fill="#f8c9b8"/><path d="M74.46,16.1c-.14,.15-.28,.29-.41,.44-.13,.13-.27,.27-.4,.4-.04,.04-.12,.05-.19,.05-.06-.02-.11-.04-.17-.1-.03-.05-.05-.11-.05-.19,.01-.07,.04-.11,.1-.17,.13-.13,.27-.26,.39-.38,.14-.13,.29-.25,.41-.38,.03-.02,.07-.04,.1-.04,.05,0,.11,0,.15,.04,.04,.04,.07,.09,.09,.16,0,.03,0,.06-.01,.1,0,.02-.01,.04-.03,.05h0Z" fill="#ffddce"/><path d="M75.28,14.04c-.1,.09-.22,.2-.32,.29-.04,.04-.09,.06-.13,.1-.05,.03-.1,.08-.17,.13-.11,.08-.22,.16-.33,.23-.12,.08-.27,.16-.39,.24h.03s-.07,.03-.11,.04c-.03,.02-.09,.01-.13,0-.04-.01-.08-.05-.09-.08-.01-.03-.01-.09,0-.14,.02-.05,.06-.07,.08-.09,.03-.01,.05-.02,.08-.04,.1-.06,.2-.11,.29-.18,.05-.03,.11-.06,.16-.1,.07-.04,.13-.09,.21-.14,.1-.07,.21-.15,.31-.22,.12-.09,.23-.2,.33-.29,.03-.03,.08-.04,.12-.03,.04,.01,.08,.03,.1,.06,.03,.03,.04,.08,.03,.13v.03s-.04,.04-.07,.07h.01Z" fill="#ffddce"/><path d="M76.15,12.5c-.05,.09-.11,.17-.22,.23-.03,.03-.07,.05-.11,.08-.09,.05-.2,.11-.3,.17-.07,.03-.16,.07-.24,.1-.12,.05-.25,.1-.36,.15-.13,.05-.3,0-.36-.16-.06-.15,0-.3,.16-.36,.19-.06,.37-.15,.55-.22,.14-.06,.3-.13,.43-.2,0-.02,.03-.02,.04-.03,0-.02,.02-.02,.04-.04,.07-.09,.22-.13,.32-.04,.05,.04,.07,.09,.09,.16,0,.03,0,.06-.01,.09l-.03,.08h0Z" fill="#ffddce"/><path d="M76.8,11.17s.07-.07,.08-.13l.02-.05c.01-.07,0-.14-.05-.2-.05-.06-.09-.1-.18-.1-.06-.01-.14,0-.2,.05-.13,.11-.25,.24-.38,.34-.11,.09-.23,.2-.35,.28-.28,.22-.57,.43-.85,.64-.11,.08-.13,.25-.05,.35,.08,.11,.24,.13,.35,.05,.28-.21,.57-.43,.85-.64,.12-.09,.24-.18,.36-.27,.11-.09,.22-.2,.32-.3l.06-.05v.02Zm-.02,.01v0Z" fill="#ffddce"/><path d="M77.64,7.42c-.18,.25-.43,.41-.68,.57-.23,.15-.47,.3-.71,.46-.05,.03-.12,.06-.2,.05-.06,0-.12-.04-.18-.1-.05-.06-.06-.14-.05-.2,.01-.06,.05-.14,.1-.18,.23-.15,.47-.29,.69-.44,.11-.07,.21-.14,.32-.21,.12-.08,.27-.17,.38-.28,.06-.06,.2-.05,.27,0,.07,.06,.1,.16,.07,.25,0,.02-.01,.04-.03,.06h.01Z" fill="#ffddce"/><path d="M77.7,6.37c-.11,.19-.28,.34-.45,.48-.17,.14-.35,.25-.53,.38-.1,.07-.24,.06-.32-.03-.08-.09-.06-.25,.03-.32,.23-.16,.47-.32,.67-.51,.08-.08,.15-.17,.23-.26,.07-.09,.22-.13,.32-.04,.04,.04,.07,.09,.09,.16,0,.03,0,.06-.01,.09,0,.02-.02,.05-.03,.06Z" fill="#ffddce"/><path d="M78.27,4.25v-.04c.03-.06,.03-.13-.03-.18-.06-.05-.16-.04-.21,.02-.06,.07-.1,.15-.17,.23-.05,.07-.1,.14-.16,.21-.05,.06-.09,.11-.13,.18-.1,.14-.21,.29-.31,.43-.2,.28-.38,.59-.55,.9-.01,.04,0,.08,0,.13,0,.03,.04,.07,.08,.08,.04,.01,.08,0,.12,0,.04-.03,.07-.05,.08-.09,.04-.09,.1-.19,.14-.27,.09-.14,.18-.28,.27-.42,.08-.14,.17-.26,.26-.39,.06-.07,.1-.15,.16-.22,.03-.05,.08-.1,.12-.17,.1-.15,.21-.29,.32-.44v.04Z" fill="#ffddce"/><path d="M77.51,1.22c-.07,.07-.13,.16-.19,.23-.05,.07-.09,.16-.14,.23-.1,.17-.2,.33-.29,.48-.02,.05-.09,.07-.14,.08-.05,0-.11,0-.16-.04-.04-.04-.07-.09-.08-.15,0-.05,.01-.1,.05-.16,.09-.17,.19-.32,.29-.48,.05-.07,.09-.15,.13-.21,.06-.08,.13-.17,.21-.24,0-.02,.02-.02,.04-.04,.03-.02,.06-.03,.1-.04,.05,0,.11,0,.15,.04,.04,.04,.07,.09,.08,.15,0,.02,0,.06-.01,.09,0,.02-.01,.04-.03,.05h-.02Z" fill="#ffddce"/><path d="M75.46,1.01c-.11,.25-.27,.47-.43,.69-.04,.06-.12,.06-.19,.02-.06-.04-.07-.14-.02-.19,.08-.1,.15-.21,.23-.3,.07-.09,.13-.19,.18-.29v-.02c.02-.07,.1-.09,.15-.06,.06,.02,.08,.09,.06,.16h.02Z" fill="#ffddce"/><path d="M74.28,1.42c-.09,.16-.19,.31-.28,.46-.1,.17-.22,.31-.33,.46-.08,.1-.23,.13-.33,.04-.1-.08-.12-.24-.04-.33,.12-.16,.23-.3,.33-.46,.09-.16,.21-.29,.31-.44,.07-.09,.22-.13,.31-.04,.04,.04,.07,.09,.08,.15,0,.03,0,.06-.01,.09,0,.02-.02,.05-.03,.06h-.01Z" fill="#ffddce"/><path d="M73.29,1.37c-.21,.51-.4,1.02-.6,1.53-.04,.1-.17,.16-.26,.1-.1-.04-.14-.16-.1-.26,.19-.52,.38-1.02,.6-1.53,.03-.09,.16-.15,.25-.1,.09,.03,.14,.16,.11,.25h0Z" fill="#ffddce"/><path d="M92.51,18.24c-.17-.42-.58-.6-.7-.66-.78-.31-1.61,.15-1.95,.29-3.02,1.27-8.9-5.3-9.32-5.77-.63-.71-1.52-1.9-1.78-2.47-.04-.09-.19-.42-.43-.82-.21-.35-.4-.6-.56-.81-.26-.33-.5-.63-.74-.9-.29-.32-.53-.55-.76-.75-.27-.22-.57-.44-.92-.68-.1,0-.2-.03-.29-.05h-.03s-.07-.04-.09-.07c-.02-.03-.03-.08-.02-.13v-.02l-.08-.05c-.4-.24-.83-.43-1.22-.58-.09-.04-.19-.07-.29-.11h.01c-.4-.15-.73-.27-1.07-.39l-.06-.02s-.06,.05-.09,.08c0,0-.07,.04-.11,.04h-.03s-.09-.04-.12-.08c-.03-.04-.04-.09-.04-.15v-.02c-.11-.04-.24-.07-.36-.1l-.18-.05c-.33-.09-.67-.17-1-.23-.31-.06-.67-.13-1.03-.19-.34-.05-.68-.08-1.06-.13-.31-.03-.72-.06-1.15-.06l-.17-.02c-4.83-.19-7.97,.67-9.97,1.52,0,0-3.3,1.4-7.84,2.38-.27,.06-.97,.15-1.13,.15h-1.01c-.28,0-.55,0-.82-.02-.09,0-.18,0-.27-.01-.17,0-.33-.01-.49-.03h.05c-.18-.01-.35-.02-.54-.04-.14-.01-.3-.02-.44-.04-.14-.01-.29-.02-.43-.04h-.08c-.17-.02-.34-.04-.51-.05-.17-.01-.33-.02-.5-.02h-.18c-.19,0-.36,.02-.54,.03h-.11c-.19,.02-.39,.04-.61,.07-.14,.02-.26,.05-.29,.05-.23,.05-.39,.09-.4,.1-1.55,.46-12.25-.74-12.25-.74-1.93-.52-7.35-1.71-13.28,.77C5.8,11.34,3.43,21.12,3.2,22.13c-2.04,8.98,2.6,16.95,3.91,18.4,0,0,2.04,2.25,2.93,4.24,0,.02,.13,.29,.29,.6,.06,.13,.12,.25,.2,.38,.04,.07,.07,.14,.11,.21,.43,.82,.78,1.52,1.06,2.19,.17,.4,.31,.81,.47,1.26,.17,.48,.3,.92,.41,1.33,.03,.11,.05,.22,.08,.33,.02,.08,.04,.17,.06,.25,.05,.22,.11,.45,.18,.67,.12,.48,.22,.9,.28,1.29,.03,.24,.05,.48,.07,.76,0,.14,.02,.27,.04,.4,.01,.13,.03,.25,.04,.38,.02,.27,.02,.52,.03,.78,0,.27,0,.55,.02,.82,0,.14,.01,.28,.02,.42,0,.14,.02,.27,.02,.41v.31c0,.17,.01,.34,.02,.51,.01,.19,.03,.38,.05,.56,0,.08,.02,.17,.02,.25,.02,.24,.03,.49,.03,.78v1.45s.04-.04,.07-.05c.03-.02,.07-.03,.11-.04h.1c.08,0,.18,.02,.29,.05,.07,0,.14,.04,.21,.06l.05,.02c.09,.03,.19,.06,.29,.09,.22,.07,.4,.13,.59,.17l.08,.02c.16,.04,.31,.07,.47,.1,.18,.03,.38,.06,.59,.07h.14c.13,0,.27,0,.41-.02,.12-.02,.24-.05,.38-.09,.16-.06,.28-.13,.38-.2,.06-.04,.11-.09,.16-.14,.04-.05,.08-.1,.11-.16l.03-.05s.05-.09,.07-.14c.02-.03,.05-.06,.09-.07,.02-.04,.06-.07,.11-.07,0,0,.07,.02,.09,.05,.09-.34,.17-.7,.24-1.04,.03-.13,.05-.25,.08-.38,.08-.39,.14-.78,.21-1.17,.02-.16,.05-.31,.07-.47,.02-.13,.04-.25,.06-.38,.02-.15,.05-.3,.07-.45,.04-.25,.07-.51,.11-.76v-.04c.05-.35,.11-.71,.17-1.06,.04-.2,.07-.4,.1-.59,.04-.29,.09-.53,.14-.77,0-.04,.07-.88,.06-.99v-.17c-.03-.52-.05-1.06-.07-1.62-.02-.43-.04-.87-.05-1.28-.01-.24,.49,.38,.54,.43,.11,.08,.23,.17,.34,.24l.29,.19,.29,.19c.12,.08,.25,.16,.37,.24l.19,.11c.07,.05,.16,.09,.23,.15,0-.01,.24,.1,.26,.15l.04,.02c.29,.18,.6,.34,.91,.5h.02l.09,.06,.14,.07h.02c.65,.35,1.31,.71,1.99,1.03,.42,.2,.87,.41,1.36,.63,.02-.02,.05-.03,.08-.03,.02,0,.05,0,.07,.02,0,0,.01,0,.02,.02,0,0,.03,.04,.04,.06v.02c.24,.1,.5,.22,.77,.33,.19,.07,.37,.15,.56,.21,.09,.03,.2,.07,.28,.1,.09,.03,.19,.07,.28,.1,.09,.04,.19,.07,.29,.1,.28,.1,.56,.21,.85,.3,.63,.21,1.47,.47,2.35,.66,.4,.08,.83,.17,1.27,.25,.51,.09,.92,.16,1.31,.2,.65,.07,1.52,.18,2.4,.2,.2,0,.4,0,.6,.02h.8c.31-.01,.63-.02,.95-.04,.22-.01,.4-.03,.57-.04,.11-.01,.22-.03,.32-.04h.09c.07-.01,.16-.02,.24-.04,.18-.04,.35-.08,.53-.13l.09-.02c.11-.03,8.33-1.01,8.45-1.03h.03l.03,.1,.03,.11c.07,.24,.14,.48,.22,.72,.17,.55,.34,1.12,.5,1.68,.07,.27,.15,.54,.23,.8l.09,.31c.02,.08,.05,.17,.07,.26,.08,.29,.17,.6,.27,.9,.29,.88,.56,1.59,.84,2.26,.13,.33,.28,.67,.43,.99,.02-.03,.04-.04,.07-.05h.07s.04,.02,.06,.03c.02,.02,.05,.03,.08,.05,.03,0,.06,.01,.09,.02,.02,0,.04,0,.06,.01,.04,0,.07,.02,.1,.02s.05,.01,.07,.02c.02,0,.04,0,.05,.01,.04,0,.08,.02,.11,.02,.02,0,.04,.02,.05,.02,.04,.01,.07,.02,.11,.04,.06,.02,.12,.02,.2,.03,.03,0,.06,.01,.09,.02,.03,0,.06,0,.09,.02,.06,.01,.12,.02,.2,.03h.06c.11,0,.24-.01,.35-.02,.12-.02,.25-.02,.41-.02h.42c.12,0,.25,0,.36-.02,.08-.02,.17-.04,.25-.06l.19-.05s.06-.01,.09-.02c.02,0,.05-.02,.07-.02,.08-.02,.17-.04,.24-.05h.07s.11,0,.17,.04h.01s.07,.05,.08,.09c.01,.02,.02,.04,.03,.06,0,.02,0,.04,.01,.06v.06c0,.07,0,.14,.02,.2,.01,.06,.02,.14,.03,.2v-.49c.02-.57,.04-1.23,.12-1.89v-.02c.02-.1,.03-.22,.04-.33l.04-.28c.02-.17,.05-.34,.08-.53,.02-.14,.05-.27,.08-.41,0-.05,.02-.1,.03-.17,.08-.36,.17-.75,.27-1.16,.02-.09,.05-.2,.07-.29,.06-.25,.13-.51,.19-.76l.05-.26c.02-.11,.04-.22,.07-.33,.02-.13,.05-.25,.09-.38,.02-.06,.03-.13,.04-.19,.03-.14,.06-.27,.08-.41h.49s.78-.19,1.34-.48c-.02-.07,.02-.14,.09-.16h.03s.05,0,.07,.02c.02,0,.03,.01,.05,.02l.28-.15c.72-.39,1.4-.83,2.06-1.26,.34-.23,.67-.47,.94-.68,.35-.27,.69-.54,1.01-.8,0-.04,.01-.07,.02-.11,0-.03,.04-.05,.07-.05h.02s.04,.02,.05,.04c.24-.2,.48-.43,.73-.69,.32-.31,.6-.62,.88-.92,.48-.52,1.03-1.15,1.59-1.8,.37-.44,.82-.97,1.18-1.47,.69-.94,1.15-1.83,1.75-3.2,.92-2.11,1.63-4.14,2.17-5.82l.29-.09c.31-.09,.67-.22,1.04-.38,.2-.08,.41-.17,.63-.27l.14-.07c.13-.06,.26-.13,.39-.19,.28-.13,.57-.27,.8-.4l.2-.09,.19-.09c.27-.13,.55-.27,.81-.42,.28-.17,.57-.36,.91-.63,.1-.08,.22-.17,.32-.24,.21-.17,.42-.33,.63-.49,.48-.4,.88-.76,1.23-1.12l.07-.07h.01c.17-.18,.33-.35,.49-.53,.19-.2,.34-.42,.51-.64l.02-.03c.24-.3,.48-.64,.69-.99,.18-.27,.31-.57,.44-.85l.05-.11c.07-.15,.14-.3,.23-.46v-.02h.02c.08-.18,.18-.35,.26-.53,.18-.39,.33-.77,.48-1.14,.1-.27,.19-.55,.27-.82v-.03c.03-.05,.06-.15,.08-.26,.15-.96,1.6-1.3,3.61-1.89,.4-.11,.57-.18,.97-.27,1.02-.23,1.13-.15,1.35-.32,.33-.26,.4-.69,.52-1.47,.13-.93-.04-.93,.08-1.45,.2-.89,.71-.91,1.35-2.24,.43-.91,.37-1.25,.3-1.45h-.01ZM20.98,7.49c-.19,0-.35-.17-.35-.35s.17-.35,.35-.35,.35,.17,.35,.35-.17,.35-.35,.35Zm4.35,2c-.16,0-.28-.13-.28-.28s.12-.28,.28-.28,.28,.13,.28,.28-.12,.28-.28,.28Zm.66-1.9c-.12,0-.23-.1-.23-.23s.11-.23,.23-.23c.12,0,.24,.1,.24,.23s-.1,.23-.24,.23Zm1.46,2.95c-.18,0-.34-.16-.34-.34,0-.18,.15-.33,.34-.33s.33,.16,.33,.33-.15,.34-.33,.34Zm11.71,2.69c-.2,0-.36-.17-.36-.36s.17-.36,.36-.36,.36,.17,.36,.36-.17,.36-.36,.36Zm1.3-1.65c-.18,0-.34-.16-.34-.34s.15-.34,.34-.34,.33,.16,.33,.34-.15,.34-.33,.34Zm.96-1.82c0-.21,.18-.39,.38-.39s.37,.18,.37,.39-.18,.38-.37,.38-.38-.18-.38-.38Zm.85,24.56c-.19,0-.33-.15-.33-.33,0-.18,.14-.33,.33-.33s.33,.15,.33,.33-.14,.33-.33,.33Zm1.16-22.89c-.15,0-.28-.13-.28-.28s.12-.28,.28-.28,.28,.13,.28,.28-.12,.28-.28,.28Zm.48,29.03c-.12,0-.22-.1-.22-.22s.09-.22,.22-.22,.22,.1,.22,.22-.09,.22-.22,.22Zm.59,5.43c0-.32,.27-.6,.6-.6s.6,.28,.6,.6-.28,.6-.6,.6-.6-.27-.6-.6Zm1.16,6.17c-.15,0-.29-.14-.29-.29,0-.17,.13-.29,.29-.29s.29,.14,.29,.29-.13,.29-.29,.29Zm.14-1.66c-.18,0-.31-.15-.31-.32s.14-.32,.31-.32,.32,.15,.32,.32-.14,.32-.32,.32Zm.33-8.51c-.07,0-.13-.06-.13-.14s.06-.14,.13-.14,.13,.06,.13,.14-.06,.14-.13,.14Zm.58-32.98c0-.16,.13-.29,.29-.29s.29,.13,.29,.29-.13,.29-.29,.29-.29-.14-.29-.29Zm.74,40.8c-.23,0-.42-.2-.42-.43s.2-.43,.42-.43,.42,.2,.42,.43-.2,.43-.42,.43Zm7.46,3.4c-.14,0-.27-.13-.27-.27s.12-.27,.27-.27,.27,.13,.27,.27-.12,.27-.27,.27ZM71.93,5.73c-.14,0-.26-.13-.26-.26,0-.15,.12-.26,.26-.26s.27,.13,.27,.26-.12,.26-.27,.26Zm.94,.88c-.14,0-.26-.11-.26-.26,0-.14,.11-.25,.26-.25s.26,.11,.26,.25-.11,.26-.26,.26Z" fill="#f8d7c8"/><path d="M21.78,51.02s-.05,.04-.05,.07,0,.06,.01,.09c.02,.03,.03,.07,.05,.1l.02,.06c.06,.16,.11,.33,.15,.48l.07,.27c.02,.09,.05,.19,.07,.27,.04,.14,.07,.27,.09,.4l.04,.17c.03,.1,.05,.22,.08,.32,.02,.08,.04,.17,.06,.24l.03,.13c.04,.15,.07,.3,.12,.45,.06,.21,.11,.39,.18,.56,.11,.31,.24,.65,.39,1.05l.03,.07c.02,.06,.05,.13,.07,.19l.05,.14s.03,.09,.05,.15c.06,.18,.12,.34,.2,.51l.02,.06,.05,.15c.05,.13,.1,.26,.15,.39,.02,.05,.04,.11,.07,.17,.02,.06,.05,.13,.07,.19h.01s.07-.04,.1-.04h.06s.02,0,.03,.02h.02l.03,.02s.05,.03,.08,.04c.03,0,.06,.02,.09,.02,.02,0,.04,0,.05,.02,.05,.02,.09,.03,.13,.05l.04,.02s.11,.03,.17,.05c.03,0,.07,0,.1,.02,.03,.02,.06,0,.09,.02,.04,0,.08,.02,.12,.03,.02,0,.05,.02,.07,.02,.12,.04,.26,.06,.38,.08,.13,.02,.27,.04,.39,.04,.06,0,.11,0,.18,.02,.07,0,.14,.02,.23,.02,.07,0,.14,0,.22,.02h.09s.09,.04,.14,.05c.09,.04,.2,.14,.22,.25,0,.05,.02,.1,.02,.15v-.23c-.02-.17-.04-.34-.04-.51v-.29c-.02-.08-.02-.17-.02-.25v-.03c0-.07,0-.16-.02-.23v-.52c0-.13-.02-.25-.02-.38,0-.24,0-.47-.02-.7v-1.88s-.02-.05-.04-.06c0,0-.02,0-.02-.02-.02,0-.04-.02-.07-.02s-.05,0-.08,.03c-.5-.22-.94-.42-1.36-.63-.67-.31-1.34-.68-1.99-1.02h-.02l-.14-.08-.09-.05h-.02c-.3-.17-.61-.33-.91-.51l-.04-.02s-.04-.09-.06-.14c-.02-.04-.05-.06-.1-.06-.02,0-.04,0-.06,.02v-.04h-.04Z" fill="#f8c9b8"/><path d="M64.57,52.1s-.01,.07-.02,.11c-.31,.26-.65,.53-1.01,.8-.27,.21-.6,.46-.94,.68-.66,.43-1.34,.88-2.06,1.26l-.28,.15s-.03-.02-.05-.02-.04-.02-.07-.02h-.03c-.06,.02-.1,.08-.09,.16,.01,.05,.02,.1,.03,.15,.02,.07,.03,.15,.04,.21,0,.03,.02,.06,.02,.09,0,.04,.01,.09,.02,.14,.02,.19,.05,.39,.09,.57,.04,.19,.08,.38,.12,.55v.05s.03,.08,.04,.13c.01,.1,.03,.21,.05,.29,.03,.11,.07,.23,.1,.32,.04,.13,.07,.27,.12,.41,.07,.2,.14,.41,.22,.6,.07,.19,.14,.36,.2,.55,.05,.15,.1,.29,.15,.43,.02,.06,.04,.13,.07,.19,.02,.04,.04,.09,.05,.15,.06,.17,.12,.33,.2,.49,.02,.03,.03,.05,.04,.08,0,0,.07-.08,.11-.1,.02,0,.04-.01,.06-.01h.04s.08,.02,.12,.04l.03,.02s.06,.03,.09,.04c.02,0,.05,.01,.07,.02,.03,0,.06,.02,.09,.03,.06,.02,.12,.05,.2,.07h.02c.07,.04,.17,.07,.25,.08,.07,.01,.14,.02,.22,.03,.06,0,.12,.01,.2,.02h.09c.12,0,.26-.01,.41-.04,.08-.01,.15-.03,.22-.06,.03-.01,.07-.02,.1-.04,.04-.02,.09-.03,.13-.05,.04-.01,.07-.02,.11-.02s.09,0,.13,.04v-.93c0-.09,0-.2-.02-.29v-.2c0-.08-.01-.17-.02-.24v-.72c0-.31-.01-.64-.02-.95v-.48c0-.11,0-.24,.01-.34v-.16c0-.33,.04-.68,.07-.96,.02-.15,.03-.29,.04-.44v-.05c.01-.09,.02-.19,.03-.27,0-.07,.01-.15,.02-.21v-.11c.02-.13,.03-.25,.04-.38,0-.07,.02-.16,.03-.23,0-.08,.02-.16,.02-.24,0-.07,.02-.15,.02-.22v-.08s.02-.08,.02-.13c0-.05,0-.11,.02-.17,0-.07,.02-.15,.04-.24,.02-.07,.03-.15,.04-.24v-.02s.01-.09,.02-.14v.02s0-.07,.01-.11c0-.04,0-.08-.05-.09h-.02s-.07,.02-.07,.05l.02-.03Z" fill="#f8c9b8"/><path d="M74.16,5.15c-.05,.02-.09,.05-.12,.1-.05-.02-.11-.04-.18-.05-.07-.02-.15,.04-.18,.11-.02,.08,.04,.16,.11,.18,.05,.01,.1,.03,.16,.05,.02,0,.03,.01,.05,.02,0,.01,.02,.03,.03,.04,.05,.04,.1,.05,.16,.08,.04,.02,.09,.05,.13,.07,.09,.05,.19,.09,.27,.15,.09,.05,.18,.1,.27,.16,.04,.02,.08,.05,.12,.07,.02,.02,.05,.03,.07,.04h.01s.07,.06,.11,.08c.02,.01,.03,.02,.05,.03,.04,.02,.07,.03,.11,.02,.05,0,.11-.03,.15-.07,.08-.09,.08-.25-.02-.32-.04-.03-.07-.05-.11-.09,0-.01-.01-.02-.02-.04-.03-.04-.05-.06-.09-.09-.01,0-.02-.01-.04-.02-.01,0-.03-.02-.04-.02-.02-.01-.04-.02-.05-.04-.03-.02-.05-.04-.09-.06-.02-.02-.05-.04-.08-.06l.05,.04c-.12-.09-.26-.18-.38-.26-.05-.03-.11-.06-.18-.09-.07-.04-.14-.08-.23-.08-.02,0-.05,0-.07,.02l.02,.04Z" fill="#f8d7c8"/><path d="M69.67,3.81c-.02,.07,.03,.15,.09,.16,.11,.02,.22,.05,.32,.08,.11,.04,.22,.07,.33,.11,.02,.01,.05,.02,.08,.03-.01,0-.02,0-.04-.02,.24,.09,.48,.17,.71,.25,.22,.07,.42,.15,.64,.22,.31,.11,.61,.26,.91,.41,.07,.04,.14,.07,.22,.11,.07,.04,.14,.07,.22,.13,.13,.08,.27,.17,.41,.26,.03,.02,.06,.05,.09,.07,.06,.05,.14,.05,.22,.02,.07-.05,.11-.17,.05-.25-.11-.14-.23-.26-.37-.36-.07-.05-.14-.1-.23-.16-.08-.04-.17-.09-.24-.14-.29-.16-.61-.27-.92-.39,.02,0,.03,.01,.05,.02-.19-.07-.37-.11-.57-.17-.18-.04-.34-.09-.52-.14-.18-.05-.35-.1-.53-.16s-.35-.11-.53-.16c-.08-.02-.17-.04-.25-.05h-.02c-.06,0-.11,.04-.12,.1h-.02Z" fill="#f8d7c8"/><path d="M70.36,3.81c-.11,0-.2,.1-.2,.22s.1,.2,.22,.2h.13c.12,.01,.26,.05,.38,.08,.1,.02,.21,.05,.31,.09,.11,.03,.23,.07,.33,.1,.09,.03,.18,.06,.27,.09,.08,.03,.17,.06,.25,.09,.08,.03,.17,.07,.25,.1,.15,.07,.31,.15,.45,.22,.14,.07,.29,.16,.43,.23,.18,.09,.34,.18,.52,.27,.08,.04,.2,0,.24-.08,.02-.04,.02-.09,0-.14-.02-.05-.04-.07-.09-.1-.19-.11-.37-.23-.56-.34-.19-.1-.36-.21-.55-.3-.09-.04-.19-.09-.29-.13-.09-.04-.2-.08-.3-.13-.22-.08-.44-.17-.67-.24-.15-.05-.31-.09-.48-.15-.07-.02-.13-.04-.21-.05l-.13-.02c-.08-.02-.17-.02-.25-.02h-.06Z" fill="#f8d7c8"/><path d="M77.72,8.73c-.07,.04-.1,.16-.05,.22,.1,.13,.19,.25,.27,.39,.09,.15,.19,.29,.27,.44,.09,.16,.19,.31,.27,.46,.07,.14,.14,.27,.21,.42,.06,.14,.12,.26,.19,.41,.03,.06,.05,.14,.08,.2,.03,.07,.05,.14,.07,.21,.04,.14,.09,.27,.12,.42,.02,.07,.03,.15,.05,.21,.02,.07,.03,.15,.04,.22,.03,.14,.05,.27,.07,.41,.03,.16,.05,.31,.08,.46,.02,.13,.04,.24,.07,.36,.02,.11,.03,.22,.04,.33,0,.05,.02,.1,.06,.14,.04,.04,.09,.05,.14,.05,.11,0,.19-.09,.19-.2,0-.19-.01-.38-.04-.56-.03-.19-.05-.36-.09-.54h0s-.02-.14-.02-.14h0s0,.03,.01,.05c0-.02,0-.04-.01-.07-.04-.22-.08-.43-.13-.64-.02-.08-.04-.17-.07-.25-.03-.1-.07-.21-.11-.31-.07-.2-.17-.39-.26-.58-.09-.19-.19-.36-.29-.55-.07-.14-.15-.27-.23-.4-.07-.13-.17-.26-.24-.39-.07-.11-.14-.23-.23-.34-.08-.13-.17-.24-.26-.35-.03-.04-.05-.06-.1-.07h-.03s-.06,0-.08,.02h.01Zm2.04,3.89v0Z" fill="#f8d7c8"/><path d="M50.23,19.13c-.06,.06-.11,.17-.1,.25,0,.08,.02,.17,.02,.24v.24c0,.18-.02,.35-.04,.53-.03,.33-.07,.67-.11,1-.04,.34-.06,.69-.07,1.03,0,.35-.02,.71-.02,1.07v.59c0,.14,.04,.27,.06,.41,.02,.13,.05,.25,.09,.36,.06,.26,.14,.52,.23,.78,.1,.37,.21,.72,.31,1.08,.12,.45,.26,.9,.39,1.34,.09,.3,.19,.6,.27,.91,.04,.14,.08,.28,.12,.42,.06,.19,.12,.36,.19,.55,.03,.09,.07,.19,.11,.27,.07,.18,.14,.34,.24,.5,.08,.15,.18,.28,.26,.43,.19,.31,.36,.63,.56,.94,.19,.29,.38,.58,.59,.87,.14,.2,.31,.39,.45,.57,.16,.2,.32,.4,.49,.59,.14,.17,.3,.33,.45,.5,.07,.08,.15,.17,.23,.25,.06,.06,.11,.13,.18,.2,0,.07,.04,.14,.08,.19,.1,.11,.31,.13,.41,0,.05-.06,.1-.14,.1-.23v-.11c-.02-.05-.04-.1-.08-.15-.05-.06-.1-.13-.16-.18-.07-.08-.14-.17-.22-.25-.18-.18-.34-.36-.51-.55-.33-.36-.63-.75-.94-1.14-.27-.35-.51-.73-.73-1.12-.11-.19-.22-.39-.32-.57-.12-.22-.26-.44-.36-.68-.07-.18-.12-.36-.19-.55-.05-.18-.1-.35-.15-.53l-.33-1.17c-.21-.75-.41-1.49-.63-2.24-.04-.15-.08-.3-.12-.45-.12-.42-.25-.82-.31-1.25v-1.11c0-.35,0-.71,.02-1.06,.02-.34,.06-.69,.09-1.03,.02-.16,.03-.31,.04-.48,.02-.18,.03-.35,.04-.53v-.22c0-.09-.02-.18-.02-.27,0-.03,0-.06-.02-.09-.02-.06-.04-.11-.09-.16-.06-.06-.15-.1-.25-.1s-.19,.04-.25,.1h0Z" fill="#f8c9b8"/><path d="M47.96,23.96c0,.28,0,.56-.02,.84v.77c0,.15,.02,.29,.04,.43,0,.07,.02,.15,.03,.22,0,.06,0,.13,.02,.19,.03,.14,.05,.27,.08,.4,.03,.13,.06,.25,.09,.38,.12,.45,.31,.89,.51,1.3,.09,.2,.2,.41,.31,.59,.05,.09,.12,.18,.19,.26,.04,.05,.08,.1,.12,.16,.05,.05,.11,.09,.17,.15,.07,.05,.2,.03,.26-.03,.08-.08,.07-.22,0-.3-.05-.04-.09-.09-.12-.15-.12-.18-.23-.36-.33-.55-.09-.19-.18-.38-.26-.56-.11-.28-.22-.56-.31-.85-.04-.15-.08-.3-.11-.46-.04-.16-.06-.31-.09-.48-.02-.17-.04-.32-.05-.48,0-.1,0-.21-.02-.31v-.31c0-.39,0-.78,.02-1.17,0-.15-.12-.27-.27-.27s-.27,.13-.27,.27l.02-.02Z" fill="#f8c9b8"/><path d="M14.44,43.47c-.13,.07-.17,.24-.09,.38,.16,.28,.33,.56,.5,.84,.15,.26,.32,.52,.5,.77,.09,.15,.2,.28,.3,.42,.11,.15,.23,.28,.35,.42,.21,.24,.43,.46,.65,.68,.22,.22,.44,.44,.66,.67,.22,.23,.42,.46,.64,.68,.21,.22,.39,.46,.62,.66,.12,.11,.27,.22,.4,.32,.05,.03,.1,.07,.15,.11,.02,.02,.05,.03,.07,.05,.04,.03,.09,.06,.14,.07,.04,0,.07,.02,.11,0,.05,0,.1,0,.14-.04,.07-.04,.11-.1,.13-.18,0-.03,.01-.05,.01-.09,0-.06-.02-.11-.05-.18-.03-.06-.1-.1-.15-.15-.05-.04-.1-.07-.16-.11-.09-.06-.19-.13-.27-.2-.11-.08-.22-.18-.31-.28-.11-.11-.21-.24-.32-.34-.22-.24-.43-.47-.66-.7-.22-.22-.44-.44-.67-.65-.22-.21-.44-.42-.66-.64-.11-.11-.22-.24-.33-.35-.09-.1-.19-.22-.27-.33-.2-.27-.38-.54-.56-.82-.19-.29-.38-.59-.55-.9-.04-.08-.14-.14-.24-.14-.05,0-.09,0-.13,.04l.03-.02h0Z" fill="#f8c9b8"/><path d="M82.6,31.12c-.08,.13-.17,.25-.26,.36-.17,.2-.36,.39-.55,.57-.19,.19-.38,.36-.58,.54l-.65,.56c-.2,.18-.41,.34-.62,.5-.09,.07-.2,.15-.29,.22h.01c-.23,.18-.47,.34-.69,.52-.25,.18-.5,.35-.75,.52-.25,.16-.5,.29-.74,.44-.27,.15-.55,.31-.82,.46-.67,.39-1.34,.78-2.05,1.09-.53,.22-1.06,.46-1.61,.63-.27,.08-.55,.16-.82,.23l-.87,.22c-.27,.07-.54,.15-.81,.21-.27,.07-.56,.13-.84,.19-.58,.13-1.16,.26-1.74,.38-.37,.07-.74,.14-1.12,.2-.27,.04-.54,.06-.81,.09-.3,.03-.6,.05-.9,.08-.34,.03-.68,.08-1.02,.15-.3,.05-.6,.14-.89,.22-.26,.06-.5,.16-.74,.25-.28,.1-.55,.22-.83,.34-.24,.1-.46,.21-.69,.31-.26,.11-.51,.24-.73,.41-.07,.05-.13,.11-.16,.2-.02,.09-.01,.19,.04,.27,.04,.08,.12,.14,.21,.17h.09c.06,0,.12,0,.18-.05,.26-.09,.53-.19,.78-.29,.29-.11,.58-.24,.87-.35,.27-.11,.56-.21,.84-.3,.29-.09,.59-.17,.89-.24,.27-.06,.53-.1,.8-.15,.28-.04,.55-.06,.83-.08,.31-.02,.61-.05,.91-.08,.34-.04,.69-.09,1.03-.16,.29-.05,.58-.11,.86-.17,.57-.11,1.13-.26,1.68-.4,.27-.06,.55-.13,.82-.21l.84-.24c.29-.08,.57-.17,.86-.26,.27-.07,.54-.17,.8-.27,.3-.13,.6-.25,.9-.39,.27-.13,.55-.25,.82-.38,.12-.06,.24-.13,.36-.2,.13-.07,.27-.15,.4-.23,.26-.16,.53-.32,.79-.48,.25-.16,.49-.31,.73-.47,.27-.17,.54-.32,.81-.49,.52-.31,.99-.7,1.46-1.07,.23-.19,.44-.38,.66-.56,.22-.19,.43-.39,.65-.59,.18-.17,.35-.32,.53-.49,.17-.16,.31-.32,.46-.49,.17-.17,.32-.34,.48-.51,.17-.17,.29-.38,.42-.57,.04-.06,.01-.15-.04-.18-.02,0-.04-.02-.06-.02-.05,0-.09,.02-.11,.06v-.03h0Z" fill="#f8c9b8"/><path d="M72.96,11.74c-.12,.02-.26,.09-.37,.14-.04,.02-.06,.08-.05,.13-.02,0-.05,.02-.07,.02,0,0-.02,0-.03,.01-.02,0-.03,.01-.04,.02-.14,.05-.29,.11-.42,.19-.05,.03-.1,.07-.16,.1-.09,.07-.19,.15-.28,.23-.09,.08-.19,.19-.27,.28-.1,.14-.2,.26-.28,.41-.04,.08-.08,.19-.11,.27-.02,.06-.04,.11-.05,.18-.03,.09-.04,.2-.05,.29v.24c.01,.1,.02,.2,.05,.29,0,.02,.02,.04,.02,.06l.09,.22c.07,.14,.16,.26,.26,.39,.2,.23,.44,.42,.7,.56,.13,.07,.29,.14,.43,.2,.12,.05,.24,.09,.36,.13,.17,.04,.33,.06,.5,.07,.13,.01,.27,0,.4-.01h.03c.12,.01,.26,0,.38-.02,.18-.02,.33-.05,.49-.11,.08-.03,.16-.06,.24-.1,.07-.04,.14-.1,.21-.15,.12-.1,.22-.22,.31-.34,.04-.05,.07-.11,.1-.17,.04-.08,.07-.17,.11-.25,.07-.17,.09-.34,.1-.52,.01-.16,0-.3-.03-.46-.02-.14-.05-.27-.08-.41-.04-.15-.1-.28-.17-.42-.06-.14-.14-.26-.23-.39-.32-.48-.76-.92-1.33-1.06-.08-.02-.17-.03-.26-.04h-.06c-.06-.02-.13-.02-.2-.02-.08,0-.18,.01-.26,.03v.02h.01Z" fill="#f8c9b8"/><path d="M72.74,12.94s-.03,.02-.05,.03c-.05,.03-.09,.06-.12,.11-.03,.03-.05,.07-.09,.1-.02,.03-.04,.07-.06,.11-.05,.05-.08,.11-.1,.19-.07,.2-.05,.41,0,.6,.02,.08,.05,.17,.08,.24,.03,.07,.05,.14,.09,.2,.03,.05,.06,.09,.09,.13,.03,.04,.07,.07,.11,.1,.06,.04,.12,.08,.2,.1,.07,.02,.14,.03,.23,.04h.05c.06,0,.12-.01,.19-.04,.06-.02,.12-.05,.18-.08,.11-.06,.2-.17,.27-.28,.08-.14,.1-.3,.1-.46,0-.1-.02-.22-.04-.32,0-.04-.02-.07-.02-.1-.02-.07-.05-.16-.08-.22-.02-.05-.05-.09-.08-.15-.08-.11-.19-.22-.31-.29-.05-.03-.11-.05-.18-.06-.06-.02-.12-.03-.19-.03-.09,0-.18,.02-.26,.06h0Z"/><path d="M73.62,26.63c-.05,.05-.09,.14-.08,.21l.02,.33c0,.11,.01,.23,.02,.34,.01,.14,.03,.27,.05,.41,.02,.11,.05,.23,.09,.34,.07,.26,.17,.51,.29,.74,.05,.11,.11,.21,.19,.31,.08,.11,.17,.22,.26,.33,.16,.18,.32,.35,.51,.5,.11,.09,.23,.18,.35,.25,.12,.07,.25,.13,.38,.18,.11,.04,.23,.07,.34,.11,.11,.03,.23,.06,.34,.07,.14,.02,.28,.04,.42,.04h.36c.25,0,.5-.01,.74-.02,.26-.02,.52-.03,.76-.07,.11-.02,.23-.04,.34-.07,.11-.02,.23-.05,.33-.09,.12-.04,.26-.09,.38-.17,.09-.05,.2-.1,.3-.17,.19-.11,.38-.22,.57-.33l.3-.19c.09-.05,.18-.13,.27-.19,.09-.06,.18-.13,.27-.19,.08-.06,.17-.13,.25-.19,.2-.14,.38-.27,.59-.39,.18-.1,.36-.2,.56-.28,.05-.02,.1-.04,.17-.05,.06-.01,.11-.03,.17-.04,.1,0,.21,0,.31-.01h.44c.07,0,.13-.06,.13-.14s-.06-.14-.13-.15h-.65c-.11,0-.22,0-.33,.02-.11,.02-.22,.05-.32,.09-.24,.08-.46,.19-.68,.31-.11,.06-.22,.11-.33,.18-.09,.05-.19,.1-.27,.17-.07,.04-.14,.09-.23,.14-.08,.04-.16,.09-.24,.14-.17,.1-.35,.19-.53,.27-.18,.08-.34,.17-.51,.26-.16,.08-.31,.16-.48,.23-.13,.05-.27,.08-.4,.11-.14,.04-.29,.06-.43,.09-.32,.04-.65,.05-.97,.05s-.63,.01-.95-.02c-.25-.04-.49-.11-.71-.21-.08-.04-.17-.08-.25-.13-.08-.04-.16-.09-.23-.15-.11-.09-.23-.2-.33-.3-.11-.13-.23-.24-.34-.36-.13-.19-.26-.4-.35-.62-.05-.13-.09-.26-.13-.39-.04-.13-.07-.26-.09-.39-.03-.25-.03-.5-.02-.75,.01-.17-.14-.29-.29-.29-.07,0-.14,.03-.2,.08h-.03Z" fill="#f89fa3"/><path d="M73.9,26.18c-.23,.26-.48,.51-.65,.81-.07,.11-.05,.27,.04,.36,.05,.05,.13,.09,.22,.09,.07,0,.17-.03,.22-.09,.06-.07,.12-.16,.19-.23,.13-.18,.29-.34,.44-.51,.05-.06,.09-.14,.09-.22s-.03-.16-.09-.22c-.06-.05-.14-.09-.23-.09s-.15,.03-.22,.09h-.01Z" fill="#f89fa3"/><path d="M69.9,5.31c0,.15,.11,.26,.26,.26s.26-.13,.26-.26-.11-.26-.26-.26-.26,.11-.26,.26Z" fill="#f89fa3"/><path d="M62.31,9.94l.07,.13v.02h.01c.09,.17,.2,.33,.3,.5,.06,.08,.1,.17,.17,.25v.03l.04,.03c.05,.07,.11,.16,.16,.23l.07,.13c.18,.28,.37,.58,.59,.85,.09,.1,.2,.21,.29,.3,.14,.16,.3,.31,.42,.49l.04,.1v.03c.03,.08,.04,.16,.06,.22l.02,.04c.03,.06,.08,.09,.16,.09h.02s.07-.04,.1-.07c.03-.03,.03-.08,.03-.11v-.03c-.02-.09-.04-.19-.08-.29,.07-.42,.15-.79,.25-1.14,.08-.3,.2-.62,.37-1.01,.14-.33,.31-.69,.52-1.04,.19-.33,.35-.59,.52-.84,.19-.27,.39-.52,.58-.73,.21-.25,.43-.51,.66-.75,.09-.09,.19-.2,.28-.29l.05-.06,.1-.1,.06-.03s.05,0,.09-.02c.04-.02,.07-.05,.08-.08,.02,0,.01-.02,.02-.03,.02-.03,.05-.06,.08-.1,.02-.05,.05-.1,.03-.16,.02,0,.05,0,.07-.02,.03-.01,.05-.02,.07-.05-.04,.02-.09,.02-.13,0-.05-.02-.09-.06-.11-.1l-.04-.08-.07-.17c-.03-.07-.08-.15-.12-.21-.06-.09-.13-.19-.22-.28-.02-.04-.05-.06-.07-.09l-.14-.18c-.13-.16-.29-.3-.49-.49-.09-.08-.19-.18-.29-.26-.1-.08-.21-.17-.3-.24l-.06-.04-.05-.04c-.11-.08-.23-.19-.34-.27-.08-.05-.14-.1-.23-.16-.05-.03-.1-.06-.14-.1-.05-.03-.1-.07-.14-.1-.08-.05-.17-.11-.24-.16-.11-.08-.24-.16-.36-.24l-.05-.03c-.13-.07-.27-.18-.4-.26-.12-.08-.25-.17-.37-.24-.25-.17-.55-.34-.83-.51-.25-.11-.47-.22-.67-.3h-.02l-.07-.03h-.03l-.06-.03s-.09-.04-.14-.05c-.03-.01-.05-.02-.07-.03-.18-.06-.35-.1-.5-.14h-.09l-.03-.02h-.03l-.35-.08c-.09-.01-.21-.03-.33-.03s-.24,0-.35,.02c-.09,0-.2,.04-.31,.09l-.05,.02c-.05,.02-.12,.06-.19,.1h-.03s-.07,.06-.09,.1c-.03,.03-.07,.07-.1,.13-.02,.04-.05,.1-.07,.17-.03,.09-.04,.19-.03,.3,0,.09,.04,.2,.07,.29,.08,.24,.18,.48,.26,.71l.06,.14,.08,.19c.04,.1,.07,.22,.11,.33,.07,.23,.12,.46,.17,.69,.05,.22,.09,.44,.11,.66v.07c.05,.26,.1,.52,.17,.77,.06,.21,.12,.42,.19,.62,.02,.05,.04,.11,.05,.17,.13,.42,.32,.89,.56,1.44l.04,.1c.22,.51,.43,.95,.66,1.33v.07h.01Z" fill="#f89fa3"/><path d="M61.63,12.29l.06,.14c.09,.22,.21,.43,.31,.65,.12,.26,.27,.52,.4,.77,.14,.25,.3,.51,.46,.77,.11,.18,.24,.37,.36,.53l.12,.2c.15,.24,.33,.49,.52,.73,.08,.1,.17,.2,.26,.29,.11,.1,.22,.21,.34,.29,.06,.04,.13,.07,.22,.1,.05,.02,.09,.04,.14,.03,.05-.02,.09-.04,.11-.09,.02-.04,.04-.09,.03-.15v-.03s-.06-.08-.09-.08c0,0-.08-.03-.12-.05v-.06c-.04-.36-.06-.72-.07-1.16v.02c-.03-.51-.05-1.09,.03-1.67v-.09s-.11-.03-.13-.09l-.02-.04c0-.06-.02-.14-.05-.22v-.03s-.04-.06-.06-.1c-.12-.19-.28-.34-.42-.49-.09-.09-.2-.2-.29-.3-.23-.26-.4-.57-.59-.85l-.07-.13c-.05-.08-.1-.16-.16-.23l-.02-.04-.02-.02c-.05-.07-.11-.17-.17-.25-.1-.17-.21-.35-.3-.5v-.03l-.09-.13c-.23-.39-.44-.83-.66-1.33l-.04-.1c-.25-.56-.42-1.02-.56-1.44-.02-.05-.03-.1-.05-.17-.06-.19-.12-.4-.19-.62-.06-.25-.11-.5-.17-.77v-.07c-.03-.22-.06-.44-.11-.66-.04-.23-.09-.46-.17-.69-.04-.11-.07-.23-.11-.33l-.08-.19-.06-.14c-.09-.22-.18-.46-.26-.71v-.02c-.03-.09-.07-.19-.07-.29-.02-.11,0-.21,.03-.3,.02-.06,.05-.13,.07-.17,.03-.06,.07-.1,.1-.13,.03-.03,.07-.05,.1-.08h.03c.06-.06,.12-.09,.19-.11l.05-.02c.11-.06,.22-.09,.31-.1,.12,0,.23-.02,.35-.02s.23,.01,.33,.03l.35,.07h.03l.03,.02h.07c.17,.05,.34,.08,.52,.15,.03,.01,.04,.02,.07,.03,.05,.02,.09,.04,.14,.05l.06,.02h.03l.08,.03-.05-.02c.24,.08,.49,.2,.73,.32,.29,.17,.59,.34,.83,.51,.12,.08,.25,.17,.37,.24,.13,.08,.27,.18,.4,.26l.05,.03c.12,.07,.25,.16,.36,.24,.08,.05,.17,.11,.24,.16,.05,.03,.1,.07,.14,.1,.04,.03,.1,.06,.16,.1,.07,.04,.14,.1,.23,.16,.11,.08,.24,.18,.34,.27l.05,.04,.06,.04c.09,.08,.21,.16,.3,.24,.09,.08,.2,.17,.29,.26,.21,.19,.35,.34,.49,.49l.14,.18s.05,.06,.07,.09c.07,.09,.14,.19,.22,.28,.04,.06,.08,.14,.12,.21l.07,.17,.04,.08s.06,.08,.11,.1,.11,.02,.16-.01c.02,0,.05-.02,.06-.04l.06-.03h.03l.03-.05s.06-.07,.07-.13c.03-.07,.02-.14,0-.19,0,0-.02-.04-.03-.04l-.04-.1s-.05-.07-.07-.1c-.02-.03-.04-.08-.07-.11-.02-.04-.03-.07-.07-.1,0-.02-.02-.04-.04-.06,0-.02-.02-.04-.03-.05-.02-.05-.05-.07-.07-.11-.02-.04-.05-.07-.08-.11-.05-.07-.1-.14-.17-.21,0,0-.05-.06-.07-.09,0,0-.05-.06-.07-.08-.01-.03-.04-.05-.06-.07-.03-.03-.06-.06-.08-.09-.03-.03-.06-.06-.08-.09l-.1-.1-.1-.11s-.03-.03-.04-.05c-.01-.02-.03-.03-.04-.04-.03-.03-.06-.07-.1-.1-.04-.04-.06-.07-.09-.11-.03-.03-.06-.06-.08-.09-.06-.07-.13-.15-.2-.21-.03-.03-.06-.06-.09-.09-.04-.04-.08-.08-.1-.11-.03-.03-.06-.05-.09-.08,0-.02-.04-.04-.06-.05l-.02-.04s-.03-.01-.03-.02c-.02-.01-.04-.04-.06-.05,0-.02-.03-.03-.04-.04-.03-.03-.07-.06-.1-.09-.02-.01-.04-.04-.06-.05,0-.02-.03-.02-.05-.03-.03-.03-.07-.06-.1-.09-.03-.03-.07-.06-.11-.08-.03-.03-.07-.06-.1-.09-.03-.03-.08-.06-.12-.09-.04-.03-.06-.05-.1-.08-.02-.01-.03-.03-.06-.04-.03-.01-.03-.03-.06-.05-.03-.03-.06-.05-.1-.08-.02-.01-.03-.02-.05-.03-.02-.01-.03-.03-.06-.03-.03-.02-.05-.04-.08-.06-.03-.03-.06-.05-.1-.06-.03-.03-.06-.05-.1-.06-.03-.02-.06-.04-.1-.05-.04-.01-.07-.03-.1-.05-.02-.01-.03-.02-.04-.02-.02-.01-.03-.03-.05-.03-.04-.02-.07-.04-.11-.06-.08-.04-.17-.09-.25-.14l-.07-.03s-.04-.02-.05-.02c-.05-.02-.09-.04-.14-.06l-.05-.02s-.04-.02-.07-.03c-.04-.02-.08-.04-.12-.06-.04-.02-.08-.04-.12-.06-.04-.02-.08-.04-.13-.06-.05-.02-.08-.04-.12-.06-.04-.02-.08-.04-.13-.06-.09-.04-.18-.07-.27-.1-.03-.01-.04-.02-.07-.03-.03-.01-.04-.02-.06-.03-.04-.02-.08-.04-.12-.06-.03-.01-.05-.02-.07-.03-.02,0-.04-.02-.05-.02l-.13-.05s-.03-.01-.05-.01-.04-.02-.06-.02c-.03-.01-.05-.02-.07-.03-.05-.01-.09-.03-.14-.04-.05-.01-.1-.03-.15-.04-.04-.02-.08-.02-.13-.04-.03-.01-.05-.01-.06-.02-.03-.01-.05-.02-.08-.02-.05-.01-.1-.03-.14-.05-.04,0-.07-.03-.09-.04-.12-.03-.24-.06-.36-.07-.05-.01-.11-.02-.17-.03-.06-.02-.13-.02-.21-.03-.2-.03-.38-.05-.57-.06l-.3-.03c-.12-.01-.26-.01-.39,0-.14,.02-.28,.04-.42,.06h-.06c-.06,.02-.13,.04-.2,.05l-.21,.07-.05,.02c-.17,.04-.31,.1-.44,.15h-.03c-.12,.06-.26,.11-.37,.2-.07,.05-.11,.09-.17,.15-.05,.06-.08,.11-.12,.19v.03s-.03,.04-.03,.06c-.01,.03-.02,.06-.01,.09v.03s-.01,.1,0,.18l.02,.05c.04,.09,.1,.17,.18,.24v.02c.14,.17,.29,.35,.41,.52l.02,.05c.12,.16,.22,.33,.3,.5,.08,.16,.16,.31,.24,.49l.03,.06c.03,.06,.06,.14,.07,.21l.07,.17c.05,.15,.09,.26,.12,.38,.02,.08,.04,.16,.06,.24,.02,.05,.03,.1,.05,.16,.02,.07,.04,.15,.05,.21,.02,.05,.04,.11,.06,.19,.03,.14,.08,.26,.11,.39,.04,.15,.08,.28,.12,.42l.07,.3,.02,.09c.01,.08,.05,.16,.06,.24,.02,.05,.03,.1,.04,.16,.03,.11,.05,.22,.08,.32v.08l.07,.24c.02,.05,.03,.11,.05,.17l.04,.17c.05,.22,.11,.44,.18,.66,.18,.6,.34,1.15,.53,1.67,.06,.19,.14,.39,.21,.55,.11,.29,.23,.58,.34,.88l.06,.16c.09,.21,.19,.42,.29,.65l.07-.07h-.05Z" fill="#f8c9b8"/><path d="M62.8,15.19c.16,.14,.3,.27,.44,.41,.14,.11,.29,.25,.43,.36,.05,.03,.13,.04,.19,.04,.05-.02,.11-.05,.16-.11,.03-.06,.05-.13,.04-.19-.02-.07-.05-.11-.11-.16-.14-.11-.28-.24-.42-.34-.16-.11-.3-.23-.44-.34-.03-.02-.07-.03-.1-.03-.05,0-.11,.02-.16,.06-.04,.04-.07,.1-.07,.16,0,.03,0,.06,.02,.1,0,.02,.02,.04,.03,.05h0Z" fill="#ffddce"/><path d="M61.85,13.19c.1,.09,.23,.19,.34,.27,.05,.03,.09,.06,.14,.09,.06,.03,.11,.07,.18,.11,.12,.07,.23,.14,.35,.2,.13,.07,.28,.14,.4,.21h-.03s.07,.02,.12,.04c.03,.02,.09,0,.13-.01,.04-.01,.07-.05,.08-.09,.01-.04,0-.09-.01-.14-.02-.05-.06-.06-.09-.08-.03-.01-.05-.02-.08-.03-.1-.05-.21-.1-.31-.16-.06-.03-.11-.05-.17-.08-.07-.03-.13-.08-.21-.13-.1-.06-.22-.14-.32-.2-.12-.08-.25-.18-.35-.26-.03-.03-.08-.03-.12-.02-.04,.01-.07,.03-.09,.06-.03,.03-.03,.08-.02,.13v.03s.04,.04,.08,.07h-.01l-.02-.02Z" fill="#ffddce"/><path d="M60.87,11.72c.06,.08,.12,.16,.23,.22,.03,.03,.07,.04,.12,.07,.1,.05,.21,.1,.31,.15,.08,.02,.17,.06,.24,.08,.13,.04,.25,.08,.37,.13,.14,.04,.3-.03,.35-.18,.05-.15-.03-.3-.18-.35-.2-.05-.38-.11-.57-.19-.14-.05-.3-.1-.44-.17,0-.02-.03-.02-.04-.02,0-.02-.02-.02-.04-.04-.08-.08-.23-.1-.32-.02-.05,.04-.07,.1-.07,.16,0,.04,0,.06,.02,.09l.03,.07h-.01Z" fill="#ffddce"/><path d="M60.13,10.43l.06,.05c.11,.1,.22,.2,.34,.28,.12,.08,.25,.17,.37,.24,.3,.19,.6,.39,.89,.57,.12,.07,.28,.05,.35-.07,.07-.11,.05-.28-.07-.35-.3-.19-.6-.38-.89-.57-.12-.08-.26-.17-.37-.26-.14-.09-.27-.21-.41-.32-.05-.04-.13-.05-.2-.04-.07,0-.12,.05-.17,.11-.04,.06-.06,.13-.04,.2l.02,.05s.05,.07,.09,.11h.02Zm.03,0v0Z" fill="#ffddce"/><path d="M59.02,6.76c.2,.23,.45,.38,.72,.52,.24,.14,.49,.27,.73,.41,.06,.03,.12,.06,.2,.04,.06,0,.12-.05,.17-.11,.04-.06,.05-.14,.04-.2-.01-.06-.06-.14-.11-.17-.24-.14-.49-.25-.72-.39-.11-.06-.22-.11-.34-.18-.13-.07-.28-.15-.4-.25-.07-.06-.2-.04-.27,.01-.07,.06-.08,.17-.05,.25,0,.02,.02,.04,.04,.06Z" fill="#ffddce"/><path d="M58.89,5.72c.12,.19,.3,.32,.49,.45,.18,.13,.37,.23,.55,.33,.1,.06,.25,.04,.31-.06,.06-.1,.04-.26-.06-.31-.24-.15-.49-.28-.71-.46-.09-.07-.17-.16-.24-.25-.07-.09-.23-.1-.32-.02-.04,.04-.07,.1-.07,.16,0,.04,0,.06,.02,.09,0,.02,.02,.05,.04,.06h0Z" fill="#ffddce"/><path d="M58.17,3.63c.11,.15,.23,.27,.35,.42,.05,.06,.1,.1,.13,.16,.05,.07,.1,.14,.17,.21,.09,.11,.2,.23,.28,.36,.1,.13,.2,.27,.3,.4,.05,.07,.11,.17,.17,.26,.02,.04,.05,.06,.09,.08h.12s.07-.05,.07-.09v-.13c-.19-.29-.39-.59-.61-.85-.1-.14-.22-.28-.33-.41-.05-.06-.09-.1-.14-.17-.05-.07-.11-.14-.17-.2-.06-.07-.12-.15-.19-.22-.05-.07-.15-.07-.21-.01-.06,.05-.06,.11-.04,.18l.02,.04v-.02h-.02Z" fill="#ffddce"/><path d="M58.71,.56c.07,.07,.14,.15,.21,.22,.05,.07,.1,.15,.17,.21,.11,.16,.22,.31,.32,.46,.02,.05,.1,.07,.16,.07s.11-.02,.15-.06c.04-.04,.07-.1,.07-.16s-.02-.1-.06-.16c-.1-.16-.21-.3-.32-.46-.05-.07-.1-.14-.16-.2-.07-.08-.14-.16-.22-.22,0-.02-.02-.02-.04-.04-.03-.02-.07-.03-.1-.03-.05,0-.11,.02-.15,.06-.04,.04-.07,.1-.07,.16,0,.02,0,.06,.02,.09,0,.02,.02,.04,.03,.05Z" fill="#ffddce"/><path d="M60.74,.21c.12,.24,.31,.45,.49,.65,.05,.06,.12,.06,.19,0,.06-.06,.06-.15,0-.19-.08-.09-.17-.2-.25-.29-.07-.09-.14-.18-.2-.28v-.02c-.03-.06-.1-.09-.15-.05-.05,.02-.08,.1-.05,.16l-.02,.03Z" fill="#ffddce"/><path d="M61.94,.53c.1,.15,.21,.29,.32,.44,.11,.16,.24,.29,.37,.43,.08,.09,.24,.11,.34,.02,.1-.09,.1-.25,.02-.34-.13-.15-.25-.29-.37-.43-.1-.15-.22-.28-.34-.42-.07-.09-.23-.1-.31-.02-.04,.04-.07,.1-.07,.16,0,.04,0,.06,.02,.09,0,.02,.02,.05,.04,.06h-.02Z" fill="#ffddce"/><path d="M62.93,.42c.24,.5,.48,.99,.7,1.49,.04,.1,.18,.14,.27,.08,.1-.04,.12-.17,.08-.27-.22-.51-.45-.99-.7-1.49-.04-.09-.16-.14-.25-.08-.09,.04-.13,.16-.09,.26h-.01Z" fill="#ffddce"/><path d="M45.08,45.29c-.33,0-.6,.28-.6,.6s.27,.6,.6,.6,.6-.27,.6-.6-.28-.6-.6-.6Z" fill="#f8d7c8"/><path d="M42.25,33.67c-.18,0-.33,.15-.33,.33s.14,.33,.33,.33,.33-.15,.33-.33-.14-.33-.33-.33Z" fill="#f8d7c8"/><path d="M43.89,40.04c-.11,0-.22,.1-.22,.22s.09,.22,.22,.22,.22-.1,.22-.22-.09-.22-.22-.22Z" fill="#f8d7c8"/><path d="M46.11,41.65c-.07,0-.12,.06-.12,.14s.06,.14,.12,.14c.07,0,.13-.06,.13-.14s-.06-.14-.13-.14Z" fill="#f8d7c8"/><path d="M20.98,6.78c-.19,0-.35,.17-.35,.35s.17,.35,.35,.35,.35-.17,.35-.35-.17-.35-.35-.35Z" fill="#f8d7c8"/><path d="M25.99,7.14c-.12,0-.23,.1-.23,.23s.1,.23,.23,.23,.24-.1,.24-.23-.1-.23-.24-.23Z" fill="#f8d7c8"/><path d="M25.33,8.93c-.14,0-.28,.13-.28,.28s.12,.28,.28,.28,.28-.13,.28-.28-.12-.28-.28-.28Z" fill="#f8d7c8"/><path d="M27.45,9.87c-.19,0-.34,.16-.34,.33s.16,.34,.34,.34,.33-.16,.33-.34-.15-.33-.33-.33Z" fill="#f8d7c8"/><path d="M41.8,9.38c-.21,0-.38,.18-.38,.39s.18,.38,.38,.38,.37-.18,.37-.38-.18-.39-.37-.39Z" fill="#f8d7c8"/><path d="M43.43,10.86c-.16,0-.28,.13-.28,.28s.12,.28,.28,.28,.28-.13,.28-.28-.13-.28-.28-.28Z" fill="#f8d7c8"/><path d="M46.99,8.63c-.16,0-.29,.13-.29,.29s.13,.29,.29,.29,.29-.14,.29-.29-.13-.29-.29-.29Z" fill="#f8d7c8"/><path d="M40.46,10.89c-.19,0-.34,.16-.34,.34s.16,.34,.34,.34,.33-.16,.33-.34-.16-.34-.33-.34Z" fill="#f8d7c8"/><path d="M39.15,12.51c-.2,0-.36,.17-.36,.36s.17,.36,.36,.36,.36-.17,.36-.36-.17-.36-.36-.36Z" fill="#f8d7c8"/><path d="M37.72,13.1c0,.1,.09,.2,.19,.2s.2-.09,.2-.2-.09-.19-.2-.19-.19,.08-.19,.19Z" fill="#f8d7c8"/><path d="M69.96,5.14c-.05,.05-.07,.13-.07,.2s.04,.15,.1,.2c.06,.05,.12,.06,.21,.06,.07,0,.14-.05,.19-.1s.07-.13,.06-.2c0-.07-.04-.15-.1-.19-.05-.05-.12-.06-.2-.06s-.14,.04-.19,.09Z" fill="#f8d7c8"/><path d="M70.31,5.9c-.15,0-.29,.13-.29,.29s.13,.29,.29,.29,.29-.13,.29-.29-.12-.29-.29-.29Z" fill="#f8d7c8"/><path d="M71.93,5.21c-.14,0-.26,.13-.26,.26s.12,.26,.26,.26,.26-.13,.26-.26-.11-.26-.26-.26Z" fill="#f8d7c8"/><path d="M72.86,6.1c-.13,0-.26,.11-.26,.25s.11,.26,.26,.26,.26-.11,.26-.26-.11-.25-.26-.25Z" fill="#f8d7c8"/><path d="M24.28,55.04c-.13,.07-.17,.23-.11,.36,.02,.04,.04,.09,.05,.14,.04,.09,.07,.18,.09,.27,.04,.11,.08,.22,.1,.34,.06,.25,.1,.51,.13,.76,0,.07,.07,.15,.12,.18,.05,.04,.12,.05,.19,.04,.04,.05,.08,.08,.14,.1,.07,0,.14,0,.21-.02,.08-.04,.13-.13,.13-.22,0-.14-.05-.27-.09-.39,0,.02,.02,.04,.02,.06-.13-.38-.3-.74-.45-1.09,0-.02-.02-.03-.02-.04-.02-.04-.03-.07-.04-.11-.04-.09-.07-.2-.12-.28-.04-.06-.08-.1-.15-.13h-.08s-.08,0-.12,.03h.01Z" fill="#f8c9b8"/><path d="M18.44,59.46s-.09,.03-.11,.07c-.04,.01-.07,.04-.09,.07-.03,.04-.05,.09-.07,.14l-.03,.05c-.03,.05-.06,.1-.11,.16-.04,.05-.09,.09-.16,.14-.1,.07-.24,.14-.39,.21-.14,.05-.28,.08-.39,.09-.14,0-.3,.02-.42,.02h-.14c-.22,0-.42-.04-.61-.07-.15-.03-.32-.06-.48-.1l-.08-.02c-.2-.04-.39-.09-.61-.17-.09-.03-.2-.06-.3-.09l-.05-.02c-.07-.02-.14-.05-.22-.06-.11-.03-.22-.05-.3-.05h-.1s-.08,.02-.11,.04c-.02,0-.04,.02-.07,.05-.04,.04-.05,.06-.07,.1-.03,.07-.02,.13-.02,.2v.36c0,.13,.02,.26,.02,.38,.02,.21,.04,.45,.07,.68,.03,.2,.06,.4,.1,.65,.04,.21,.08,.42,.13,.64,.02,.05,.03,.1,.04,.15v.02c.03,.06,.05,.13,.08,.19,.02,.04,.05,.08,.07,.11,.03,.04,.06,.07,.1,.1,.05,.04,.11,.06,.17,.08,.04,.02,.09,.02,.14,.02h.11s.08-.02,.11-.04h.01s.02-.02,.04-.02c.04-.02,.08-.05,.12-.08,.05-.04,.09-.07,.14-.11,.09-.09,.2-.2,.28-.3,.07-.08,.12-.2,.2-.31v.05s.04,.07,.04,.1c.06,.23,.12,.43,.23,.62,.05,.11,.12,.22,.21,.32,.04,.05,.09,.09,.14,.13,.02,.02,.07,.04,.09,.05h.02s.07,.02,.1,.03c.05,0,.1,0,.15-.02,.03,0,.07-.02,.11-.04,.1-.04,.21-.11,.29-.2,.07-.06,.14-.14,.22-.22l.02-.02,.02-.02c.06-.07,.13-.15,.21-.23l.02-.03h-.01c.07-.07,.13-.15,.21-.25,.06-.09,.11-.2,.17-.28l.02-.05c.04-.07,.09-.16,.12-.24,.05-.1,.09-.22,.14-.32,.09-.23,.17-.42,.24-.6,.03-.1,.05-.22,.08-.32l.02-.06c.02-.08,.04-.17,.05-.26,.04-.21,.08-.41,.1-.63,.02-.09,.03-.21,.04-.32v-.32c0-.07-.05-.13-.11-.14h.02l.02,.03Z" fill="#f89fa3"/><path d="M23.99,57.61s-.07,.02-.1,.04c-.06,.07-.02,.17,.02,.25v.03c.05,.1,.11,.21,.16,.31l.02,.07,.03,.07,.03,.08c.04,.11,.07,.22,.11,.33,.02,.05,.04,.1,.06,.16,.03,.08,.06,.17,.09,.25,.05,.15,.1,.27,.15,.39,.03,.06,.05,.13,.08,.19l.11,.23c.03,.05,.06,.1,.09,.16l.02,.02c.07,.13,.17,.24,.24,.36,.09,.13,.17,.23,.24,.31,.03,.03,.05,.06,.08,.09,.04,.04,.07,.06,.12,.09,.04,.03,.1,.04,.17,.04,.04,0,.07,0,.1-.02,.05-.02,.1-.06,.12-.09,.04-.04,.06-.1,.08-.15,.02-.04,.02-.1,.03-.16v-.82l.02,.05,.02,.05c.07,.15,.13,.28,.21,.41,.07,.13,.13,.22,.2,.31,.04,.05,.09,.11,.14,.17,.02,.03,.06,.05,.09,.07,.04,.03,.09,.04,.17,.04,.06,0,.12-.03,.19-.08,.04-.04,.06-.11,.07-.16v-.24c0-.16-.04-.31-.06-.47v-.05c-.03-.13-.05-.25-.06-.38v-.09c-.02-.09-.03-.18-.04-.26,0-.08-.02-.18-.04-.27,0-.04,0-.09-.02-.15,0-.05-.02-.11-.03-.17v-.08s-.02-.1-.03-.15c-.02-.11-.12-.21-.22-.25-.05-.02-.09-.03-.14-.04h-.09c-.07,0-.14-.02-.22-.02s-.14-.02-.23-.02c-.06,0-.11,0-.18-.02-.12,0-.26-.02-.39-.04-.12-.02-.26-.04-.38-.08-.02,0-.04,0-.07-.02-.04,0-.08-.02-.12-.03-.03,0-.06,0-.09-.02-.03-.02-.07,0-.1-.02-.05-.02-.11-.03-.17-.05l-.04-.02s-.09-.03-.13-.05c-.02,0-.04,0-.05-.02-.03,0-.06-.02-.09-.02s-.05-.02-.08-.04l-.03-.02h-.02s-.02-.03-.03-.03h-.06l.05,.03h.01Z" fill="#f89fa3"/><path d="M48.61,48.21c-.06,.02-.12,.05-.16,.11-.04,.06-.04,.12-.03,.2,.04,.19,.08,.38,.11,.56,.03,.25,.06,.5,.1,.75,.04,.25,.08,.49,.13,.73,.09,.48,.18,.97,.29,1.45,.05,.22,.11,.42,.19,.64s.13,.43,.2,.65c.06,.21,.11,.43,.19,.64,.08,.25,.18,.5,.3,.73,.05,.09,.18,.13,.26,.07,.04-.03,.07-.07,.09-.11,.02-.05,0-.09-.02-.15-.09-.23-.14-.47-.2-.7-.06-.24-.11-.48-.17-.72-.06-.25-.12-.49-.2-.73-.03-.11-.06-.22-.09-.33-.03-.13-.05-.26-.08-.39-.07-.35-.13-.71-.21-1.06-.07-.38-.14-.75-.2-1.13-.02-.17-.04-.34-.06-.52,0-.07-.03-.15-.04-.22-.02-.09-.04-.18-.05-.27-.02-.11-.13-.19-.25-.19h-.06l-.05-.02h0Z" fill="#f8c9b8"/><path d="M59.19,46.23c0,.15,.02,.3,.04,.45,0,.16,.03,.31,.04,.47,.02,.29,.04,.58,.06,.89,.02,.31,.04,.62,.04,.94,0,.29,.02,.58,0,.88,0,.26-.02,.51-.05,.77-.04,.27-.07,.54-.16,.8-.08,.28-.17,.56-.24,.84-.04,.15-.07,.29-.11,.44-.03,.15-.06,.28-.09,.42-.06,.27-.12,.54-.19,.81-.03,.14-.05,.27-.09,.41-.02,.13-.06,.25-.09,.36-.04,.15-.07,.29-.09,.44-.03,.16-.04,.31-.07,.46-.03,.13,.04,.26,.17,.29,.12,.03,.25-.04,.29-.17,.05-.15,.08-.29,.11-.44,.03-.14,.06-.27,.09-.4,.04-.13,.07-.24,.1-.38,.03-.13,.06-.27,.09-.41,.05-.27,.12-.53,.2-.8,.03-.15,.07-.28,.11-.43,.04-.15,.07-.29,.11-.44,.08-.27,.18-.55,.27-.82,.04-.14,.08-.27,.1-.42,.03-.16,.06-.31,.08-.47,.09-.59,.09-1.2,.07-1.79,0-.46-.04-.9-.06-1.36-.02-.24-.03-.47-.05-.71-.02-.22-.04-.44-.05-.66,0-.08-.03-.17-.09-.23-.06-.05-.14-.09-.23-.09-.17,0-.33,.15-.32,.32h0Z" fill="#f8c9b8"/><path d="M52.73,62.75h-.04s-.05,.03-.07,.06c-.02,.03-.02,.07,0,.11,0,0,0,.02,.02,.04-.02,.04-.02,.09,0,.14,.02,.03,.03,.05,.05,.08,.02,.05,.05,.09,.08,.15l.03,.06c.03,.05,.05,.1,.08,.16,.04,.07,.08,.16,.12,.24,.02,.03,.04,.07,.07,.11,.02,.03,.04,.06,.05,.09,.09,.17,.19,.31,.27,.43,.05,.07,.1,.15,.17,.21,.04,.05,.07,.09,.11,.15,.13,.18,.28,.34,.4,.49v.02l.05,.05c.08,.09,.17,.2,.26,.29,.04,.04,.09,.09,.14,.15,.06,.07,.12,.13,.2,.18,.03,.02,.05,.03,.09,.04,0,0,.07,.04,.11,.05h.09c.06,0,.12-.01,.19-.02,.03,0,.05-.01,.07-.02,.05-.02,.09-.05,.14-.09,.04-.04,.07-.11,.09-.16,.03-.07,.05-.16,.07-.26,.02-.11,.02-.23,.03-.33v-.25s.03,.05,.05,.07c.05,.07,.12,.15,.19,.22,.05,.06,.11,.11,.18,.17,.06,.05,.11,.09,.17,.14,.06,.05,.14,.11,.24,.15,.03,.01,.06,.03,.09,.04h.02s.06,.03,.09,.04,.07,.02,.1,.02h.11s.07,0,.1-.02c.07-.03,.12-.07,.15-.14,.05-.1,.05-.23,.05-.34v-.24c0-.13-.02-.24-.04-.36,0-.04,0-.09-.02-.14v-.09c0-.05,0-.09-.02-.15,0-.08-.02-.17-.03-.26-.01-.09-.02-.2-.02-.3,0-.07,0-.15-.02-.22,0-.07-.02-.15-.03-.22,0-.06-.02-.13-.02-.2v-.13s-.02-.04-.03-.06c-.02-.04-.05-.06-.08-.08,0,0-.12-.04-.17-.04h-.07c-.08,.01-.17,.03-.24,.05-.02,0-.05,.01-.07,.02-.03,.01-.06,.02-.09,.02l-.19,.05c-.08,.02-.17,.04-.24,.06-.11,.01-.24,.03-.36,.03h-.42c-.17,0-.29,0-.41,.02-.11,.01-.24,.02-.35,.02h-.06c-.06,0-.12-.02-.2-.03-.03,0-.05,0-.09-.02-.03,0-.06,0-.09-.02-.06,0-.12-.02-.2-.03-.04-.01-.07-.02-.11-.04-.02,0-.04-.01-.05-.02-.04,0-.07-.02-.11-.02-.02,0-.04,0-.05-.02-.02,0-.05,0-.07-.02-.04,0-.07-.02-.1-.02h-.06s-.06-.02-.09-.04c-.03-.01-.06-.02-.08-.04-.02-.01-.04-.02-.06-.03h-.03l-.02,.06h-.02Z" fill="#f89fa3"/><path d="M61.8,60.51s-.04,0-.06,.01c-.05,.02-.09,.05-.11,.1-.02,.04-.02,.1,0,.16-.03,.05-.03,.1-.02,.16l.02,.05c.02,.07,.05,.14,.07,.2,.03,.08,.06,.16,.09,.23l.04,.08s.04,.08,.06,.13c.02,.04,.04,.08,.05,.13,.01,.03,.02,.06,.04,.09l.02,.05c.07,.15,.13,.3,.22,.44,.07,.11,.17,.24,.27,.39,.06,.07,.12,.15,.19,.22,.05,.05,.09,.09,.17,.15,.06,.05,.14,.1,.23,.15,.09,.04,.19,.07,.3,.07,.05,0,.09,0,.12-.02h.02c.05-.01,.11-.05,.14-.08,.02-.02,.04-.05,.05-.07,.02-.03,.03-.06,.04-.1,.01-.04,.02-.07,.02-.1,0-.06,.01-.13,.01-.19v-.18s.07,.07,.1,.11c.07,.06,.12,.13,.18,.17l.02,.02c.07,.06,.14,.14,.24,.16,.03,.01,.07,.02,.11,.02,.09,0,.18-.05,.22-.13,.04-.06,.04-.14,.04-.2v-.13c-.01-.11-.02-.24-.03-.36v-.15c-.02-.09-.04-.18-.05-.26,0-.03-.01-.05-.02-.08-.02-.08-.03-.17-.05-.25v-.06c-.03-.08-.04-.17-.06-.25-.02-.09-.03-.17-.03-.23v-.06c0-.05-.01-.09-.04-.14-.04-.07-.12-.09-.19-.09-.04,0-.07,0-.11,.02-.05,.02-.09,.03-.13,.05-.03,.02-.07,.03-.1,.04-.07,.02-.14,.04-.22,.06-.17,.03-.3,.04-.41,.04h-.09c-.07,0-.13-.01-.2-.02-.07,0-.14-.02-.22-.03-.09-.01-.18-.04-.25-.07h-.02c-.06-.04-.12-.06-.2-.08-.03-.01-.06-.02-.09-.03-.02,0-.05-.01-.07-.02-.03-.01-.06-.03-.09-.04l-.03-.02s-.08-.04-.12-.04h-.05Z" fill="#f89fa3"/><path d="M47.43,48.87c-.23,0-.42,.2-.42,.43s.2,.43,.42,.43,.42-.2,.42-.43-.2-.43-.42-.43Z" fill="#f8d7c8"/><path d="M45.79,49.78c-.17,0-.31,.15-.31,.32s.14,.32,.31,.32,.32-.15,.32-.32-.14-.32-.32-.32Z" fill="#f8d7c8"/><path d="M45.64,51.49c-.17,0-.29,.14-.29,.29s.13,.29,.29,.29,.29-.14,.29-.29-.13-.29-.29-.29Z" fill="#f8d7c8"/><path d="M54.89,52.59c-.14,0-.27,.13-.27,.27s.12,.27,.27,.27,.27-.13,.27-.27-.12-.27-.27-.27Z" fill="#f8d7c8"/><path d="M89.85,17.88c.29,.82,.23,1.41,.07,1.82-.18,.46-.4,.55-.64,1.08-.06,.15-.11,.28-.16,.42-.15,.56-.14,1.03-.12,1.36,.04,.68,.09,1.53,.19,2.55,.18,0,.44-.03,.74-.14,.16-.05,.29-.1,.4-.18,.21-.14,.4-.44,.5-2.07,.03-.6-.02-.54,.03-.8,.14-.75,.56-.88,1.13-1.81,.35-.57,.78-1.29,.52-1.87-.13-.31-.43-.49-.53-.55-.4-.25-.8-.24-.99-.23-.57,.02-.97,.29-1.14,.42Z" fill="#f89fa3"/><path d="M90.47,20.34c-.52,.19-.64,.98-.66,1.11-.05,.33-.04,.85,.14,.92,.11,.04,.27-.09,.35-.23,.14-.24-.03-.4,.06-.67,.12-.36,.53-.32,.6-.67,.03-.17-.01-.38-.14-.46-.13-.08-.3-.02-.35,0Z" fill="#eb8f9c"/></g></g></g></svg>