<?xml version="1.0" encoding="UTF-8"?><svg id="b" xmlns="http://www.w3.org/2000/svg" viewBox="0 0 80 80"><g id="c"><g id="d"><path d="m80,40C80,17.91,62.09,0,40,0,17.91,0,0,17.91,0,40s17.91,40,40,40c22.09,0,40-17.91,40-40Z" fill="#e5aa17"/><path d="m39.94,20.19c-.55-.3-1.22-.27-1.74.07l-15.34,9.96h-5.67c-.94,0-1.71.76-1.71,1.71v14.95c0,.94.76,1.71,1.71,1.71h5.67l15.34,9.96c.28.18.61.28.93.28.28,0,.56-.07.81-.21.55-.3.89-.87.89-1.5V21.69c0-.63-.34-1.2-.89-1.5Z" fill="#fff"/><path d="m45.58,51.48c.14,0,.29-.03.43-.08,3.91-1.52,6.53-6.21,6.53-11.67,0-4.83-2.13-9.2-5.42-11.13-.57-.33-1.3-.14-1.64.43-.33.57-.14,1.3.43,1.64,2.58,1.51,4.24,5.07,4.24,9.06,0,4.41-2.06,8.29-5.01,9.44-.62.24-.92.93-.68,1.55.18.47.64.76,1.12.76Z" fill="#fff"/><path d="m48.71,56.47c.14,0,.29-.03.43-.08,5.49-2.13,9.32-9.03,9.32-16.77,0-6.96-3.04-13.25-7.76-16.01-.57-.33-1.3-.14-1.64.43-.33.57-.14,1.3.43,1.64,3.99,2.34,6.57,7.81,6.57,13.94,0,6.78-3.21,12.75-7.8,14.54-.62.24-.92.93-.68,1.55.18.47.64.76,1.12.76Z" fill="#fff"/><path d="m51.92,61.22c-.48,0-.94-.29-1.13-.77-.24-.62.07-1.32.69-1.56,6.25-2.43,10.62-10.38,10.62-19.35,0-8.08-3.48-15.35-8.88-18.51-.58-.34-.77-1.08-.43-1.65.34-.58,1.08-.77,1.65-.43,6.12,3.58,10.07,11.67,10.07,20.59,0,9.94-5,18.83-12.16,21.61-.14.06-.29.08-.44.08Z" fill="#fff"/></g></g></svg>