<?xml version="1.0" encoding="utf-8"?>
<!-- Generator: Adobe Illustrator 27.2.0, SVG Export Plug-In . SVG Version: 6.00 Build 0)  -->
<svg version="1.1" id="Layer_1" xmlns="http://www.w3.org/2000/svg" xmlns:xlink="http://www.w3.org/1999/xlink" x="0px" y="0px"
	 viewBox="0 0 879.2 621.23" enable-background="new 0 0 879.2 621.23" xml:space="preserve">
<path fill="#E6E6E6" d="M758.23,353.19H104.77c-3.82,0-6.91-3.1-6.92-6.92V26.92c0-3.82,3.1-6.91,6.92-6.92h653.46
	c3.82,0,6.91,3.1,6.92,6.92v319.36C765.14,350.09,762.05,353.19,758.23,353.19z M104.77,22.77c-2.29,0-4.15,1.86-4.15,4.15v319.36
	c0,2.29,1.86,4.15,4.15,4.15h653.46c2.29,0,4.15-1.86,4.15-4.15V26.92c0-2.29-1.86-4.15-4.15-4.15H104.77z"/>
<path fill="#E6E6E6" d="M271.23,250.3H141.77c-3.82,0-6.91-3.1-6.92-6.92V104.02c0-3.82,3.1-6.91,6.92-6.92h129.46
	c3.82,0,6.91,3.1,6.92,6.92v139.36C278.14,247.2,275.05,250.29,271.23,250.3z M141.77,99.88c-2.29,0-4.15,1.86-4.15,4.15v139.36
	c0,2.29,1.86,4.15,4.15,4.15h129.46c2.29,0,4.15-1.86,4.15-4.15V104.02c0-2.29-1.86-4.15-4.15-4.15H141.77z"/>
<path fill="#E6E6E6" d="M496.23,250.3H366.77c-3.82,0-6.91-3.1-6.92-6.92V104.02c0-3.82,3.1-6.91,6.92-6.92h129.46
	c3.82,0,6.91,3.1,6.92,6.92v139.36C503.14,247.2,500.05,250.29,496.23,250.3z M366.77,99.88c-2.29,0-4.15,1.86-4.15,4.15v139.36
	c0,2.29,1.86,4.15,4.15,4.15h129.46c2.29,0,4.15-1.86,4.15-4.15V104.02c0-2.29-1.86-4.15-4.15-4.15H366.77z"/>
<path fill="#E6E6E6" d="M721.23,250.3H591.77c-3.82,0-6.91-3.1-6.92-6.92V104.02c0-3.82,3.1-6.91,6.92-6.92h129.46
	c3.82,0,6.91,3.1,6.92,6.92v139.36C728.14,247.2,725.05,250.29,721.23,250.3z M591.77,99.88c-2.29,0-4.15,1.86-4.15,4.15v139.36
	c0,2.29,1.86,4.15,4.15,4.15h129.46c2.29,0,4.15-1.86,4.15-4.15V104.02c0-2.29-1.86-4.15-4.15-4.15H591.77z"/>
<path fill="#3F3D56" d="M624.5,266.08c-0.55,0-1,0.45-1,1v8c0,0.55,0.45,1,1,1h64c0.55,0,1-0.45,1-1v-8c0-0.55-0.45-1-1-1H624.5z"/>
<path fill="#3F3D56" d="M174.5,266.08c-0.55,0-1,0.45-1,1v8c0,0.55,0.45,1,1,1h64c0.55,0,1-0.45,1-1v-8c0-0.55-0.45-1-1-1H174.5z"/>
<path fill="#6C63FF" d="M399.5,266.08c-0.55,0-1,0.45-1,1v8c0,0.55,0.45,1,1,1h64c0.55,0,1-0.45,1-1v-8c0-0.55-0.45-1-1-1H399.5z"/>
<g id="c">
	<g id="d">
		<g id="e">
			<path fill="#C6D325" d="M187.59,200.94v-4.32l33.33-1.54l-0.43,5.86H187.59z"/>
			<path fill="#EF7C00" d="M178.18,200.98l-0.49-67.12c0.18-0.12,0.46-0.28,0.84-0.39c0.41-0.11,0.76-0.1,0.98-0.07
				c0.8,13.99,1.35,28.42,1.63,43.26c0.16,8.24,0.21,16.35,0.18,24.31H178.18z"/>
			<path fill="#EF7C00" d="M220.49,200.94l-1.16-81.45c0.36-0.04,0.9-0.06,1.53,0.08c0.74,0.16,1.3,0.48,1.62,0.71
				c0.57,26.89,1.13,53.78,1.7,80.67L220.49,200.94L220.49,200.94z"/>
			<path fill="#29485D" d="M196.12,202.49c1.21,0,2.19-1,2.19-2.23s-0.98-2.23-2.19-2.23c-1.21,0-2.19,1-2.19,2.23
				S194.91,202.49,196.12,202.49z"/>
			<path fill="#29485D" d="M206.23,202.49c1.21,0,2.19-1,2.19-2.23s-0.98-2.23-2.19-2.23c-1.21,0-2.19,1-2.19,2.23
				S205.02,202.49,206.23,202.49z"/>
			<path fill="#29485D" d="M216.33,202.49c1.21,0,2.19-1,2.19-2.23s-0.98-2.23-2.19-2.23c-1.21,0-2.19,1-2.19,2.23
				S215.12,202.49,216.33,202.49z"/>
			<path fill="#7B493F" d="M155.93,200.94h96.26c-3.1,5.15-9.89,14.69-22.02,21.04c-24.47,12.83-48.74,1.19-51.12,0
				C166.51,215.71,159.31,206.19,155.93,200.94L155.93,200.94z"/>
			<path fill="#7B493F" d="M149.15,199.35l9.03,2.48c0.64-0.24,1.27-0.48,1.9-0.73C156.43,200.51,152.79,199.93,149.15,199.35
				L149.15,199.35z"/>
			<path fill="#7B493F" d="M263.86,195.63c-4.31,2.04-8.63,4.08-12.95,6.12c-1.17-0.27-2.34-0.54-3.51-0.81L263.86,195.63
				L263.86,195.63L263.86,195.63z"/>
			<path fill="#A16053" d="M155.93,200.94h96.26c-0.79,1.33-1.72,2.77-2.82,4.26c-1.03,1.39-2.06,2.62-3.04,3.71
				c-27.93,0.2-55.84,0.41-83.77,0.61c-1.32-1.43-2.69-3.06-4.07-4.89C157.54,203.36,156.69,202.13,155.93,200.94L155.93,200.94z"/>
			<path fill="none" stroke="#C6D325" stroke-width="2.57" stroke-linecap="round" stroke-miterlimit="10" d="M161.47,201.99
				c0.25,0.8,0.61,1.73,1.13,2.72c0.65,1.25,1.37,2.24,1.99,2.99"/>
			<path fill="none" stroke="#C6D325" stroke-width="2.57" stroke-linecap="round" stroke-miterlimit="10" d="M165.73,201.99
				c0.13,0.67,0.32,1.41,0.6,2.21c0.51,1.44,1.14,2.61,1.72,3.5"/>
			<path fill="none" stroke="#C6D325" stroke-width="2.57" stroke-linecap="round" stroke-miterlimit="10" d="M169.77,201.99
				c0.08,0.72,0.22,1.57,0.48,2.48c0.38,1.35,0.89,2.45,1.36,3.29"/>
			<path fill="none" stroke="#C6D325" stroke-width="2.57" stroke-linecap="round" stroke-miterlimit="10" d="M174.04,201.99
				c0.11,0.76,0.26,1.59,0.48,2.48c0.32,1.28,0.72,2.4,1.12,3.35"/>
			<path fill="none" stroke="#C6D325" stroke-width="2.57" stroke-linecap="round" stroke-miterlimit="10" d="M178.4,201.99
				c0.11,0.76,0.26,1.59,0.48,2.48c0.32,1.28,0.72,2.4,1.12,3.35"/>
			<path fill="none" stroke="#C6D325" stroke-width="2.57" stroke-linecap="round" stroke-miterlimit="10" d="M182.78,201.99
				c0.1,0.91,0.23,1.87,0.4,2.87c0.2,1.14,0.43,2.21,0.68,3.2"/>
			<path fill="none" stroke="#C6D325" stroke-width="2.57" stroke-linecap="round" stroke-miterlimit="10" d="M188.03,201.99
				c0.08,1.03,0.16,2.08,0.25,3.15c0.09,1.03,0.19,2.05,0.3,3.04"/>
			<path fill="none" stroke="#C6D325" stroke-width="2.57" stroke-linecap="round" stroke-miterlimit="10" d="M247.47,201.75
				c-0.3,0.8-0.68,1.69-1.17,2.61c-0.64,1.22-1.32,2.25-1.95,3.1"/>
			<path fill="none" stroke="#C6D325" stroke-width="2.57" stroke-linecap="round" stroke-miterlimit="10" d="M243.76,201.75
				c-0.13,0.67-0.32,1.41-0.6,2.21c-0.51,1.44-1.14,2.61-1.72,3.5"/>
			<path fill="none" stroke="#C6D325" stroke-width="2.57" stroke-linecap="round" stroke-miterlimit="10" d="M239.89,201.75
				c-0.08,0.72-0.22,1.57-0.48,2.48c-0.38,1.35-0.89,2.45-1.36,3.29"/>
			<path fill="none" stroke="#C6D325" stroke-width="2.57" stroke-linecap="round" stroke-miterlimit="10" d="M236.5,201.75
				c-0.16,0.76-0.39,1.59-0.71,2.48c-0.45,1.29-0.98,2.37-1.49,3.27"/>
			<path fill="none" stroke="#C6D325" stroke-width="2.57" stroke-linecap="round" stroke-miterlimit="10" d="M228.41,201.75
				c-0.11,0.76-0.26,1.59-0.48,2.48c-0.32,1.28-0.72,2.4-1.12,3.35"/>
			<path fill="none" stroke="#C6D325" stroke-width="2.57" stroke-linecap="round" stroke-miterlimit="10" d="M232.7,201.79
				c-0.19,0.75-0.44,1.57-0.78,2.44c-0.49,1.27-1.05,2.35-1.59,3.23"/>
			<path fill="none" stroke="#C6D325" stroke-width="2.57" stroke-linecap="round" stroke-miterlimit="10" d="M224.46,201.75
				c-0.1,0.91-0.23,1.87-0.4,2.87c-0.2,1.14-0.43,2.21-0.68,3.2"/>
			<path fill="none" stroke="#C6D325" stroke-width="2.57" stroke-linecap="round" stroke-miterlimit="10" d="M220.64,201.75
				c-0.08,1.03-0.16,2.08-0.25,3.15c-0.09,1.03-0.19,2.05-0.3,3.04"/>
			<path fill="none" stroke="#C6D325" stroke-width="2.57" stroke-linecap="round" stroke-miterlimit="10" d="M192.3,201.99
				c0.08,1.03,0.16,2.08,0.25,3.15c0.09,1.03,0.19,2.05,0.3,3.04"/>
			<path fill="none" stroke="#C6D325" stroke-width="2.57" stroke-linecap="round" stroke-miterlimit="10" d="M196.43,202.01
				c0.05,1.03,0.1,2.07,0.14,3.12c0.04,1.02,0.08,2.03,0.1,3.04"/>
			<path fill="none" stroke="#C6D325" stroke-width="2.57" stroke-linecap="round" stroke-miterlimit="10" d="M199.57,202.01
				c0.05,1.03,0.1,2.07,0.14,3.12c0.04,1.02,0.08,2.03,0.1,3.04"/>
			<path fill="none" stroke="#C6D325" stroke-width="2.57" stroke-linecap="round" stroke-miterlimit="10" d="M203.01,202.01
				c0.08,0.98,0.12,2.03,0.14,3.12c0.02,1.05,0,2.05-0.04,3"/>
			<path fill="none" stroke="#C6D325" stroke-width="2.57" stroke-linecap="round" stroke-miterlimit="10" d="M206.34,202.01
				c0.08,0.98,0.12,2.03,0.14,3.12c0.02,1.05,0,2.05-0.04,3"/>
			<path fill="none" stroke="#C6D325" stroke-width="2.57" stroke-linecap="round" stroke-miterlimit="10" d="M210.05,202.01
				c0.08,0.98,0.12,2.03,0.14,3.12c0.02,1.05,0,2.05-0.04,3"/>
			<path fill="none" stroke="#C6D325" stroke-width="2.57" stroke-linecap="round" stroke-miterlimit="10" d="M213.45,202.01
				c0.1,0.92,0.16,1.97,0.14,3.12c-0.02,1.08-0.12,2.05-0.24,2.9"/>
			<path fill="none" stroke="#C6D325" stroke-width="2.57" stroke-linecap="round" stroke-miterlimit="10" d="M216.82,202.01
				c0.1,0.92,0.16,1.97,0.14,3.12c-0.02,1.08-0.12,2.05-0.24,2.9"/>
			<path fill="none" stroke="#EF7C00" stroke-width="2.57" stroke-miterlimit="10" d="M175.69,139.59c0.38-0.92,0.82-1.89,1.33-2.89
				c0.37-0.72,0.74-1.4,1.12-2.02"/>
			<path fill="none" stroke="#EF7C00" stroke-width="2.57" stroke-miterlimit="10" d="M178.58,137.46c0.32,0.7,0.82,1.6,1.59,2.51
				c0.64,0.77,1.3,1.34,1.85,1.75"/>
			<path fill="none" stroke="#EF7C00" stroke-width="2.57" stroke-miterlimit="10" d="M179.05,197.71
				c-0.41-0.64-1.04-1.46-1.93-2.26c-0.75-0.67-1.48-1.14-2.07-1.46"/>
			<path fill="none" stroke="#EF7C00" stroke-width="2.57" stroke-miterlimit="10" d="M180.16,197.4c0.41-0.64,1.04-1.46,1.93-2.26
				c0.75-0.67,1.48-1.14,2.07-1.46"/>
			<path fill="none" stroke="#EF7C00" stroke-width="2.57" stroke-miterlimit="10" d="M222.18,189.77c0.41-0.64,1.04-1.46,1.93-2.26
				c0.75-0.67,1.48-1.14,2.07-1.46"/>
			<path fill="none" stroke="#EF7C00" stroke-width="2.57" stroke-miterlimit="10" d="M253.15,184.7c0.76-0.03,1.77,0,2.92,0.28
				c0.97,0.23,1.77,0.56,2.37,0.86"/>
			<path fill="none" stroke="#EF7C00" stroke-width="2.57" stroke-miterlimit="10" d="M222.03,123.77l2.34,4.7"/>
			<path fill="none" stroke="#EF7C00" stroke-width="2.57" stroke-miterlimit="10" d="M198.69,128.08
				c4.86-0.68,10.98-2.25,17.18-5.91c1.32-0.77,2.53-1.59,3.66-2.41"/>
			<path fill="none" stroke="#EF7C00" stroke-width="2.57" stroke-miterlimit="10" d="M222.28,120.48
				c13.86,25.05,27.72,50.1,41.57,75.15"/>
			<path fill="#29485D" d="M224.18,127.82l1.29,58.65c0.8,0.25,2,0.56,3.48,0.69c5.08,0.46,6.39-1.81,11.5-2.1
				c3.88-0.21,4.32,1.03,9.29,0.77c2.45-0.13,4.46-0.54,5.79-0.88C245.08,165.91,234.63,146.86,224.18,127.82L224.18,127.82
				L224.18,127.82z"/>
			<path fill="#29485D" d="M149.15,199.35l26.74-60.63v55.96c-3.48-0.01-7.48,0.21-11.87,0.87
				C158.2,196.43,153.19,197.87,149.15,199.35L149.15,199.35L149.15,199.35z"/>
			<path fill="#29485D" d="M180.84,140.79l2.77,53.2l28.58-0.94c-3.54-12.12-6.83-25.45-9.53-39.9c-1.65-8.8-2.93-17.25-3.93-25.33
				C192.77,132.14,186.8,136.47,180.84,140.79L180.84,140.79L180.84,140.79z"/>
		</g>
	</g>
</g>
<g id="c_00000120545021426409936960000007346337616818327974_">
	<g id="d_00000105397516253560208380000016660293450111003553_">
		<g id="e_00000151527820642854511930000004057442496554050984_">
			<path fill="#C6D325" d="M637.59,200.94v-4.32l33.33-1.54l-0.43,5.86H637.59z"/>
			<path fill="#EF7C00" d="M628.18,200.98l-0.49-67.12c0.18-0.12,0.46-0.28,0.84-0.39c0.41-0.11,0.76-0.1,0.98-0.07
				c0.8,13.99,1.35,28.42,1.63,43.26c0.16,8.24,0.21,16.35,0.18,24.31H628.18z"/>
			<path fill="#EF7C00" d="M670.49,200.94l-1.16-81.45c0.36-0.04,0.9-0.06,1.53,0.08c0.74,0.16,1.3,0.48,1.62,0.71
				c0.57,26.89,1.13,53.78,1.7,80.67L670.49,200.94L670.49,200.94z"/>
			<path fill="#29485D" d="M646.12,202.49c1.21,0,2.19-1,2.19-2.23s-0.98-2.23-2.19-2.23c-1.21,0-2.19,1-2.19,2.23
				S644.91,202.49,646.12,202.49z"/>
			<path fill="#29485D" d="M656.23,202.49c1.21,0,2.19-1,2.19-2.23s-0.98-2.23-2.19-2.23c-1.21,0-2.19,1-2.19,2.23
				S655.02,202.49,656.23,202.49z"/>
			<path fill="#29485D" d="M666.33,202.49c1.21,0,2.19-1,2.19-2.23s-0.98-2.23-2.19-2.23c-1.21,0-2.19,1-2.19,2.23
				S665.12,202.49,666.33,202.49z"/>
			<path fill="#7B493F" d="M605.93,200.94h96.26c-3.1,5.15-9.89,14.69-22.02,21.04c-24.47,12.83-48.74,1.19-51.12,0
				C616.51,215.71,609.31,206.19,605.93,200.94L605.93,200.94z"/>
			<path fill="#7B493F" d="M599.15,199.35l9.03,2.48c0.64-0.24,1.27-0.48,1.9-0.73C606.43,200.51,602.79,199.93,599.15,199.35
				L599.15,199.35z"/>
			<path fill="#7B493F" d="M713.86,195.63c-4.31,2.04-8.63,4.08-12.95,6.12c-1.17-0.27-2.34-0.54-3.51-0.81L713.86,195.63
				L713.86,195.63L713.86,195.63z"/>
			<path fill="#A16053" d="M605.93,200.94h96.26c-0.79,1.33-1.72,2.77-2.82,4.26c-1.03,1.39-2.06,2.62-3.04,3.71
				c-27.93,0.2-55.84,0.41-83.77,0.61c-1.32-1.43-2.69-3.06-4.07-4.89C607.54,203.36,606.69,202.13,605.93,200.94L605.93,200.94z"/>
			<path fill="none" stroke="#C6D325" stroke-width="2.57" stroke-linecap="round" stroke-miterlimit="10" d="M611.47,201.99
				c0.25,0.8,0.61,1.73,1.13,2.72c0.65,1.25,1.37,2.24,1.99,2.99"/>
			<path fill="none" stroke="#C6D325" stroke-width="2.57" stroke-linecap="round" stroke-miterlimit="10" d="M615.73,201.99
				c0.13,0.67,0.32,1.41,0.6,2.21c0.51,1.44,1.14,2.61,1.72,3.5"/>
			<path fill="none" stroke="#C6D325" stroke-width="2.57" stroke-linecap="round" stroke-miterlimit="10" d="M619.77,201.99
				c0.08,0.72,0.22,1.57,0.48,2.48c0.38,1.35,0.89,2.45,1.36,3.29"/>
			<path fill="none" stroke="#C6D325" stroke-width="2.57" stroke-linecap="round" stroke-miterlimit="10" d="M624.04,201.99
				c0.11,0.76,0.26,1.59,0.48,2.48c0.32,1.28,0.72,2.4,1.12,3.35"/>
			<path fill="none" stroke="#C6D325" stroke-width="2.57" stroke-linecap="round" stroke-miterlimit="10" d="M628.4,201.99
				c0.11,0.76,0.26,1.59,0.48,2.48c0.32,1.28,0.72,2.4,1.12,3.35"/>
			<path fill="none" stroke="#C6D325" stroke-width="2.57" stroke-linecap="round" stroke-miterlimit="10" d="M632.78,201.99
				c0.1,0.91,0.23,1.87,0.4,2.87c0.2,1.14,0.43,2.21,0.68,3.2"/>
			<path fill="none" stroke="#C6D325" stroke-width="2.57" stroke-linecap="round" stroke-miterlimit="10" d="M638.03,201.99
				c0.08,1.03,0.16,2.08,0.25,3.15c0.09,1.03,0.19,2.05,0.3,3.04"/>
			<path fill="none" stroke="#C6D325" stroke-width="2.57" stroke-linecap="round" stroke-miterlimit="10" d="M697.47,201.75
				c-0.3,0.8-0.68,1.69-1.17,2.61c-0.64,1.22-1.32,2.25-1.95,3.1"/>
			<path fill="none" stroke="#C6D325" stroke-width="2.57" stroke-linecap="round" stroke-miterlimit="10" d="M693.76,201.75
				c-0.13,0.67-0.32,1.41-0.6,2.21c-0.51,1.44-1.14,2.61-1.72,3.5"/>
			<path fill="none" stroke="#C6D325" stroke-width="2.57" stroke-linecap="round" stroke-miterlimit="10" d="M689.89,201.75
				c-0.08,0.72-0.22,1.57-0.48,2.48c-0.38,1.35-0.89,2.45-1.36,3.29"/>
			<path fill="none" stroke="#C6D325" stroke-width="2.57" stroke-linecap="round" stroke-miterlimit="10" d="M686.5,201.75
				c-0.16,0.76-0.39,1.59-0.71,2.48c-0.45,1.29-0.98,2.37-1.49,3.27"/>
			<path fill="none" stroke="#C6D325" stroke-width="2.57" stroke-linecap="round" stroke-miterlimit="10" d="M678.41,201.75
				c-0.11,0.76-0.26,1.59-0.48,2.48c-0.32,1.28-0.72,2.4-1.12,3.35"/>
			<path fill="none" stroke="#C6D325" stroke-width="2.57" stroke-linecap="round" stroke-miterlimit="10" d="M682.7,201.79
				c-0.19,0.75-0.44,1.57-0.78,2.44c-0.49,1.27-1.05,2.35-1.59,3.23"/>
			<path fill="none" stroke="#C6D325" stroke-width="2.57" stroke-linecap="round" stroke-miterlimit="10" d="M674.46,201.75
				c-0.1,0.91-0.23,1.87-0.4,2.87c-0.2,1.14-0.43,2.21-0.68,3.2"/>
			<path fill="none" stroke="#C6D325" stroke-width="2.57" stroke-linecap="round" stroke-miterlimit="10" d="M670.64,201.75
				c-0.08,1.03-0.16,2.08-0.25,3.15c-0.09,1.03-0.19,2.05-0.3,3.04"/>
			<path fill="none" stroke="#C6D325" stroke-width="2.57" stroke-linecap="round" stroke-miterlimit="10" d="M642.3,201.99
				c0.08,1.03,0.16,2.08,0.25,3.15c0.09,1.03,0.19,2.05,0.3,3.04"/>
			<path fill="none" stroke="#C6D325" stroke-width="2.57" stroke-linecap="round" stroke-miterlimit="10" d="M646.43,202.01
				c0.05,1.03,0.1,2.07,0.14,3.12c0.04,1.02,0.08,2.03,0.1,3.04"/>
			<path fill="none" stroke="#C6D325" stroke-width="2.57" stroke-linecap="round" stroke-miterlimit="10" d="M649.57,202.01
				c0.05,1.03,0.1,2.07,0.14,3.12c0.04,1.02,0.08,2.03,0.1,3.04"/>
			<path fill="none" stroke="#C6D325" stroke-width="2.57" stroke-linecap="round" stroke-miterlimit="10" d="M653.01,202.01
				c0.08,0.98,0.12,2.03,0.14,3.12c0.02,1.05,0,2.05-0.04,3"/>
			<path fill="none" stroke="#C6D325" stroke-width="2.57" stroke-linecap="round" stroke-miterlimit="10" d="M656.34,202.01
				c0.08,0.98,0.12,2.03,0.14,3.12c0.02,1.05,0,2.05-0.04,3"/>
			<path fill="none" stroke="#C6D325" stroke-width="2.57" stroke-linecap="round" stroke-miterlimit="10" d="M660.05,202.01
				c0.08,0.98,0.12,2.03,0.14,3.12c0.02,1.05,0,2.05-0.04,3"/>
			<path fill="none" stroke="#C6D325" stroke-width="2.57" stroke-linecap="round" stroke-miterlimit="10" d="M663.45,202.01
				c0.1,0.92,0.16,1.97,0.14,3.12c-0.02,1.08-0.12,2.05-0.24,2.9"/>
			<path fill="none" stroke="#C6D325" stroke-width="2.57" stroke-linecap="round" stroke-miterlimit="10" d="M666.82,202.01
				c0.1,0.92,0.16,1.97,0.14,3.12c-0.02,1.08-0.12,2.05-0.24,2.9"/>
			<path fill="none" stroke="#EF7C00" stroke-width="2.57" stroke-miterlimit="10" d="M625.69,139.59c0.38-0.92,0.82-1.89,1.33-2.89
				c0.37-0.72,0.74-1.4,1.12-2.02"/>
			<path fill="none" stroke="#EF7C00" stroke-width="2.57" stroke-miterlimit="10" d="M628.58,137.46c0.32,0.7,0.82,1.6,1.59,2.51
				c0.64,0.77,1.3,1.34,1.85,1.75"/>
			<path fill="none" stroke="#EF7C00" stroke-width="2.57" stroke-miterlimit="10" d="M629.05,197.71
				c-0.41-0.64-1.04-1.46-1.93-2.26c-0.75-0.67-1.48-1.14-2.07-1.46"/>
			<path fill="none" stroke="#EF7C00" stroke-width="2.57" stroke-miterlimit="10" d="M630.16,197.4c0.41-0.64,1.04-1.46,1.93-2.26
				c0.75-0.67,1.48-1.14,2.07-1.46"/>
			<path fill="none" stroke="#EF7C00" stroke-width="2.57" stroke-miterlimit="10" d="M672.18,189.77c0.41-0.64,1.04-1.46,1.93-2.26
				c0.75-0.67,1.48-1.14,2.07-1.46"/>
			<path fill="none" stroke="#EF7C00" stroke-width="2.57" stroke-miterlimit="10" d="M703.15,184.7c0.76-0.03,1.77,0,2.92,0.28
				c0.97,0.23,1.77,0.56,2.37,0.86"/>
			<path fill="none" stroke="#EF7C00" stroke-width="2.57" stroke-miterlimit="10" d="M672.03,123.77l2.34,4.7"/>
			<path fill="none" stroke="#EF7C00" stroke-width="2.57" stroke-miterlimit="10" d="M648.69,128.08
				c4.86-0.68,10.98-2.25,17.18-5.91c1.32-0.77,2.53-1.59,3.66-2.41"/>
			<path fill="none" stroke="#EF7C00" stroke-width="2.57" stroke-miterlimit="10" d="M672.28,120.48
				c13.86,25.05,27.72,50.1,41.57,75.15"/>
			<path fill="#29485D" d="M674.18,127.82l1.29,58.65c0.8,0.25,2,0.56,3.48,0.69c5.08,0.46,6.39-1.81,11.5-2.1
				c3.88-0.21,4.32,1.03,9.29,0.77c2.45-0.13,4.46-0.54,5.79-0.88C695.08,165.91,684.63,146.86,674.18,127.82L674.18,127.82
				L674.18,127.82z"/>
			<path fill="#29485D" d="M599.15,199.35l26.74-60.63v55.96c-3.48-0.01-7.48,0.21-11.87,0.87
				C608.2,196.43,603.19,197.87,599.15,199.35L599.15,199.35L599.15,199.35z"/>
			<path fill="#29485D" d="M630.84,140.79l2.77,53.2l28.58-0.94c-3.54-12.12-6.83-25.45-9.53-39.9c-1.65-8.8-2.93-17.25-3.93-25.33
				C642.77,132.14,636.8,136.47,630.84,140.79L630.84,140.79L630.84,140.79z"/>
		</g>
	</g>
</g>
<g>
	<path fill="#29485D" d="M425.26,183.78c0-5.64,2.03-9.25,7.12-12.57l5.55-3.79c3.79-2.68,5.82-5.73,5.82-10.17
		c0-6.01-4.72-11.09-14.33-11.09c-6.01,0-11.65,1.76-16.55,4.44v-6.38c3.79-1.85,9.8-3.79,16.55-3.79
		c13.87,0,20.71,7.86,20.71,16.83c0,7.21-3.61,11.46-9.06,15.07l-5.73,3.88c-3.14,2.13-4.35,4.72-4.35,8.6v2.03h-5.73V183.78z
		 M423.04,201.81c0-2.87,2.22-5.18,5.09-5.18c2.96,0,5.18,2.31,5.18,5.18c0,2.96-2.22,5.18-5.18,5.18
		C425.26,206.99,423.04,204.77,423.04,201.81z"/>
</g>
<g id="Floor">
	<rect x="0.22" y="555.97" fill="#E6E6E6" width="879.81" height="65.26"/>
	<polygon fill="#3F3D56" points="878.81,556.03 0,556.03 0,553.84 879.21,553.84 	"/>
</g>
<g id="woman-child">
	<path fill="#E0AB8B" d="M596.84,593.92l-7.36,0.86c-5.82,3.51-12.64,4.83-20.2,4.56c-2.15-0.06-4.1-1.26-5.13-3.14l0,0
		c-1.58-2.92-0.5-6.56,2.42-8.14c0.47-0.26,0.98-0.45,1.5-0.57l5.59-1.3l13.5-13.2l8.14-14.74l11.83,1.36l2.46,18.72l0,0
		C610.24,586.11,604.6,593.01,596.84,593.92z"/>
	<path fill="#E0AB8B" d="M482.17,584.45l-7.22,1.7c-5.38,4.15-12.01,6.24-19.55,6.83c-2.14,0.18-4.22-0.79-5.46-2.54l0,0
		c-1.9-2.72-1.24-6.46,1.48-8.36c0.44-0.31,0.92-0.56,1.42-0.74l5.41-1.93l11.91-14.66l6.41-15.57h11.91l4.58,18.32l0,0
		C494.59,575.16,489.77,582.66,482.17,584.45z"/>
	<path fill="#29485D" d="M476.25,550.22l13.47,2.07l21.23-107.21l36.77-62.67l44.54,182.31l16.57,3.11
		c-1.86-102.66,7.21-231.91-13.47-247.56l-90.12,10.36l-39.36,105.65L476.25,550.22z"/>
	<circle fill="#E0AB8B" cx="541.51" cy="129.67" r="31.07"/>
	<polygon fill="#E0AB8B" points="585.01,177.32 547.72,183.53 538.4,150.38 565.33,142.1 	"/>
	<path fill="#006C66" d="M600.55,324.4l-99.44,9.32c7.97-27.72,15.28-55.34,9.32-82.87c-7.56-24.57-0.26-39.18,19.68-50.76
		l13.47-30.04l36.25-4.14l0,0c9.6,15.44,13.53,33.73,11.11,51.75C585.77,256.85,587.17,293.21,600.55,324.4z"/>
	<path fill="#2F2E41" d="M540.81,92.97c-10.37,2.37-22.17,5.73-22.84,8.85c-10.67,2.69-18.72,9.13-20.36,18.94
		c-0.52,3.21,1.66,6.22,4.86,6.74c0.34,0.06,0.69,0.08,1.03,0.07c5.8-0.07,14.51-0.63,20.26-3.03
		c16.71,10.76,19.51,38.76,12.22,57.82l11.48-1.05l11.88-34.77l3.03,33.4l26.2-3.46l-3.37-42.6c-1.04-10.04-4.45-19.69-9.97-28.14
		c-0.57-0.85-1.2-1.66-1.88-2.43C565.24,94.14,552.73,90.17,540.81,92.97z"/>
	<path fill="#FFB8B8" d="M475,604.6c-0.22,2,1.22,3.81,3.22,4.03c0.12,0.01,0.24,0.02,0.37,0.02l11.65,0.12
		c1.3-0.09,2.31-1.17,2.31-2.48l0,0c0-1.02-0.62-1.93-1.56-2.31l-3.44-1.38l-5-7h-4c-1.96,2.62-3.19,5.72-3.55,8.97L475,604.6
		L475,604.6z"/>
	<path fill="#FFB8B8" d="M447.11,604.6c0.22,2-1.22,3.81-3.22,4.03c-0.12,0.01-0.24,0.02-0.37,0.02l-11.65,0.12
		c-1.3-0.09-2.31-1.17-2.31-2.48l0,0c0-1.02,0.62-1.93,1.56-2.31l3.44-1.38l5-7h4c1.96,2.62,3.19,5.72,3.55,8.97L447.11,604.6
		L447.11,604.6z"/>
	<polygon fill="#C6D325" points="438.56,595.61 444.56,595.61 465.56,504.61 476.56,596.61 483.56,596.61 493.06,478.11 
		444.56,477.61 	"/>
	<path fill="#FFB8B8" d="M411.56,428.61h8v-19l1.82-3.64c1.28-2.56,0.24-5.67-2.32-6.95c-0.48-0.24-1-0.41-1.53-0.49l0,0
		c-2.83-0.44-5.48,1.51-5.91,4.34c-0.04,0.26-0.06,0.52-0.06,0.79V428.61z"/>
	<circle fill="#FFB8B8" cx="459.06" cy="363.11" r="18.5"/>
	<rect x="451.56" y="372.61" fill="#FFB8B8" width="19" height="22"/>
	<path fill="#00B1EA" d="M442.56,480.61c16.82,10.38,34.6,9.36,53,1l-4-93l-21-1l-22,3l-11,9L442.56,480.61z"/>
	<polygon fill="#00B1EA" points="422.56,447.61 444.56,430.61 437.56,399.61 424.56,423.61 420.56,419.61 408.56,428.61 	"/>
	<path fill="#FFB8B8" d="M520.21,390.21l-7,3.88l-9.21-16.62l-3.36-2.3c-2.36-1.62-2.96-4.85-1.34-7.21c0.3-0.44,0.68-0.84,1.1-1.17
		l0,0c2.26-1.75,5.52-1.34,7.27,0.93c0.16,0.21,0.31,0.43,0.43,0.66l2.89,5.21L520.21,390.21z"/>
	<polygon fill="#00B1EA" points="481.06,418.11 507.61,404.02 521.56,396.61 523.56,384.61 514.56,375.61 503.56,382.61 
		504.56,390.61 491.56,388.61 	"/>
	<circle fill="#2F2E41" cx="463.06" cy="356.11" r="22"/>
	<circle fill="#2F2E41" cx="475.06" cy="331.11" r="10"/>
	<path fill="#2F2E41" d="M474.57,339.48c4.89,2.56,10.93,0.66,13.49-4.24c1.72-3.3,1.47-7.28-0.65-10.33
		c4.41,3.32,5.3,9.58,1.98,13.99s-9.58,5.3-13.99,1.98c-0.85-0.64-1.6-1.41-2.2-2.29C473.62,338.92,474.09,339.22,474.57,339.48z"/>
	<path fill="#E0AB8B" d="M536.33,355.48l0.69,24.05c0.2,6.88-4.96,12.74-11.8,13.42l0,0c-7.21,0.72-13.63-4.54-14.35-11.74
		c-0.16-1.59-0.03-3.19,0.39-4.73l5.4-19.97l15.54-84.94l-1.04-49.72l33.15-1.04l-6.22,55.93L536.33,355.48z"/>
	<path fill="#006C66" d="M566.37,226c-12.01-4.57-25.28-4.57-37.29,0l2.07-41.43c0-9.15,7.42-16.57,16.57-16.57l0,0
		c9.15,0,16.57,7.42,16.57,16.57L566.37,226z"/>
</g>
</svg>
